<svg xmlns="http://www.w3.org/2000/svg" xmlns:xlink="http://www.w3.org/1999/xlink" width="740.528" height="267.334" xmlns:v="https://vecta.io/nano"><g transform="translate(-29.735 -166.333)"><defs><path id="A" d="M66.78 233.596l3.505 4.52 1.424.608 1.888 2.05.464.712-.483 1.44-.414 4.1-.906 1.026-2.206-.508-.024-.722-1.27-3.097-2.307-1.727-.903-.09-.6-1.766-1.164-2.095-3.52-3.825 2.668.03 1.296-.932.297-.744.213-.2zm27.2 52.1l-1.49.09-3.193-1.925-.753-.863-.185-1.152-3.062-4.45-.407-1.02 1.202-3.652 3.12-.882 1.028.616.358 1.642 1.783 2.963.59 1.597.444.708.186.55-.158.384 1.288 1.878.92 1.1.068 1.78zm282.567 110.31l-2.046 3.366.73.543.44.516-3.384.697-1.413-.37-.816.097-3.437-.634-2.46-.773-.28-.613.194-.733.73.248 1.895.117.725-.33.02-2.17-.268-2.825 2.566-2.308 1.366-.93 1.573-.548 3.968 1.274.655.347.508.518.245.826zm-19.288-7.447l1.642.862 2.288 2.52.216.707-.693.668-1.64 1.07-3.657 1.65-.627.78-.774 1.525-.178.65-.257.357-.42.26-.797.22-.864-.32.78-.983.03-1.17-.58-1.095-.818-.917-1.666-1.245-1.778-1.102-1.8-.56-1.91-.254-.684-.534-1.118-1.373-.37-.748-.183-.786.125-.76.47-.046 1.87.18 3.444.89 1.705.073.965-.206 2.52-1.763.598.03 2.413.778zM205.245 283.943l.556 1.106.76.995.56 1.073.76 5.17 2.54 4.44 7.317 1.744-1.198.717-.61.644-.45.74-1.08 3.08.106.653.632 1.046.155 1.135-.916-.006-1.03-.254-.82-.427-.766-.56-.83-.444-.902-.287-1.48-.88-2.008-.622-2.056-.5-.995-1.308-.472-1.613.502-2.408-.508-.667-.73-.587-.898-1.736-.34-2.026-1.303-.783-1.718-.474-.748-.388-3.393.74-.813-.174-.726-.56-1.847-.592.07-1.124.862-.896 2.024-.905.947-.76.19-1.003-.36-.734.144-.767.64-.744.758-.584 2.035-.77.89 1.345.44 1.123.538.814.867-1.163-.55-2.005 1.547-.447 1.52-.017 1.146.55.75.868zm277.024 46.354l.376 3.465-.118.9-.91-1.333-.327-.266-.25.266-.322.146-.464-.013-.602 1.346-.054 1.266-.455.852-.24 2.828.15.762.704-.376.434-.096 1.592 1.1.84.795-.237.962-1.077.97-1.25.422-.932-.416-.275.197-.55.5-.418.657.12.676-1.067 1.915-.616.538-1.277-.586-.788.504-.636-.046-.97-1.916.024-.9.902-1 .006-.728.445-.81.992-1.112.567-.835.017-.53.422-2.012.164-.844.286-.897.452-1.824.063-3.43 1.513-2.83 1.478-.772.587-.126-.09.752zm-8.645 11.578l-.417 1.07-.897.833-.714.06-.745-.17-1.32-.73-.335.77-1.04-.035-.387-.99.742-2.933 1.088-1.094-.1-1.15-.898-2.45.557-1.28 2.514-.968 2.19-1.18.68-.246.61.908.325 4.173-2.357 3.302zM241.952 197.832l-2.206.59-1.28-.828 1.386-1.02.5-.068.32-.2.115-.415-2.503-.672-.7-.593-.682-1.512.02-.96 3.208-2.543.75-.268.117 1.053 2.22 2.666.096 1.774-.085.64zm-1.76 107.46l-.25 1.695-.396.64-1.353.84-.458.514-1.263-.082-.16-.888-.423-.6-1.34-.69-.35.166-.24 1.03-2.622.72-.73.06.36-1.36-.676-1.068-.054-1.316-.125-.576-.33-.33.67-.917-.11-1.02.703-1.096.4-2.656 2.773-.58.597.473 3.23.6 2.275 1.608 1.22 2.14zM679.57 267.59l3.44.627 1.254-.035 1.225.71 1.49-.336.846.227 2.833 2.44 1.39 1.616 2.068 1.387 1.498.472-1.13 1.27-2.274.668-.88.033-1.743-.756-1.415.14-1.233-.948-.213-1.464-1.27-3.297-1.64.946-1.97-1.52-.53-.036-.125.257-.837-.518-.71-1.027zm1.475 15.106l6.385.806 1.73-.104 3.644.312 3.04 1.07 5.318.2 1.587.318 1.227.738-2.975.6-1.402.568-2.604.28-2.18-.29-1.584.34-.575-.554-2.318-.563-2.967-1.156-6.114-1.346-.29-.838zm-75.358-25.5l2.8.682.635-.107 4.06 1.764.647.875-.23.592.598.8-1.33 1.21-.64.135-.65-.452-1.293-.256-1.494.492-.952-.372-.805-1.1-1.427-.674-2.02-2.34-.99.085.26.916.857.604 1.132 1.78.65.173.673-.06.906.74-.047 1.15-2.362.447-.815-.84-.18-1.526-1.328.514-.51.533-.4.074-.88-1.6-2.518-.082-1.68-.845.826-.883.117-.855 1.093-.46 1.107.412 1.1-.616.788.158.58-.394 2.232-.25zM567.54 224.17l-2.555.274-.58-.768-.68-3.454 1.817-2.763 2.29-1.626 1.56-.41.542-.024 1.396 1.992-1.055 4.007-1.224 2.047zm-4.865 59.63l-1 .653-.494.18-2.384-.438-2.793.09-2.9.606-1.682-.512-1.058-.833.046-.883.998-2.187 2.184-1.654.887-.295 1.557.447 2.62 1.266 2.065 1.487 1.874 1.158zm-33.92 12.707l-.278.292-.97-.868-.652-2.453-.556-.653-.652-2.33.167-.662.8-.982.647.016.483.58-.27 2.51 1.45 3.178zm-.5-10.632l4.972.532-.706.58-5.362.927-1.9-.168-5.815.544-.753-.03-.107-.898-.627-.63.93-.548 1.232-.13 3.224.207zm-17.052-1.354l1.51.57.532-.003.5-.667.308-.108.68.326.158 1.083.98-.15.763.37.24.26-.1 1.078-2.9.2-2.07.87-2.785-.78-3.158 1.346-1.917.46-1.663-.028-1.424-2.35.827-2.754.594-.453 1.058-.24 2.926-.135zM613.97 386.023l-.265.184-2.008-.21-1.15-.008.156-1.224-.592-.922.808-1.35.016-1.57.845-.2.118-.894 1.014-2.37.595-.525.846-.206 1-1.38.568-.402.59-1.047.85-.487-.07-.898.483-.476 1.337-.37.927.444.572.92-1.492 1.13.764 2.785-1.078 3.035-.714.908-1.323.785-.403.746-1.56 1.5-.474 1.28-.07.542zm-73.154-5.377l.218.788-.028.347-1.937.253-1.868.877-.957 1-.745 1.305-2.574-.53-2.293-.087-1.014-.46-1.105.03-1.43.407-2.027 1.11-.452.086.164-1.685.562-1.037 2.136-2.485 1.78.55 2.075.152 2.356-.486 1.674-1.117 2.372-.584 1.888 1.465zm-35.98 7.67l.388.99 1.25-.547 1.22-.138 2.78.105 2.04.22 1.202.41.115 1.975-.565.428-10.55 1.49-1.028-.48-.406-.474 1.138-1.463-.524-.694.6-1.133 1.26-.775zm103.9-110.058l-.57.45-1.964-.42-1.015-.993-.695-1.332-.44-1.095-.125-.87-.59-1.064.08-.39 3.625-1.12.684.406 1.513.036.662.814-.448 3.533zM50.79 173.028l1.983.147 3.677-.875 2.022.086 1.907.632 1.693.365 4.216-.463.793.124.76.362.652.572 1.928 2.1 3.26 2.582.94 1.652.537 1.857.338.436 3.682 3.555.403 1.486-.52 2.058 1.07 1.637 3.573 1.535 2.108 1.118.45.685.31.817 1.167 1.213 1.467.8 4.568 2.078 5.987 4.345 3.41 2.06 2.818 3.134 1.015 1.5.838 1.62 1.713 2.358 2.9 2.9.736.886.783 1.283.903 1.193 1.08 1.097 1.3.84 1.32.27 2.127 2.102 1.15.66-.182-1.645-.966-1.44.014-.87.17-.777.79-.654.952-.184 1.783.6 2.894 2.495 1.222 1.453.92 2.006.767 2.082 1.157 1.034 1.6.362 1.767.15 1.625.64 3.802 2.88 1.263 1.353.957 1.59.658 1.882.4 1.976.254.456 2.44 2.383 1.282 1.007 1.57.49 4.576.536 1.615.823 1.334 1.37.56 1.396-.954 1.23-3.576 1.888-3.82 1.306 3.712-.45 1.88-.548 1.73-.857 1.712-1.09 2.714-1.52 1.01-.308 1.186.11 1.077.43 1.614 1.495 1.52 1.576 1.134 1.84.7 2.047-1.298 1.07-1.89.8-2.602 1.976-.273.78.53.502-.635 1.454 1.46.897.223.762-1.262 1.093.12.674 1.522 2.877.725.66 2.32 1.462 3.54 1.484 1.958.68 2.22.53.954-.014 1.666-.242.335.576.718 2.835.343 1.795.508 3.82.65 1.585-.043 1.94.854 1.645 1.74 1.05 1.854.862.876.838-.01 1.267-.298 1.003-.627.78-1.92 1.653-.343.713-.27 1.824.327.834.77.047.605-.438 2.307-2.444.624-.428.87-.342.89-.215 4.214-.02 1.786.385 1.6.796 1.402 1.002 5.127 6.363 2.348 3.513.185.875.043.91-.4.704-2.138 2.4-.265.663-.668 2.613.126 1.88.7.79.565.858-.044.778-1.408 3.87-.148.662.89 6.298.065 1.706-.182 2.158.128 3.48-1.15 10.76-.216.643-.88 1.644-1.16-.01-.938-.3-.657-.63-.362-.78-.532-.638-2.8-1.99-.734.33-2.844 2.467-.756.366-.95-.3-1.494-.738-4.7-2.594-.29.83-.057 1.125.935 2.82.13 1.234-.856.246-.477-.054-1.95-1.638-1.8-1.814-2.046-2.45-1.495-1.166-1.353-1.3-3.805-4.94-.988-.754-5.896-3.49-1.19-.825-1.508-1.443-1.62-1.28-3.552-2.03-6.164-5.13-2.68-2.945-2.98-4.744-.973-1.212-5.007-3.56-2.73-2.155-1.138-1.24-2.657-4.313-.777-1.453-.98-1.283-1.607-1.04-1.418-1.225-2.815-3.9-.887-1.554-.67-1.68.117-3.37-5.962-10.203-1.497-3.178-1.386-4.41-.3-.447-3.253-3.95-1.15-1.264-1.39-1.19-1.142-1.388-2.244-4.5-.832-1.253-1.167-.92-4.254-1.705-1.587-.95-1.25-1.35-.767-1.72-.843-3.653-2.005-5.55-2.25-7.433-1.517-3.33-1.734-2.613-.502-.603-7.724-4.707-1.317-.693-1.4-.418-1.997-.3-1.524-1.216-.627-2.182-.346-2.928-.385-1.748-.42-.988-3.226-2.07-1.263-1.637-1.055-1.8-.963-1.395-3.548-4.817-1.213-1.264-1.503-.882-4.456-.934-1.304-.8-2.165-2.737-1.306-1.39-3.914-3.068-6.62-6.422-1.356-1.602-1.015-1.67-.82-1.79-2.82-4.966.227-1.003.426-1.04-.066-.863-.31-.852.065-.77.837-.453 1.884-.58 1.955.068 1.81.25 1.753.48 1.68 1.046 3.008 2.635 1.713.918 1.9.44zm425.06 222.933l-2.286.577-1.418.547-1.352.724-.856.15-1.55.06-2.195-.13-1.48.235-4.13 1.88-1.623.163-1.405.46-.486-.73-.594-.54-1.374-.136-1.374.043-1.396 1.66-2.223-.348-.862.146-.83.35-.823.154-.864-.116-3.248-1.292-3.726-.763-3.734.3-3.21-.705-1.76.54-1.66.772-.49-.813-.61-.716-.542-1.07-.014-1.214.18-.852.477-.774.298-.807.14-.866.703.41.736-.155 2.2-.942 2.133-1.423 1.988-.52 1.145-.144.98.28.996-.102 1.02-.315 1.606 1.094.676.222 2.18.084 1.982.63 1.77.942 2.563.883 1.54 1.185 1.173.438.87.12.8-.16 1.01-.798 1.18-.33 1.03.013 1.873-.206.79-.192.886-.438.867.27.76.403 3.17 2.083.973.055 1.783-.447.535-.558.275-.858.488-.714.68-.618.77-.473 2.368-.8 1.625-.79 1.1-1.34-2.596-.583.546-.963.862-.54 1.153.2.992.753.447 2.875-.816.406-.515.436-.347.574-1.47 1.053.576 1.316-.433.544zm-44.792 12.407l.73.733 2.643 1.4.436.595.166.982.53.73 1.19.11 1.276-.148.97.463.838.734 1.246 1.425 1.096 1.576 1.36.88.778 1.313-.46 1.158-1.716 1.602-.932.348-1.273.126-1.982.953-.722-.5-2.248-.346-1.79-.69-1.502-1.26-.865-1.356-1.096-1.195-1.906-.8-3.423-2.347-2.114-.212-.87.172-.87.01-4.48-1.057-.696-.617-.55-.79-.502-.776-.3-.872.572-.77.603-.518 2.493-.908 1.783-.28 2.07.043 3.085-.283 2.916.456.9-.34 1.476-.946.513.327zm-28.62-17.18l.808.64.736-.06 1.54-.978.928-.353.995-.017.966.167.95.694.343 1.137.357.35.557-1.36.742-.41.832-.208 1.3.074.996.65.906 1.933-.028 1.692.33.63.624.462.463.65-.412.68-.41.333-1.175.31-.562-.136-.52-.457-.583-.168-1.328.152-1.217.38.167.62 1 .28.302.294-.066.398-.393.08-1.3-.536-.878.108-3.153.724-.835-.016-.47-.684.033-1.782-.34-.473-2.343 2.165-.712.532-.944.25-.984-.087-3.387 1.315-1.064-.184-1.03-.003-3.617 1.424-1.94.397-.995.03-.992-.122-.886.13-.793.572-1.615.484-1.667-.37-1.408-.49-1.336-.648-.332-.827.066-.994.564-1.356-.385-2.377.294-1.084.546-1.064.827-.392 1.082-.08 1.787-.958 1.636-1.254.95.12 2.15.877 1.26.105 2.143-.14.884.54.35 1.234.477.45.635.314 1.52 2.088 1.408-.1 1.235.384 2.176-1.263 1.647.03.467-.98-.984-1.045-1.19-.85-.638-.178-.698.05-.627-.138-2.656-1.896-.783-1.024-.453-1.208.273-.894 1.827-.79.853-.192 3.177.54.537.45.843 1.903zM509.9 241.143l-3.084 2.726-.943 1.317-.82 1.418-1.213 1.576-1.4 1.4-.698.412-1.72.747-1 .3-1.866.093-5.62 1.11-1.846.13-1.838-.046-3.485-.277-.728-.145-1.39-1.428-1.568-1.13-1.385-.123-1.41.12-10.167.08-3.554.21-3.54.505-1.928-.23-1.9-.566-1.437-.198-1.454.058-6.674.853-1.678-.08-3.376-1.09-1.963-.22-1.925.29-1.794.98-.68.658-1.855 2.244-1.05 1.637-.793 2.036-.684 2.083-.368 1.706-.02 1.782.317 2.006.504 1.984.56 1.515 2.315 3.507.472.497 2.515.987 1.5 1.266 1.415 3.518 1.007 1.793 1 .022 1.105-.125 1.922.227 1.906.46 1.857-1.078 1.036-2.04 1.04-1.515 2.498-2.885 1.423-1.333.91-.434.924.2.783.764.914.607 1.866.326 1.884-.204 2.005-.936.718-.574.595-.73 1.7-.6 4.037-.006 2.087.212 3.718-.235-.052-.532-.718-.563-.188-.452.69-.292 2.395-.657 2.443-.467 1.778.334 1.588.916.61.946.272 1.137-.613 2.946-.297.682-1.266.353-1.194-.39-1.18-1.522-1.67-.557-2.37.46-.813.436-.73.61-1.34 1.578L473.79 276l-2.41 2.773-2.788 2.4-1.35.923-1.505.62-4.835 1.596-1.273 1.185-.988 1.54-1.096.524-1.266.166-.95-.29-1.926-.868-.635.714-.107 1.09.95.388 1.527 1.204 1.18 1.7.758.366 1.683.552.707.53 1.27 1.457 2 3.39.68 1.834 1.1 1.496 3.38 2.542.188.718-.21.836.26.762 1.208 1.46.287.94-1.322 1.194-.073 1.73-.8 2.33-.183.786.025.7.57.663.663.525.91.277.796.457 1.53 1.816.8.478.507.662-.052.986.698.577.643 1.03.982.25.46-.296.314-.442.804.167.475.717.275.922.088 1.016-.04 1.928-.406.69-.884-.033-1.582-.793-.076.573.107.555-.805.184-.924-.077-2.318.076-4.273 1.197-1.5.706-.97 1.287-.068.89.376 1.876-.568.656-1.958.25-2.732-.504-1.655-.5-.922-.42-1.202-1.262-.45-1.614.884-4.803.25-.617.43-.55.455-.873.106-1.025-1.304-1.253-1.966-.492-1.667-1.044-6.442-5.853-.363-.566-.014-.97.26-.907 2.117-3.2.265-.613.26-2.524-.057-2.078-.237-2.08-1.003-1.308-1.8-.397-1.85-.064-1.802.418-1.773 1.046-3.275 2.203-1.3 1.28-.112 1.665.75 1.632.97 1.49.516 1.63.715 5.78-.024.652-.843 1.682-.332 3.758.357 5.305.575 3.258-.245 1.77-1.533 3.803-.464 2.088-.035.86 1.805 3.976.415 1.572.223 1.63-1.92-.797-.892.04-.9.246-2 .26-2.03.035-.7.3-1.44 1.057-.873.427-.763.082-2.585-1.33-1.525-1.442-1.405-1.563-.256-1.785.49-1.832.695-1.957 1.39-3.254-.065-2.183.475-1.79.794-1.736.286-1.605.193-6.267-.197-.557-1.904-3.722-.22-.624-.013-1.004.205-.96.04-.864-.437-.662-.77-.605-.933-.264-1.974.262-3.968 1.002-1.172-.883-.88-1.362-.564-1.896-.328-1.987.152-1.866.586-1.803-.472-1.26-.73-1.372-.006-.707.415-.62.717-.517.876-.302.82-.546 2.166-1.84.698-1.617.046-2 .55-1.904 1.108-1.753 1.3-1.627.426-1.678-.646-2.66.256-1.21-.223-1.423-.022-1.406.812-2.647 2.41-5.41 2.35-2.872.935-.758 1.22 1.336.932 1.573.014-1.424-.248-1.396-.94-3.256-.805-6.346.226-.602.82.096.837-.56.442-1-.872-2.358-.04-.83 1.68-3.315 1.37-1.207.6-.745.344-2.022.714-.765.905-.547 1.184-1.398.643-1.76.393-.134.463-.064.712 1.536.8.624 1.626.5 1.39-.592.387-.77.524-.663.843-.69.71-.787.788-1.825 1.04-1.664.714-.58.862-.367.957-.224.924-.03 2.048 1.046 1.186.204 1.213-.076.766.176.58.47.53.946.655.816.605.402.665.188 4.456-.33 3.894.922 5.3.2 1.822.54 1.748.705 2.14 1.248.783.276.876-.07 1.093-1.173.853-.256.868-.046 3.422.22 9.192 1.444 1.36-.197 5.544-2.76 2.218-2.616 1.986-.73.674-1.182.4-1.42.704-.38 1.664-.406.663-.42 1.18-1.742 1.397-1.545.682-.464 1.967.246.872.676 1.115 2.27-.196.38-1.306 1.13-.38.474-1.446 3.192-1 1.568zM226.72 353.788l1.63 1.844 1.427.984 1.678.535 1.767.05 1.74.232 2.02.705 2.083.32.968-.123.922-.363.655-.025.568.34 1.438 1.564 1.565 1.428.357.728 1.06 3.444 1.2.992 1.647.288 1.936.002 1.923.144 4.46.804 1.77-.11 1.566-.81 1.396.524 3.785.97 1.863.216 2.116-.277 2.124-.058 1 .28.973.42.835.152.865-.008 1.53-.81 1.014-1.482.82-1.868.643-1.945.433-.837.584-.74.764-.48.818-.298 2.223.185.46.47 2.485 3.303.44.286 2.596.207.718-.107 1.584-.663.903-.058 1.67.816.72.695.8.513 4.078.526 1.576 1.414.8.19 2.84-.172 1.96.14 1.708.38.77 2.008.632 2.063.368.7 1.67.708.685.64-.185 2.06.188 1.957 3.542 1.706 3.797.98 4.03.092 4.04-.337 2.082-.418 2.604-.73.54.014 5.045 2.238.43.347.565 1.672-.016 1.767-.943 4.197-.058 1.152.1 1.15 1 2.503.532.723 1.832 1.315.068.7-.25.69-2.015-.473-1.228-.57-.71-.942-1.007-.532-1.896.192-3.546-.944-4.006-1.467-7.102-3.106-1.934.025-1.855.396-1.96.79-2.038.563-1.502.213-1.5-.155-3.79-.747-3.823-.482-9.784-.306-2.77-.704-4.58-.36-3.64-.6-3.605-.853-9.192-4.2-3.008-1.007-9.232-2.003-1.424-.16-3.344.15-2.11-.587-1.86-.013-2.76.65-.85.467-1.07.988-1.88-.048-1.86-.2-4.9-.943-1.828-.58-1.756-.856-1.584-1.116-.824-.402-4.235-1.138-3.456-.392-7.1-.517-1.554-.345-1.295-.414-.7-.922.1-1.172.5-1.013.696-1.018.456-.974-5.198-2.037-4.105-1.114-1.77-.213-1.778.005-2.002.23-1.982-.108-.932-.332-.952-.114-.954.24-.767-.093-.2-.926.5-.786 1.006-.894.57-.158.26 1.398.286.278.9.307.387-.087 1.57-1.788.44-.878.76-2.38.824.46.83-.284.477-.38 1.315-5.502 1.097-1.606 1.498-1.336.747-.325 1.468.817 2.973.312 1.768.54 1.773.07 1.732.267 2.414.967.853-.1.868-.3 1.293-1.05.56-1.684 1.873.855 2.744.34zm36.46-129.23l-1.454 2.11.16.77.354.675 1.052.476.294 2.6 1.322 1.477 1.33 1.35.977.66 1.074.96.756.89.794.752 1.195.733 3.242 3.118 1.355.915 1.01.915.717.323 1.762-.26 5.228-2.236.938-.145 1.702-.388 2.997.118 3.177.762 1.026.023.982-.454 1.356.135 1.268.237.635-.196 1.846-1.632 2.512-.483.8-1.6.627-1.52.297-1.62 1.05-.652 1.47-.564 2.176-.712 7.547-.127.733.312.158.824-.158.628.295.373 1.004.034.932.38 3.762 1.3 1.604.402.89-.1 1.764 1.164.96-.396 1.273-.816 1.21-1.1 1.085-.874 1.58-.337 2.037.047 2.405-.298 1.817-.468 2.027.772.54-.243.35-.755 1.047-1.653.464-1.112.407-2.133.28-.5.77-.293.79-.4.205-.64.29-.743-.238-.625-.45-.525-.474-1.78.156-.812.292-.604.807-.304 2.147-1.31 1.898-1.532 1.04-.752.458-.487.028-.702-.824-.732-.794-.35-.06-.85.03-.586.238-.553-.115-.537-.003-.802.505-.865 1.17-1.28.922-.828 1.022.514 1.197-.238 1.135-.41.627-1.51.096-.724-.152-.57.396-2.15.09-.3.747-1.353.074-.9-.423-2.114.265-1.6.122-3.31.447-.592.508-1.714.83-1.788 1.675-.978.88-1.28.387-.237.573-.01 2.027.934 1.825-1.04 1.645-.12 1.36.142.766.425.758.308 1.62-1.008.62.176.58.345.802-.01.957-.256 2.356.24 4.156.05 2.86.608 2.803 1.714 1.397.346.6.013-.133.134-1.112.465-.52.923 1.52 1.413.107.94 1.18.836 1.442 1.308.057.426.5.586.246.718-1.015.715-1.367.137-1-.675-.933-.84-.238 1.043-.72.596-2.627-.174-1.88.005-1.87.263.936.16.85.332 2.908 2.66.62.985-1.015 1.96.494.8 1.126.46 1.37.975.976.098.703.55.028.956.412.87-1.112.346 1.1.23.977.444-.535.45-.415.546.45.295 1.34.504.586.463.306 1.25 1.307 2.045 2.4 2.638.524.96-.005.885-.4.76-1.367.89-1.096 1.172-.133.424-1.484.543.68.4.54.54 1.03 1.633 2.457 2.65 1.236.988 5.1 3.597 2.705 1.566 3.453 3.584 1.794.828.347.998-1.497 1.53-2.182.765-3.6.413-3.61-.54-1.866-.438-1.626-.88-1.28-1.767-1.693-.956.652 1.07.4 1.095-.21 1.193-.666.935-1.14.685-1.222.557-.515.39-3.1 6.242-.504 1.688-.944 7.008-.014 1.98 1.39 3.704.128 1.942.275.84-.183.696-.658.414-2.662 1.133-1.882.94-1.524 1.338-1.233 1.666-1.083 1.205-1.443.577-1.044-.086-.846-.554-.59-1.07-.335-1.172-.22.866.04.845.494.905.2.955-.284.976-.617.778-1.675.85-.924.728-.155 1.282-.445.722-.64.56-2.357 1.28-.526.512-.4.65 1.257-.1 1.15.1.085 1.274.362.948-.46 2.08-1.772 1.403.884.295.8.458 1.778.34.603 1.475-.262 1.786-.322 1.603-1.276.446-.794-.297-.788.028-.578.487-.155.827 1.104-.407-.062 2.07-.298 2.024-.365 1.116-.676.91-1.02.292-.962-.682-.197.792.294.667 1.374 1.626-.843.357-.614.554-.276.807-1.495 1.85-.66 1.36-.28 1.457-.7 1.153-11.284 5.02-9.13 4.233-.663-.288-.44-.646-.313-6.574-1.13-3.36-.17-1.895-1.287 1.692-.79-.17-.854-.43-.643-.553-.047-.73.7-2.085-.835 1.144-.91.883-.944-.108-.813-.437-.302-.677-.433-.1-1.996 1.857-2.635.996-1.467-.016-1.156-.57.06-1.414-.117-1.383-.324-.8-.707-.29-.652.102-1.892.72-.676-.085-.388.368-5-5.034-1 4.08-3.452 2.173-2.55 1.26-2.528-.473-2.57-.806-2.56.973-2.777 2.385-.767.368-.797-.01-.583-.31.2-1.81.025-1.808-.208-4.03-.22-.792-.796-1.107-1.058-.8-.59.584-.53.8-2.11-.035-2.06-.638-1.753.366-3.474 1.597-1.847.247-.992-.36-.632-.862.362-.787.764-.605-1.426.48-1.217.807-.53.518-.565-.26-1.522-1.823-3.177.682-.43.21-.783.62-.752-.31-.38-.66-.134-3.802-1.615-7.31-.45-3.737-.35-.884-1.862-1.343.063-1.927.965-1.61.205-1.878-.273-2.038-.58-1.992-.73-1.504-1.045-1.286-1.39-1.44-1.708-1.078-3.685-1.212-1.945.107-.72-.475-.486-.616.197-1.21.658-.833.883-.206.104-.47-1.87-.975-1.56-1.325-.49-.795-.148-.875.01-2.022.45-1.277.245-.692.483-2.137 1.017-.652-.166-.395-.437-.3-.638-.7-.52-.806-1.192-1.368-2.106-1.65-.352-2.845-.273-4.194.177-1.906.676-3.565 1.168-1.122.932-.312.696-.48-.573-.07-.496.176-.892.12.73-3.194.33-.923 1.468-1.786 1.72-1.58.728-1.858.976-1.633zm292.7 18.948l1.175.357 1.224-.1.608-.718.17-.93.617-1.732 1.423-1.173.998-.184.707-.494-.123-1.286.07-1.264 1.052-1.35 3.26-1.878 1.862-.67 2.41-.214.272.72-.276 1.028.466 1.55-.23 4.19-.548.594-2.493 1.45-2.725 1.158-.763.487-.673 1.154.055 1.143 2.22 1.525 3.448 1.427.712.67.46 1.12.126 1.255.835.596 1.167.287.774.594.587.837-5.807-1.953-1.52-.862-1.838-.103-1.814-.262-1.852-.75-1.988-.176-.95.543-.373 1.057-.226 1.187.44 1.478-.04.896-.376 1.622 1.437 4.783 1.805 3.805 2.653 3.957 1.3 1.36 1.47 1.227-2.383-.364-.723-1.322-3.024-1.31-.575-.783-1.97-3.755-.576-.7-1.82-1.277-.796-.94-.272-1.27.204-1.332-.098-1.843.066-1.833.376-2.233-.647-.782-.848-.74-.984-1.714-.295-1.947.076-1.12.407-.994.545-.86.118-.838-1.416-1.217-1.486-3.47-.133-1.8 1.888-3.462-.04-1.68.376-1 .207-1.06.987-2.307 1.612-1.967 2.724-2.752 1.04-.6 1.167-.39.103.674-.186.598-2.013 2.8-.268.632-.054 1.178.965.696 1.042 1.42.207 1.89.035 2.014-.23 2.03-.388.677-1.655 2.037-3.76 2.392-.32.59.022.66.696.796zm32.69 59.665l3.714 1.782 1.925.262 3.237-.232 1.22.174 3.085 2.276.9 1.563.26 1.35.475 1.28.76.32.895.12 1.167 1.843.232.596-.887 4.625-3.633-1.753-3.513-2-1.51-.74-4.045-1.683-.62-.577-.453-.76-1.762-1.037-3.516-.16-1.32.027-.538.155.14.558.02 1.134-.873.314-2.18-.716-1.952-.258-1.69-.7-2.266-.372-.25-.352.194-.523-.1-.492-.524-.2-1.017.09-.982.493-.816.56-1.202 1.546-.614.592-1.978.253-.82-.15-.755-.383-2.25-2.823-.76-.61-.846-.498-.786-.23-.807.43-.426.877-.19 1.042-.224.6-.97 1.67-.802.993-.292-.157.412-1.593v-.9l-.497-.95-.31-.97 3.807-4.624 1.377-1.104 6.003-.382 3.568.232 1.944-.113 1.3-.34 1.077.16.268.91.68.674.94-.056 1.7-.715 1.48-1.102.91-.48.92-.08.95.074.93.254zm-46.782 3.57l2.657 1.257.605.82.477.974.523.536.627.438 1.033.852.273 1.288-.237 2.605-1.203.23-1.134.38-2.33 1.507-1.148.296-1.225.1-.87.395-.873.16-2.258-.836-2.192-.982-3.178-1.697-.586-.415-.512-.91-1.457-1.637-.365-1.048-.122-2.982.382-.682.617-.364 2.124.686 1.4-.723 4.023-.61 4.094.063zm-31.348 94.593l-.117 1.448.352.356.59.176 2.056-.98.388.186.398.44.006 1.307-.79 1.088-1.988.083-.28.307-.025.666.156.644.464.517.592.91.56 2.118-1.135.87-.564 1.634-1.96 1.534-2.157 2.517-1.723 1.285-1.514 1.52-1.304 1.02-1.63.346-2.438.22-3.313 1.82-1.835.796-1.784.06-1.667-.592-.636-.666.15-.9.553-.77.677-.636.425-.82-1.89-1.036-.164-.788.75-2.1.486-2.165.704-1.474 2.706-2.634 1.623-1.305.957-.5.26.55.61.668.41.1.308-.15 2.39.23.598-.23.91-1.04.603-.58.41-1.233.1-.785 2.12-.57 1.138-.63 1.007-.893 2.935-1.518zm158.845-52.4l-.128.623-.01 1.15.268 1.064-.692 1.082.646 1.62.096.806-.036 1.14-.185.513-.5 1.5-.49.533-.368.148-.38.453-3.177-.492-1.374-1.04-1.224-1.127-.26-.47-1.44-1.314-.332-.443-.03-.7 1.164-.178 1.243.02-.054-.63.718-2.223-1.9-1.43-.336-.6.677-.408 1.52.5 1.86-2.508.55-.523.26-1.398 1.04-.18.74.18.478.868.19.756-.2.68.894.35zm-3.397 11.876l-.265 1.138-.26 1.272-1.484 1.427-.914 2.186-.537.548-1.985.972-1.765-1.213-.512-1.043.774-4.814.763.16.494-.035.16-.316-1.132-.538-.216-2.765.055-1.043.864-.235 1.07.81 1.352 1.45 1.573 1.14zm64.648 29.66l-3.865 2.135-5.068-.377-1.794-.036-2.978.52-.603-.415.562-2.012 2.383-5.353 2.83-4.71 1.202-1.222 1.674-1.15 1.78-.92 4.015-.954 3.654.176.52.392 1.576 1.57 1.02 1.237.428 1.752-1.554 3.016-1.73 2.87-2.817 2.26zm39.42-91.416v1.146l.03 59.056-.5 1.716-1.123 2.575-.2 2.078.925 1.617.9 1.057v2.705l.018 33.2-.834-.548-2.233-1.81-2.02-2.064-1.3-1.925-1.476-1.753-6.275-5.194-1.596-1.705-.317-.47.15-.44.725-.898 1.287-2.6-1.345 1.606-1.6 1.272-2.327.084-2.286.31-2.116.768-2.15.265-1.075-.377-.647-.956-.336-.98-.153-1.04-.903 1.682-1.775.92-2.42 1.94-.693-.4-.418-.738-.14-.765.467-.818.33-.868.493-2.078 1.085-1.224.7-2.37.45-.845.232-.843-.632-.954-1.066-.326-.73-.58-.846-1.607-.524-.544-.962-.66-.74-.77.816-.58 1.074-.232.88.036 1.595.36.72.02 1.85-.594-1.04.183-1.028-.02-3.287-1.04-2.032-1.076-1.918-2.157-.02-.417 1.352-.392 2.923-.455-.906-1.1-1.323-.96-.46-1.706-.905-1.055-1.95-1.724-1.34-1.785-1.137-3.632-1.165-2.738.284-.993.982-.708-1.484-.082-1.345-.51.71-1.334 1.554-.787-1.415.202-1.385.385-.632.073-.652-.118-.343-.536-.046-.76.202-1.34-.238-1.3-1.227-.607-1.014-.928-.573-.343-.75.027-.73-.62-.584-.9-7.315-3.9-.434-1.112-.677.488-.68.238-.843-.64-.88-.425-.963.07-.89-.345-.932-.197-.973-.03-3.848-1.2-3.64-1.893-2.96-.815-1.83-1.062-1.904-.868-4.253-.845-4.307-.57-1.557-.02-1.306.183-1.254-.04-7.137-4.112-1.205-1.873.117-1.094.317-.907 2.9-.262-2.05-.263-.843.124-1.685.744-.914.052-1.288-.494-1.232-.623-2.018.577-1.033-.946-.354-.997-.54-.456-.76.047-1.02.358-1.02-.064-.657-.682-.472-.893-.7-.64-.845-.49-1.38-1.16-.723-1.584.082-2.74.223-.982 1.366-1.596.968-1.514-1.198-.168-1.083.694-.46.713-.182.864-.123 2.876-.868.833-1.314-.068.4 1.68-.535 1.595-1.52 1.876-.128.853.243.924-.346.91-2.46 2.63-.82.126-1.825-.017-1.885.417-.875-.612-.717-.797-.534-.942-.747-1.945-.598-2.004 1.873-2.456-.646-2.22-1.268-1.904-3.2-2.637-3.32-2.502-1.508-.51-2.472-.223-.778-.242-.77-.94-.568-1.085 1.547-.466 2.648-1.273 1.498.06 4.077.69 1.252.628 1.165.367 2.785-2.104 2.207-2.746 1.375-.596 1.167-.2 1.195.265 2.368.96 1.862.446 1.328.088.693.86.785.386.175-1.295.685-1.5 1.315-.466.695-.107.44-.388-.096-1.39-1.745-.174.95-1.2.853-.58.292-.58.017-.73-3.415 1.4-3.598.585-2.127-.16-2.124-.02-4.238.934-1.61-.038-3.755-.378-2.084-.454-1.606.353-1.547.03-1.62-1.07-1.378-1.34-.684-.95-.913-.69-.404-.93-1.007-3.496-.093-2.495-1.626-.05-1.6-.246-7.077-2.374-.856.582-.996.3-.993.11-.987-.122-.984-.37.082-.654.73-1.605.717-.59.992-.457.63-.852 1.023-2.552.08-.872-.112-.89.084-.67.633-.35 2.67-.83 5.542-1.253 1.4-.75 1.156-1.2 1.352-.73.622-.737.71-.594 4.3-1.584 1.847-.13 1.893.184 3.74.94 3.568 1.517 3.093 2 3.3 1.452 4.058.245 2.048-.16 2.008.207.815.408 1.4 1.238-.4.813-.238 1.678.715 1.616 1.165 1.617.952 1.725.2.842-.362 1.785-.327.883-1.157 1.473-.64 1.6.41 1.985.23 1.996-.043 1.835.208 1.805.633 1.83 2.705 5.014 1.582 3.398.505-1.898-.128-2.1.56-.76.79-.405.98.422.28.854.07 1.865.86 3.662 1.094.168 1.19-.56.194 1.12-.043 2.072.55 1.645.49.644 1.944 1.338.886.248 2.577.322 1.94.102 1.86-.48 1.198-1.23 1.083-1.33 3.742-3.068 1.083-1.467 1.044-2.25.36-.482 3.723-2.43.425-.862.534-1.67.807-1.615.606-.833 3.595-.788 3.734-.428 3.7-1.488 1.6-1.28.076-.84-.813-1.477-.033-.648.857-.623 3.3-1.872 3.816-1.925 3.066-1.327 1.696.01 1.563 1.17 1.667.954 8.712 2.815 1.396.874 1.217 1.16 1.742.805 1.945.39 1.768.752 1.678.97 3.706 1.8 4.975 2.193 1.274.132 4.628-.104.8.413.76.584.706.135 5.302.408.816.422.767.58.436 1.592zm-33.602 93.283l-.802.212-4.063-.492-.437-.67-.06-.344.93-.66.9-1.124 1.39-.418.542.003 1.64 2.66zm-601.24-168.596l.876 1.316.182.853-.638.978-.237 1.5-1.887 1.18-1.648-.28-.534-.42-1.04-2.28.1-1.934.657-.742 1.527.114 1.552-1.06zm11.626 17.484l-.748.488-.898-.76-.74-1.103-.4-1.148-.344-1.876-.1-1.348.448-.79.325.03 1.328.797.878 1.363.485.427.096 1.253-.322 1.43zm1.047-7.535l.122 2.06-1.2-.54-.943-.82-1.498-.605-1.825-.198-1.336-.533-.935-.958-.04-.44.092-.36.294-.28 6.91 1.853zm8.66 11.446l-.303.62-.603-.456-3.156-.692-1.063-.077-2.732-.758-.827-.402-.59-.528.202-.977.404-.587.246-1.637.688-.666 1.358 1.218 1.503 1.047.872.48 2.653 1.07.943.537zm2.245-1.984l-.472.458-.816-.104-.862-.544-1.123-.974-1.255-.87-1.6-.55-.995-.166-.398-.2.384-1.69 1.044-.107 3.384 1.57 1.102.852zm13.88-4.986l1.023.7.837-.46-.033.6-.17.576-1 1.652-1.658-.38-.384-.534-.123-.4.238-.25.136-.8.718.003zm9.063-.57l.092 1.206.924.586.238.885-.163 1.42-.868 1.64-.387.435-1.146-.333-.382-.548-.153-.43.16-.306-.848-.385.546-.627-.374-.882-2.35.55-.68.02-.125-1.004.096-.406 1.805-1.267 1.077-.234 1.16.254zm3.124 22.358l.467.265.576-.833 1.064 1.142.658.57.9.57-.886.027-.357.522-.23.102-3.428-1.84-2.193.593-1.505-.538-.428-.37.808-1.008.737-2.314 1.503.58.368.713-.092.212.982.434zm-4.92 2.55l1.513 1.56.362.558-.747.866-.605 1.223-.343.26-1.156-.47-.82 1.203-.54-1.92-1.175-1.217.73-1.245.265-.09.355.04.37.325zm-11.927.213l-2.105.56-2.345-.406.286-.966 1.13-1.123 1.003.05 1.827.74.652.66zm96.583 13.375l-3.224 1.64-.763-.085-.575-.584.358-3.165.415-.944 2.242-.1 1.372.453.71.514.278 1.057-.158.64zm66.843 95.445l-.306.236-2.744-.133-1.77 1.322-1.224.406-4.402-.002-.524-.18-.4.005-.242.267-1.4-.2-4.473-1.168-.613-1.083.693-1.157 1.606-1.64 3.223-.322 14.67-.112 1.6 1.41.152.473-3.196.966zm216.737-106.453l-1.012.416-1.102-.01-.238-1.713.357-2.172 1.02-.367 1.623.46-.598.55.445 1.162zm5.127-2.833l1.866 2.4-1.252 2.277.867 1.274 2.356.08.543.477.4.574.273.784-.613.627-1.312.577-1.513-.83-.4-.772-.308-.29-2.037.585-.568.056-.395-1.074.49-1.543-1.424-.696-1.303-1.595-.047-.643.524-1.114-.07-.884.745-.068 1.358 1.2.6-1.13.576-.47zm86.648 89.834l-1.314 1.388 1.24-3.273.26-1.657 1.15-.988 1.71-5.014.385.117.556.488-.86 3.676-2.4 2.58zm-1.926-.828l-.984 1.555-.67-.55-.38-.008-.23-.913.227-1.892-.827-2.128 1.094.032.302.635.344.216 1.075 2.052zm-73.266-35.074l-.415.588-.94.388-.786-.04.256-.564-.196-.33-.583.15-.947.453-1.2.908-.706-.45-.15-.704.04-.32 1.434-1.263 1.664-.215 2.348-1.2 1.047.058-.25.768-.366.547-.22.572zM541.07 192.297l-.652.337-1.052-.123-.11-.817 1.06-1.47.703-1.55-.748-.388-.73-.993-.025-1.154.595-2.128.892.172.85.924.35 1.73.556 1.313-1.187 1.788zm-18.73 9.616l-.403.493-1.967-.896.098-1.424-.265-.702-.527-.74-.215-.725.22-.8 1.206 1.01.682 1.598.936 1.522zm84.14 189.3l-1.407.506.94-1.284 3.02-2.913 1.088.54 1.438.1-2.144 1.318-2.193.547zm-16.546-5.91l-.955 1.49-1.072-.094-1.966-2 .11-1.395.166-.453.75-.14 2.547.404.494 1.13zm-32.585 2.34l2.83.653 1.623-.068.33.582-1.547 1.374-3.276-1.057-.56-1.134zM598.25 284.28l.196.952.963.88-.335 1.37-.384.206.207.626.412.477-.747.33-.545-.162-.886.443-.584.617-1.852.26-.65-.57-3.344-.673-2.136-1.478-.27-.443 4.138-1.736 1.813-.457 1.517.028 1.914-.646zm-452.48 60.97l-1.314.077-2.43-1.984-.4-.613.692-.586.726.043 2.803 1.25.545.62zm-31.4-36.98l.647 2.342-1.925-1.598.038-1.133-.265-.735-1.165-.903-.9-1.128-.404-2.68.31-.557.76-.038 3.38 3.518.23.595-.074 1.253-.49.393zm-3.573-7.106l-1.154 1.292-1.904-.027-.373-.802.08-1.938-.464-.636.02-.25.3-1.105.388-.243 3.073 2.724zm-5.837-6.397l.077.428-2.63-1.414-1.263-.39-1.126-1.543.347-.74.047-1.033.167-.408.807-.147 1.04.752.782 1.838 1.31 1.714zm-22.373-29.12l-.963.745-1.456-.723.5-1.027.24-1.423.873-1.13.297-1.325-1.685-3.624.834-.126.662.395 1.115 2.41.966 1.444-.388 1.96zm-32.265-46.43l-1.014.15-.976-.344-.812-.924-4.34-2.67-1.35-.043-.95-.683-1.15-.236-1.222-1.783-.256-.956.89-.466.55-.982 1.448.434 1.65 1.73 1.677.646.456.327.812.958 3.837 2.35.417.797.264.8zM463.89 344.594l-1.025.432-1.944-1.846-.823-1.518.197-.858.58-.753.276-.187-.12-.784.766-.383.842.053.553 1.052.665.3.336 1.008zm18.905-68.654l.355 1.002-.586.868.643 1.633 1.63-2.174 1.555-.276.883.36.606.43.33.825-.572 1.766-1.022.827-1.322.133-.62-1.03-.868-.094-.606 2.245-.273.344-.77.284-.688-.62-.12-.344.97-1.017-.526-3.025-.73.568-1.953 2.744-1.52 1.23-.516-.626-.77-1.865.346-2.396 1.225-1.62 1.042.11 3.005-.508zM439.4 358.486l-.663 2.69-.313-.95-.117-2.46-.407-1.193.26-1.377-.082-3.53.5-1.63.92 2.075.243 1.056zm-83.286 10.872l-1.314.275-1.22-.57.03-.766.297-.71 1.83-.368.982.02 1.047.493.728.512.354.596-1.972.032zm14.976-50.06l-3.395 2.993-.56-.76.294-3.05-.947-1.892.066-1.408.665-2.486.87-1.904 1.972-1.274.49-.15-.123 2.313.395.87.14.743-.212.64.374 2.958.218.715-.475.932zM478.536 433.4l-1.505.006-.48-.173-.125-1.44.44-.805 3.488-1.036 1.364-.956 1.934-2 1.2-.522.305-.225.204.04.194 1.514.482.9.085.468-1.737.77-1.55 1.76-3.388 1.148zm21.628-42.033l-.984 1.004-.67 1.744-.61.53-1.31.328-.783-1.75-1.448.082.707-1.54.684-.575.89-.014.437.623.238.132 2.086-2.61.42-.027.347.113.28.326zm-5.85-.925l-2.278.44-1.39 2.026-1.1-.032-.608.9-.145.385.085.36-.125.343-.44.355-1.04-.56-.887.71-.373.17-1.306-.828-1.24.048-.376-.128 1.535-1.488 2.095-1.386.344-.5-.82-.144-.5-.208-.06-.327 1.326-.217.917-.03.698.426.444-.003 2.836-1.637 1.124.372.818.42zm-9.82 1.336l-.327.712-4.402-.05.123-.937 1.63-1.363 1.352-.298 1.923.545zm-1.214-68.55l-1.582 1.937-1.105-.1-1.317-1.274-.385-1.396-.03-.505.903-.79 3.024.267.567.698zm-61.088 74.822l-.633.154-.636-.235.26-1.446-.368-.984.663-.77.166-1.366.264-.42.388.43.18.28.33.132.725.025.166.588-.028.56-.3.584-.865.63-.627.708zm-29.345-207.946l1.558.033 2.253-.31.535 1.54.08.583-3.008.8-1.806-1.892zm-1.5 201.876l-.368.01-.698-.312.25-.677-.385-1.1.136-.906.898-.5 1.923-.06.068.665zm215.825-122.377l-.412.82-.766.554-6.952.98.592-.587.295-.582.436-.3.7.077.343-.177.346-.07.392.077.674-.242 1.42.174 1.46-.138-.104-.784zM461.302 428.196l-.807.193-1.73-.474-.347-.286 1.48-.788 1.143-1.12 1.334-.096.8.228-.275 1.33z"/></defs><clipPath id="B"><use xlink:href="#A"/></clipPath><path clip-path="url(#B)" d="M30 53.333h740v493.333H30z" fill="#fff"/><path clip-path="url(#B)" d="M30 53.333h740V300H30z" fill="red"/><use xlink:href="#A" fill="none" stroke="#000" stroke-width=".5" stroke-miterlimit="10"/></g></svg>