<?xml version="1.0" standalone="no"?>
<!DOCTYPE svg PUBLIC "-//W3C//DTD SVG 1.1//EN" "http://www.w3.org/Graphics/SVG/1.1/DTD/svg11.dtd" >
<svg>
<metadata>
Created by FontForge 20090914 at Fri Feb 24 10:30:03 2012
 By root
FTF Indonesiana Serif Free ;) &#194;&#169; Fizzetica TypeFoundry. 2009. http://fizzeticatypefoundry.tumblr.com. For Commercial Use please e-mail us: fizzlabz@gmail.com
</metadata>
<defs>
<font id="FTFIndonesianaSerif" horiz-adv-x="1128" >
  <font-face 
    font-family="FTF Indonesiana Serif Free ;)"
    font-weight="400"
    font-stretch="normal"
    units-per-em="2048"
    panose-1="2 0 5 0 0 0 0 0 0 0"
    ascent="1638"
    descent="-410"
    x-height="893"
    cap-height="1420"
    bbox="-160 -398 2705 1478"
    underline-thickness="150"
    underline-position="-142"
    unicode-range="U+0020-U+F002"
  />
<missing-glyph horiz-adv-x="1024" 
 />
    <glyph glyph-name=".notdef" horiz-adv-x="1024" 
 />
    <glyph glyph-name="NULL" horiz-adv-x="0" 
 />
    <glyph glyph-name="nonmarkingreturn" horiz-adv-x="508" 
 />
    <glyph glyph-name="space" unicode=" " horiz-adv-x="508" 
 />
    <glyph glyph-name="space" unicode="&#xa0;" horiz-adv-x="508" 
 />
    <glyph glyph-name="exclam" unicode="!" 
d="M763 1429l292 -662l-456 -212l-62 124q315 146 322 146l-234 540zM576 1328h2l49 -113v-3l-316 -139l60 -144l282 120h2q45 -96 45 -107l-277 -127l120 -271q-130 -65 -137 -65l-284 650q443 199 454 199zM126 722h5l251 -432h4l432 247h5q-69 -286 -73 -290l-439 -249
h-4l-256 434v2z" />
    <glyph glyph-name="quotedbl" unicode="&#x22;" 
d="M763 1429l292 -662l-456 -212l-62 124q315 146 322 146l-234 540zM576 1328h2l49 -113v-3l-316 -139l60 -144l282 120h2q45 -96 45 -107l-277 -127l120 -271q-130 -65 -137 -65l-284 650q443 199 454 199zM126 722h5l251 -432h4l432 247h5q-69 -286 -73 -290l-439 -249
h-4l-256 434v2z" />
    <glyph glyph-name="numbersign" unicode="#" 
d="M763 1429l292 -662l-456 -212l-62 124q315 146 322 146l-234 540zM576 1328h2l49 -113v-3l-316 -139l60 -144l282 120h2q45 -96 45 -107l-277 -127l120 -271q-130 -65 -137 -65l-284 650q443 199 454 199zM126 722h5l251 -432h4l432 247h5q-69 -286 -73 -290l-439 -249
h-4l-256 434v2z" />
    <glyph glyph-name="dollar" unicode="$" 
d="M763 1429l292 -662l-456 -212l-62 124q315 146 322 146l-234 540zM576 1328h2l49 -113v-3l-316 -139l60 -144l282 120h2q45 -96 45 -107l-277 -127l120 -271q-130 -65 -137 -65l-284 650q443 199 454 199zM126 722h5l251 -432h4l432 247h5q-69 -286 -73 -290l-439 -249
h-4l-256 434v2z" />
    <glyph glyph-name="percent" unicode="%" 
d="M763 1429l292 -662l-456 -212l-62 124q315 146 322 146l-234 540zM576 1328h2l49 -113v-3l-316 -139l60 -144l282 120h2q45 -96 45 -107l-277 -127l120 -271q-130 -65 -137 -65l-284 650q443 199 454 199zM126 722h5l251 -432h4l432 247h5q-69 -286 -73 -290l-439 -249
h-4l-256 434v2z" />
    <glyph glyph-name="ampersand" unicode="&#x26;" 
d="M763 1429l292 -662l-456 -212l-62 124q315 146 322 146l-234 540zM576 1328h2l49 -113v-3l-316 -139l60 -144l282 120h2q45 -96 45 -107l-277 -127l120 -271q-130 -65 -137 -65l-284 650q443 199 454 199zM126 722h5l251 -432h4l432 247h5q-69 -286 -73 -290l-439 -249
h-4l-256 434v2z" />
    <glyph glyph-name="quotesingle" unicode="'" horiz-adv-x="346" 
 />
    <glyph glyph-name="asterisk" unicode="*" horiz-adv-x="454" 
d="M174 1127h86l-32 -162l124 113l43 -75l-156 -54l156 -54l-43 -76l-124 114l32 -162h-86l32 162l-124 -114l-43 76l156 54l-156 54l43 75l124 -113z" />
    <glyph glyph-name="plus" unicode="+" horiz-adv-x="915" 
d="M411 571h-381v72h381v381h72v-381h381v-72h-381v-381h-72v381z" />
    <glyph glyph-name="comma" unicode="," horiz-adv-x="226" 
d="M40 -163q98 69 98 165l-37 -12q-27 0 -47 20t-20 47q0 32 21 53t52 21q80 0 80 -86q0 -149 -135 -226z" />
    <glyph glyph-name="hyphen" unicode="-" horiz-adv-x="686" 
d="M81 614h522v-143h-522v143z" />
    <glyph glyph-name="period" unicode="." horiz-adv-x="233" 
d="M157 96q20 -21 20 -51q0 -31 -22 -52q-21 -22 -51 -22q-29 0 -51 22q-21 21 -21 52q0 30 21 51q22 22 51 22q31 0 53 -22z" />
    <glyph glyph-name="slash" unicode="/" horiz-adv-x="696" 
d="M20 -56l581 1265l60 -26l-581 -1265z" />
    <glyph glyph-name="zero" unicode="0" horiz-adv-x="1116" 
d="M538 1193h20q215 0 381 -197q135 -178 135 -400q0 -271 -194 -465q-153 -133 -322 -133h-20q-191 0 -350 162q-164 187 -164 431v10q0 251 173 438q156 154 341 154zM273 602q0 -250 139 -400q67 -59 139 -59q131 0 221 182q56 125 56 280q0 188 -88 334
q-86 124 -189 124q-127 0 -216 -171q-62 -129 -62 -290z" />
    <glyph glyph-name="one" unicode="1" horiz-adv-x="472" 
d="M442 0h-219v1014l-181 -109l-27 36l281 254h146v-1195z" />
    <glyph glyph-name="two" unicode="2" horiz-adv-x="891" 
d="M118 1201h390q157 0 258 -104q84 -103 84 -210q0 -136 -154 -273q-129 -99 -318 -187q-29 -5 -88 -60q-53 -62 -53 -121v-15q0 -101 136 -153q27 -8 47 -8h216l2 -3v-65l-2 -4h-227q-234 0 -358 204q-16 20 -16 142q0 130 172 270q82 57 222 123q95 54 169 118
q48 58 48 113q0 78 -102 113q-34 8 -70 8h-356l-3 4v104z" />
    <glyph glyph-name="three" unicode="3" horiz-adv-x="2703" 
d="M17 1024h262q0 -85 27 -85q36 21 80 27q75 -25 75 -75q-15 -108 -27 -108q6 -10 6 -16h5q18 16 27 16q17 -10 32 -10q0 5 27 27l10 -6h22l11 6q0 6 -33 42q14 11 22 11q118 -58 118 -91q0 -16 5 -16l-5 -11q10 -21 10 -37q-3 -54 -16 -54q-10 28 -10 43q-99 -25 -145 -59
v-5q0 -12 27 -16q7 27 37 27h27q11 -2 11 -11v-11q-2 -10 -97 -59q-75 24 -75 59l-48 54l-10 -6q26 -87 91 -112q27 -19 58 -27q6 0 6 5q40 -10 48 -10q42 3 102 48q10 -5 16 -5v-6q0 -25 -38 -53q27 0 54 -32v-6q-9 -21 -38 -21h-53q-11 -2 -11 -11v-11q56 -55 70 -96
q46 -12 139 -96h11v160q-27 101 -27 214q133 -150 166 -150q193 -36 193 -69q48 -20 139 -220q44 -138 53 -139h1302v985h-1810q9 -40 27 -85q-14 -123 -43 -123h-6l-16 10h-5l-5 -27q10 -80 10 -133l-5 -27h-5v53q0 46 -11 70l5 11q-5 10 -5 16q5 0 5 5h-5q5 10 5 16l-5 11
q0 15 48 32l5 32v27l-10 -5l-32 42q0 14 21 16l27 -16q-7 49 -22 49q-34 -24 -42 -49l5 -10v-22l-5 -27h-17q0 6 -5 17q0 5 5 5l-32 128h1933v-1017h-1472q0 16 -22 27v-6l11 -21h-139l21 21l-10 6h-11q-11 0 -11 -27h-96q0 21 -22 32q-48 0 -48 -32h-59v5h11v6q0 10 -11 10
h-5q-13 0 -16 -21h-75v11h-5v-11h-108v11q13 26 49 53q10 -1 10 -10v-6q0 -4 -32 -32v-5h11q43 25 43 32v5q0 8 -32 32q-10 0 -75 -80h-584v1007q2 10 11 10zM568 1024h54v-10q-40 0 -59 -32v-16l21 -6q28 16 65 16q10 -5 16 -5v-5q-4 -13 -75 -33v-5h37v-11q-2 -13 -69 -32
q-54 4 -54 27l5 37h-26q-13 11 -22 11v6q78 58 107 58zM22 1008v-883h5q69 125 279 268l37 53q0 16 54 113v10q0 52 -64 123q-28 140 -81 193q-16 98 -16 123h-214zM1875 933h11q0 -37 42 -42v-6q-22 -25 -37 -48v-5q37 48 91 48q47 -8 155 -80v21h16q0 -32 22 -32h5
q11 12 11 37h16v-21q-9 -22 -38 -22h-10l-11 6q0 -8 -16 -16h-22q-34 0 -91 64l-21 16v-5q9 0 21 -32q-6 -27 -16 -27l6 27q0 32 -54 42q-37 -12 -37 -21q17 11 32 11l11 -16v-22l-17 11h-26q-8 0 -16 -16q5 -11 5 -16h-5l21 -38q-32 -5 -32 -26h-22q0 21 -32 21v5
q18 32 22 32l-6 11q6 11 6 16l-16 11h-27l-16 -11q0 11 -5 11q9 27 26 27l11 -6h5v6q-9 0 -32 10q-53 -9 -53 -48l5 -21q-8 0 -16 21q0 17 21 43h-5q-75 -80 -107 -80h-21q-8 0 -17 16l-10 -6h-11q-29 0 -37 22v21h16q0 -37 16 -37h10q11 0 11 32h5q11 0 11 -21
q109 72 155 80q49 0 91 -48v5q-14 23 -37 48l32 22q11 17 11 26zM1875 896q0 -12 -6 -22l-10 6h-6q22 -27 22 -38h11q0 14 21 38h-21v16h-11zM1623 794v-11l22 -5q14 0 101 86q-115 -70 -123 -70zM2014 864v-6l96 -80h11q11 5 16 5v11q-9 0 -123 70zM306 837q0 -5 -5 -5
q21 -35 32 -97h26l22 -32q0 13 37 91q6 30 6 43h-6q-53 -11 -53 -16l-27 16q-10 -5 -16 -5q-10 5 -16 5zM1811 837l-6 -11q9 6 27 6v5h-21zM1928 837v-5q18 0 27 -6v6l-11 5h-16zM1784 805h11v-22l-27 -5q-11 0 -11 11q27 0 27 16zM1971 805h6q0 -16 26 -16q0 -11 -10 -11
q-27 0 -32 22zM520 741v-11q78 21 91 21v-5q9 5 27 5v22l-54 16zM1864 778l-5 -21l10 5l6 -21h11l5 21l11 -5v5q-6 10 -6 16h-32zM1446 762h17v-5q-6 0 -17 -6v11zM1720 762l10 -5q0 5 6 5v-11h5v11h11v-27q0 -5 5 -5q-5 -10 -5 -16v-6h5v11h5v-16q0 -23 -10 -43h10
q0 40 16 43v-11h6v11q-6 0 -6 5h6l11 -5v11h5l11 -6v6q16 0 16 -16h5v10q8 0 16 -16q-5 0 -5 -5h5q0 5 5 5l11 -16q0 -5 -5 -5l5 -11v-5q-27 16 -27 37h-5v-5l16 -27v-5l-16 11v-6q8 0 32 -32v-5l-5 -11q5 0 5 -5q-17 0 -53 -27q0 5 -6 5l16 27v22l-10 -6h-6v16h11l16 -10
v10l11 -5v5l-11 6v-6q-8 6 -32 6v10h11q-11 18 -11 32h-5v-10q5 -10 5 -22h-11v22h-5v-22h-6v27h-5q0 -16 -5 -37h-27q-11 -2 -11 -11v-5l16 10q11 -1 11 -10v-6h-5l-11 6q0 -6 -5 -6l16 -32q0 -11 -11 -11q-38 21 -38 27l6 11q-6 0 -6 5q6 0 6 6q-6 0 -6 5q24 13 33 37
q-6 11 -6 16h-5q0 -21 -22 -32v16q0 12 6 22q-6 10 -6 16v21h6v-27h5q0 7 6 54zM2223 762h16v-5q-6 0 -16 -6v11zM1473 757l-5 -11q5 0 5 -5q-10 0 -10 -16h-17l17 21l-11 -5h-6q0 12 27 16zM1495 757h5v-6q-11 0 -11 -10q-10 5 -16 5v5q3 0 22 6zM1703 757h11v-6
q0 -10 -11 -10v16zM2250 757l-6 -11q6 0 6 -5q-11 0 -11 -16h-16l16 21l-11 -5h-5q0 12 27 16zM2271 757h5v-6q-10 0 -10 -10q-11 5 -16 5v5q2 0 21 6zM1505 741v-6q0 -10 -10 -10h-16q0 12 26 16zM2282 741v-6q0 -10 -11 -10h-16q0 12 27 16zM483 671v-11q10 0 10 -5
q96 28 140 59q0 11 -11 11h-27q-108 -45 -112 -54zM1966 714v-6q0 -7 -16 -16h-6q0 9 22 22zM1297 708h5q5 0 5 -5l11 5h16l-5 -10h16v-6h-11l5 -10h-10v-6h10q0 6 6 6q5 -11 5 -16v-6h-5v11h-6v-11h-16q0 11 -16 11l6 11l-11 -6h-5q0 11 21 11v5h-21l5 11q-5 0 -5 5z
M1398 708q0 -12 -27 -16v-10l17 10h10q-6 -53 -21 -53v11h-6q0 -16 -10 -16v5q10 17 10 27q0 9 -10 32zM1404 708q32 0 32 -42l-16 -11q0 5 -6 5q0 -26 -16 -26q0 5 -5 5q0 -5 -5 -5v5q16 27 16 53v16zM1473 708h6q7 0 26 -26h-10q-9 0 -22 21v5zM1489 708h6q10 -1 10 -10
h-5q-11 0 -11 10zM1580 708h6l-6 -10v-22l6 -10q-11 0 -11 -11q-12 0 -16 27h-5v-6q21 -42 58 -42q22 0 33 21h-6q-5 -16 -32 -16q-10 5 -16 5v11l11 -5h21q8 0 16 16v5l-10 -5h-6l-16 10q0 -5 -5 -5q0 5 -6 5q0 -5 -5 -5l-5 11v10q1 11 10 11v-11l11 6q0 -6 5 -6v6
q-5 0 -5 5l11 5h21l-5 -10l11 5q42 -23 42 -64v-11q0 -11 -10 -11v38h-6q0 -24 -26 -38h-6l6 11q-18 -11 -33 -11h-10l-27 6q7 -27 27 -27v-5h-16v-6h16q24 11 27 22q10 -6 16 -6q10 6 16 6l-6 -11h6q1 11 10 11h6q-16 -27 -38 -27v-5h6q17 10 26 10q-5 -10 -5 -16l-11 6v-6
q6 0 6 -5q-8 0 -49 -11q-10 0 -37 11q-10 -5 -16 -5q0 10 -16 10l5 11q-19 0 -32 37h5l11 -5q0 6 5 16h-5v-5q-10 5 -16 5v11l5 11q-5 0 -5 5q11 0 11 16h5q0 -12 16 -32v-5l-16 10v-5q24 -22 27 -22v6q-11 0 -11 11h6l16 -11v5q-38 28 -38 54l16 10q0 -5 6 -5q0 21 26 21z
M1923 703v-5l16 10h5q0 -3 -32 -32q8 -5 32 -5v-5l-37 -6h-27q0 8 16 16h6l-6 -10h6l5 10q-5 0 -5 6q7 0 16 16h-6q-2 -11 -26 -22v6q0 21 37 21zM1977 708h5q-21 -23 -21 -26q5 0 5 -6h-16v6q0 7 27 26zM1987 708h11q13 -10 21 -10v-70l16 11v-5q0 -18 -16 -59h11v21
q11 -2 11 -11q-6 -10 -6 -16q11 -1 11 -10h-11q-13 10 -21 10l-21 -10q0 5 -6 5l11 21h-5q0 -5 -6 -5v5l6 11h-6q-16 -37 -53 -37h-16q-49 8 -49 42q17 43 54 43l11 -16v-11l-11 -16h5l11 16l-5 27q10 -1 10 -10v-22l-16 -21h11q0 -11 -11 -11h-5l-27 5v6q3 0 22 5v5
q-12 0 -22 6v-16h-5v10h-5v-10l21 -16h32q25 12 38 37v5h-6q0 -21 -16 -21q0 5 -5 5q0 -5 -6 -5l6 27v21l27 6v-27h5q5 53 5 80v5zM2057 708h21q-11 -32 -21 -32v6l5 10h-5q0 -5 -5 -5v5q5 11 5 16zM2089 708q0 -5 5 -5q0 5 6 5q0 -5 5 -5q0 5 5 5v-10q0 -15 -10 -32h5
l16 10v-5l-5 -11q12 0 16 -37h5l11 48l11 -5h5v5q-11 17 -11 27l16 10h22l10 -5q0 5 6 5l5 -10v-6l-5 -10q5 0 5 -6h-5q-12 0 -16 27h-6v-11h-5v11h-5v-5q5 -11 5 -16v-6h-5l-6 22h-5v-6l21 -37h-5q-9 5 -21 5l-11 -16v-5l11 -16v-6q0 -10 -11 -10v5l5 11h-10v-16h-27
q-11 0 -11 10v6l16 -11v11h-11l6 27v5l-27 5q0 -5 -5 -5q0 5 -6 5q0 -10 -10 -10v5l21 37v6h-5v-11h-6v16zM2250 708h5q7 0 27 -26h-11q-8 0 -21 21v5zM2266 708h5q11 -1 11 -10h-6q-10 0 -10 10zM2293 708h5q5 0 5 -5l11 5h16l-5 -10h16v-6h-11l5 -10h-10v-6h10q0 6 6 6
q5 -11 5 -16v-6h-5v11h-6v-11h-16q0 11 -16 11l6 11l-11 -6h-5q0 11 21 11v5h-21l5 11q-5 0 -5 5zM2394 708q0 -12 -27 -16v-10l17 10h10q-6 -53 -21 -53v11h-6q0 -16 -10 -16v5q10 17 10 27q0 9 -10 32zM2400 708q32 0 32 -42l-16 -11q0 5 -6 5q0 -26 -16 -26q0 5 -5 5
q0 -5 -5 -5v5q16 27 16 53v16zM1446 703h6q0 -11 21 -32h-5q-22 11 -22 27v5zM2223 703h5q0 -11 22 -32h-6q-21 11 -21 27v5zM1420 692v-26h5v26h-5zM1977 698h5v-22l-11 6q6 10 6 16zM2094 692q0 -9 -10 -26h5l11 21v5h-6zM2416 692v-26h5v26h-5zM1939 692h5q0 -10 -10 -10
h-6q2 10 11 10zM1350 687q11 0 11 -16v-5h-6zM2346 687q11 0 11 -16v-5h-6zM1446 682q28 -22 33 -22v6q-6 0 -6 5h6l10 -5v5q-10 0 -10 11h5q21 -8 21 -16h-10v-6h10v-5h-10v-5h10v-11q-44 -8 -59 -22v6q6 29 6 43q-6 10 -6 16zM2223 682q27 -22 32 -22v6q-5 0 -5 5h5l11 -5
v5q-11 0 -11 11h5q22 -8 22 -16h-11v-6h11v-5h-11v-5h11v-11q-44 -8 -59 -22v6q5 29 5 43q-5 10 -5 16zM1966 676h5q11 -1 11 -10v-6h-11q0 6 -5 16zM2073 676v-5q0 -11 -11 -11v6q2 10 11 10zM2180 676q11 -1 11 -10v-6q-11 0 -11 11v5zM1725 671v-5q0 -11 -11 -11v5
q2 11 11 11zM2185 655q11 0 11 -16v-5h-5zM2078 650v-16q-10 0 -10 10zM2094 650h6q10 -2 10 -11q-5 0 -5 -5l-11 5h-5v-5l5 -27q-5 0 -16 21q8 22 16 22zM2159 650h10q11 -2 11 -11q-6 0 -16 -5l-5 10v6zM2180 639h5v-22l-10 -5v5q5 10 5 22zM1361 634q0 -6 -22 -17
q-10 6 -16 6v5q17 0 38 6zM1891 628l-5 -11q9 6 21 6v5h-16zM2357 634q0 -6 -22 -17q-10 6 -16 6v5q17 0 38 6zM1500 628h5v-5q-28 -6 -32 -6h-5v6q28 5 32 5zM2276 628h6v-5q-4 0 -32 -6h-6v6q4 0 32 5zM1377 623l-6 -11q6 0 6 -5q-10 -6 -22 -6v-5h11q11 5 16 5h6v-5h-11
v-5q6 0 16 -6v6q-5 0 -5 5l10 5h6l-6 -10h6q1 10 10 10h6l-6 -10v-6l6 -26h-6q-102 12 -107 26h-5v6l27 5v5h-16l5 11q-5 0 -5 5l26 -5zM2373 623l-6 -11q6 0 6 -5q-10 -6 -22 -6v-5h11q11 5 16 5h6v-5h-11v-5q6 0 16 -6v6q-5 0 -5 5l10 5h6l-6 -10h6q1 10 10 10h6l-6 -10
v-6l6 -26h-6q-102 12 -107 26h-5v6l27 5v5h-16l5 11q-5 0 -5 5l26 -5zM1505 617v-10h-10v-6h10v-5h-5l-21 5l-33 -16v6q24 26 59 26zM2282 617v-10h-11v-6h11v-5h-6l-21 5l-32 -16v6q24 26 59 26zM2175 612v-5q0 -11 -11 -11v5q2 11 11 11zM1297 607h5q11 -2 11 -11h-6
q-10 0 -10 11zM1687 607v-6q0 -10 -10 -10v5q1 11 10 11zM2084 607q10 -2 10 -11v-5q-10 0 -10 10v6zM2293 607h5q11 -2 11 -11h-6q-10 0 -10 11zM1436 601h5v-16q-10 6 -16 6q2 10 11 10zM1703 601q11 -5 17 -5v-5h-11v-6q6 0 16 -5v5q-5 0 -5 6h5q11 -2 11 -11q-6 0 -6 -5
l11 -6v6q-5 0 -5 5h5q8 0 21 -21h-5q-5 0 -5 5l-11 -5l-16 10v-5q5 0 5 -5h-27v10q0 6 6 6l-6 10v16zM1864 601q0 -5 -5 -5l5 -11v-26h-32l5 10h-5q0 -10 -11 -10l-10 5q0 -5 -6 -5v5q0 8 22 21h5l-11 -16h6q0 12 26 16v6h-10v5q2 0 21 5zM2432 601h5v-16q-10 6 -16 6
q2 10 11 10zM1473 596h11q10 -5 16 -5v-6q-11 0 -11 -10q-10 5 -16 5v5h11v6h-11v5zM2105 596q8 0 16 -16h-5q-11 0 -11 11v5zM2250 596h10q11 -5 16 -5v-6q-10 0 -10 -10q-11 5 -16 5v5h10v6h-10v5zM1420 591h5v-22h-5v22zM2416 591h5v-22h-5v22zM1329 580v-5h37v5h-37z
M1457 585h6q0 -7 -17 -16v6q2 10 11 10zM2153 585q0 -8 -21 -21l-11 16zM2234 585h5q0 -7 -16 -16v6q2 10 11 10zM2325 580v-5h37v5h-37zM1468 580h5q0 -8 -21 -21h-6q0 8 22 21zM2244 580h6q0 -8 -22 -21h-5q0 8 21 21zM1505 575v-6q0 -10 -10 -10h-16q0 12 26 16z
M2282 575v-6q0 -10 -11 -10h-16q0 12 27 16zM1297 569l32 -5v-5h-27zM2293 569l32 -5v-5h-27zM1339 564h27v-5h-27v5zM2335 564h27v-5h-27v5zM1607 542v-21h-11v-11h11v-16h-11v-26l-5 -11q5 0 5 -6q-5 0 -5 -5q5 0 5 -5h-32v43l-10 16v10q8 0 26 32h27zM1950 537h27v-96
h-49l-10 -6q-22 19 -22 38t22 43l26 -6q11 0 11 11h-11v5h11zM2143 537h26q0 -6 6 -16l-11 -5h-5l5 10h-5q-11 -5 -16 -5v16zM1264 532h6q5 0 5 -6l11 6h5v-22h38q12 0 16 -37h5l5 37h6q5 0 5 -5l32 11q0 -9 22 -22h5v6h-11q0 8 22 16v-11l10 5h11q0 -5 6 -16q-6 0 -6 -5h11
q21 27 53 27q23 -8 33 -27v-21h-54v-6q11 0 11 -5l10 5h33q-5 -16 -38 -27q-43 7 -43 38h-5q0 -22 -16 -22l5 -10l-11 -6h-16v6h11v5q-35 -5 -53 -16v11q0 4 5 32q-5 10 -5 16q5 0 5 5q-5 0 -5 6q5 0 5 5h-11q-20 -91 -43 -91v-5h-5l-11 5q0 -5 -5 -5l-5 10v16h16v16
q-15 43 -27 43q-5 0 -5 11h-6v-43h16v-5l-5 -11q5 0 5 -5q-5 0 -16 -6q-23 6 -32 33l5 10l-5 11l11 5q0 -5 5 -5v5q-5 0 -5 6l-11 -6h-11l6 11q-6 0 -6 5q16 0 16 16v6zM1650 516q8 -6 32 -6v-32h16q0 24 27 38h11q19 0 42 -22q18 15 43 22v-6l11 6q32 -22 32 -48h-53l5 -11
l27 5h16v-11q-8 0 -32 -16q-30 6 -49 22h-5q0 -11 -21 -22l-49 11l6 11q-11 0 -11 16h-11l6 -27v-5h-6q-5 0 -5 5l-11 -5h-5q-5 0 -5 5l-11 -5h-27q-4 0 -16 16q0 27 54 27q0 8 -22 16v-6q6 0 6 -5h-33v5q0 12 38 22zM2025 516v-6l10 6q33 -22 33 -48h-54l5 -11l27 5h16v-11
q-7 0 -32 -16q-33 0 -48 27v27q16 27 43 27zM2094 516v-6l11 6q32 -6 32 -16v-6h-10l-27 6l-6 -11q32 0 49 -16l5 11l-5 26h32v-26h5q2 26 16 26v-5l11 5h11q5 0 5 -5l11 5h21v-26h5v26h11q12 0 22 -5q9 5 21 5q0 -5 5 -5v5q11 -5 16 -5v-32l-5 -27q5 0 5 -5h-21
q-11 0 -11 10v6q0 5 6 5q-6 9 -6 27h-5q-11 -2 -11 -11v-37h-27v37h-5q0 -64 -27 -64q-5 0 -16 -5q-17 10 -27 10v11q12 0 22 5q10 -5 16 -5l11 16l-27 -5q-14 0 -32 21l-11 -16h5q0 5 6 5v-10h-11q-5 0 -5 5l-11 -5h-5v16q-11 -6 -16 -6l5 -10q-6 0 -16 -6q-48 6 -48 27h16
l26 -5v11q-34 0 -42 21q0 14 26 27zM2384 516v-6l10 6q27 -12 27 -43h5v37h27v-10h6q0 16 16 16q5 -11 5 -16l-21 -27v-32h-33v27h-53l5 -11l27 5h16v-11q-7 0 -32 -16q-33 0 -48 27v27q16 27 43 27zM1725 468l11 -6l32 6l10 -6v27l-10 -5h-16q-11 0 -11 16q-16 -6 -16 -32z
M1500 484h5v5l11 -5h5q0 10 -10 10q-11 -1 -11 -10zM1805 484h6v5l10 -5h11q0 10 -11 10h-5q-11 -1 -11 -10zM2009 484h5v5l11 -5h10q0 10 -10 10h-6q-10 -1 -10 -10zM2367 484h6v5l11 -5h10q0 10 -10 10h-6q-11 -1 -11 -10zM1880 441q9 -27 38 -27v-5q-15 -33 -22 -33
q0 -37 32 -37h11l16 11l6 -11v-11q0 -12 -27 -16l-22 11v-5q38 -16 43 -16q29 0 54 42q-7 27 -16 27h-16v-16h-16v11q0 7 16 16q37 0 37 -38v-10q-21 -24 -21 -27q8 0 75 64q19 16 37 16h11q91 -15 91 -37v-16h-16q0 37 -32 37q-7 -32 -16 -32h-6q0 21 -5 21q-10 -5 -16 -5
q0 11 16 11v10q-6 0 -16 6q-16 0 -97 -80h6q80 53 91 53q-91 -75 -145 -75q-43 0 -85 54v-6q9 -25 42 -53q-42 -15 -42 -43l-11 -5q-15 42 -43 42l-5 11q18 3 42 48v6h-5q0 -36 -86 -54q-37 0 -155 80q-5 0 -5 -5v-16h-6q-10 0 -10 11v5l5 11l-21 5q-22 -3 -22 -37h-16v16
q0 22 91 37h11q29 0 102 -75l10 -5v5q-8 0 -21 22v10q0 38 37 38q8 0 17 -16v-11h-17v16h-16q-10 -2 -10 -11v-26q6 -19 48 -32q32 7 32 16q-10 -6 -16 -6q-21 8 -21 16v11q1 11 10 11q2 -11 11 -11h11q32 0 32 37q-7 0 -22 33v5q22 0 43 27zM1420 435v-16h-11l-11 6
q0 -11 -10 -11v5q5 16 32 16zM1875 419q-6 -9 -6 -21h-5l-11 5q6 -9 6 -21h37q0 12 6 21l-11 -5h-5q0 21 -11 21zM1109 387q30 0 70 -102h5v22q0 5 -5 5q5 11 5 16q-4 28 -59 70h-5q-11 -2 -11 -11zM1623 376v-10l113 -64v5q-9 0 -81 69q-5 0 -16 6q-10 -6 -16 -6zM1077 371
q-9 -55 -27 -75v-21q0 -11 107 -113q0 -21 32 -26q19 0 27 53q-11 24 -16 59h-11q0 -16 -5 -16q-26 13 -48 70q-45 68 -59 69zM1869 344v-5h6v11h5v-11h6v16h-6q-11 -2 -11 -11zM1811 328v-5h21v5h-21zM1923 328v-5h21v5h-21zM1875 323q0 -14 -27 -43h11l10 5l6 -26h5l6 26
l10 -5h11q-27 29 -27 43h-5zM1002 194v-5q3 -16 37 -16v-16q-32 -3 -32 -16v-22l11 -16l27 22q8 0 32 -27q12 0 16 27h5q24 -22 27 -22l11 6q10 -6 16 -6v16q0 8 -102 97q-48 -11 -48 -22zM1136 71q3 -32 16 -32h5q0 22 11 22l21 -22v11q0 8 -21 27q-8 -6 -32 -6zM1222 77
l-6 -11q11 -13 11 -22h11q10 0 10 11q-2 11 -26 22zM1088 66v-5q1 -11 10 -11h6v5q0 11 -11 11h-5zM1013 44v-10h10q8 0 16 16l-5 11q-21 -8 -21 -17zM916 23q32 -5 32 -16h-53q0 13 21 16z" />
    <glyph glyph-name="four" unicode="4" horiz-adv-x="2703" 
d="M17 1024h262q0 -85 27 -85q36 21 80 27q75 -25 75 -75q-15 -108 -27 -108q6 -10 6 -16h5q18 16 27 16q17 -10 32 -10q0 5 27 27l10 -6h22l11 6q0 6 -33 42q14 11 22 11q118 -58 118 -91q0 -16 5 -16l-5 -11q10 -21 10 -37q-3 -54 -16 -54q-10 28 -10 43q-99 -25 -145 -59
v-5q0 -12 27 -16q7 27 37 27h27q11 -2 11 -11v-11q-2 -10 -97 -59q-75 24 -75 59l-48 54l-10 -6q26 -87 91 -112q27 -19 58 -27q6 0 6 5q40 -10 48 -10q42 3 102 48q10 -5 16 -5v-6q0 -25 -38 -53q27 0 54 -32v-6q-9 -21 -38 -21h-53q-11 -2 -11 -11v-11q56 -55 70 -96
q46 -12 139 -96h11v160q-27 101 -27 214q133 -150 166 -150q193 -36 193 -69q48 -20 139 -220q44 -138 53 -139h1302v985h-1810q9 -40 27 -85q-14 -123 -43 -123h-6l-16 10h-5l-5 -27q10 -80 10 -133l-5 -27h-5v53q0 46 -11 70l5 11q-5 10 -5 16q5 0 5 5h-5q5 10 5 16l-5 11
q0 15 48 32l5 32v27l-10 -5l-32 42q0 14 21 16l27 -16q-7 49 -22 49q-34 -24 -42 -49l5 -10v-22l-5 -27h-17q0 6 -5 17q0 5 5 5l-32 128h1933v-1017h-1472q0 16 -22 27v-6l11 -21h-139l21 21l-10 6h-11q-11 0 -11 -27h-96q0 21 -22 32q-48 0 -48 -32h-59v5h11v6q0 10 -11 10
h-5q-13 0 -16 -21h-75v11h-5v-11h-108v11q13 26 49 53q10 -1 10 -10v-6q0 -4 -32 -32v-5h11q43 25 43 32v5q0 8 -32 32q-10 0 -75 -80h-584v1007q2 10 11 10zM568 1024h54v-10q-40 0 -59 -32v-16l21 -6q28 16 65 16q10 -5 16 -5v-5q-4 -13 -75 -33v-5h37v-11q-2 -13 -69 -32
q-54 4 -54 27l5 37h-26q-13 11 -22 11v6q78 58 107 58zM22 1008v-883h5q69 125 279 268l37 53q0 16 54 113v10q0 52 -64 123q-28 140 -81 193q-16 98 -16 123h-214zM1875 933h11q0 -37 42 -42v-6q-22 -25 -37 -48v-5q37 48 91 48q47 -8 155 -80v21h16q0 -32 22 -32h5
q11 12 11 37h16v-21q-9 -22 -38 -22h-10l-11 6q0 -8 -16 -16h-22q-34 0 -91 64l-21 16v-5q9 0 21 -32q-6 -27 -16 -27l6 27q0 32 -54 42q-37 -12 -37 -21q17 11 32 11l11 -16v-22l-17 11h-26q-8 0 -16 -16q5 -11 5 -16h-5l21 -38q-32 -5 -32 -26h-22q0 21 -32 21v5
q18 32 22 32l-6 11q6 11 6 16l-16 11h-27l-16 -11q0 11 -5 11q9 27 26 27l11 -6h5v6q-9 0 -32 10q-53 -9 -53 -48l5 -21q-8 0 -16 21q0 17 21 43h-5q-75 -80 -107 -80h-21q-8 0 -17 16l-10 -6h-11q-29 0 -37 22v21h16q0 -37 16 -37h10q11 0 11 32h5q11 0 11 -21
q109 72 155 80q49 0 91 -48v5q-14 23 -37 48l32 22q11 17 11 26zM1875 896q0 -12 -6 -22l-10 6h-6q22 -27 22 -38h11q0 14 21 38h-21v16h-11zM1623 794v-11l22 -5q14 0 101 86q-115 -70 -123 -70zM2014 864v-6l96 -80h11q11 5 16 5v11q-9 0 -123 70zM306 837q0 -5 -5 -5
q21 -35 32 -97h26l22 -32q0 13 37 91q6 30 6 43h-6q-53 -11 -53 -16l-27 16q-10 -5 -16 -5q-10 5 -16 5zM1811 837l-6 -11q9 6 27 6v5h-21zM1928 837v-5q18 0 27 -6v6l-11 5h-16zM1784 805h11v-22l-27 -5q-11 0 -11 11q27 0 27 16zM1971 805h6q0 -16 26 -16q0 -11 -10 -11
q-27 0 -32 22zM520 741v-11q78 21 91 21v-5q9 5 27 5v22l-54 16zM1864 778l-5 -21l10 5l6 -21h11l5 21l11 -5v5q-6 10 -6 16h-32zM1446 762h17v-5q-6 0 -17 -6v11zM1720 762l10 -5q0 5 6 5v-11h5v11h11v-27q0 -5 5 -5q-5 -10 -5 -16v-6h5v11h5v-16q0 -23 -10 -43h10
q0 40 16 43v-11h6v11q-6 0 -6 5h6l11 -5v11h5l11 -6v6q16 0 16 -16h5v10q8 0 16 -16q-5 0 -5 -5h5q0 5 5 5l11 -16q0 -5 -5 -5l5 -11v-5q-27 16 -27 37h-5v-5l16 -27v-5l-16 11v-6q8 0 32 -32v-5l-5 -11q5 0 5 -5q-17 0 -53 -27q0 5 -6 5l16 27v22l-10 -6h-6v16h11l16 -10
v10l11 -5v5l-11 6v-6q-8 6 -32 6v10h11q-11 18 -11 32h-5v-10q5 -10 5 -22h-11v22h-5v-22h-6v27h-5q0 -16 -5 -37h-27q-11 -2 -11 -11v-5l16 10q11 -1 11 -10v-6h-5l-11 6q0 -6 -5 -6l16 -32q0 -11 -11 -11q-38 21 -38 27l6 11q-6 0 -6 5q6 0 6 6q-6 0 -6 5q24 13 33 37
q-6 11 -6 16h-5q0 -21 -22 -32v16q0 12 6 22q-6 10 -6 16v21h6v-27h5q0 7 6 54zM2223 762h16v-5q-6 0 -16 -6v11zM1473 757l-5 -11q5 0 5 -5q-10 0 -10 -16h-17l17 21l-11 -5h-6q0 12 27 16zM1495 757h5v-6q-11 0 -11 -10q-10 5 -16 5v5q3 0 22 6zM1703 757h11v-6
q0 -10 -11 -10v16zM2250 757l-6 -11q6 0 6 -5q-11 0 -11 -16h-16l16 21l-11 -5h-5q0 12 27 16zM2271 757h5v-6q-10 0 -10 -10q-11 5 -16 5v5q2 0 21 6zM1505 741v-6q0 -10 -10 -10h-16q0 12 26 16zM2282 741v-6q0 -10 -11 -10h-16q0 12 27 16zM483 671v-11q10 0 10 -5
q96 28 140 59q0 11 -11 11h-27q-108 -45 -112 -54zM1966 714v-6q0 -7 -16 -16h-6q0 9 22 22zM1297 708h5q5 0 5 -5l11 5h16l-5 -10h16v-6h-11l5 -10h-10v-6h10q0 6 6 6q5 -11 5 -16v-6h-5v11h-6v-11h-16q0 11 -16 11l6 11l-11 -6h-5q0 11 21 11v5h-21l5 11q-5 0 -5 5z
M1398 708q0 -12 -27 -16v-10l17 10h10q-6 -53 -21 -53v11h-6q0 -16 -10 -16v5q10 17 10 27q0 9 -10 32zM1404 708q32 0 32 -42l-16 -11q0 5 -6 5q0 -26 -16 -26q0 5 -5 5q0 -5 -5 -5v5q16 27 16 53v16zM1473 708h6q7 0 26 -26h-10q-9 0 -22 21v5zM1489 708h6q10 -1 10 -10
h-5q-11 0 -11 10zM1580 708h6l-6 -10v-22l6 -10q-11 0 -11 -11q-12 0 -16 27h-5v-6q21 -42 58 -42q22 0 33 21h-6q-5 -16 -32 -16q-10 5 -16 5v11l11 -5h21q8 0 16 16v5l-10 -5h-6l-16 10q0 -5 -5 -5q0 5 -6 5q0 -5 -5 -5l-5 11v10q1 11 10 11v-11l11 6q0 -6 5 -6v6
q-5 0 -5 5l11 5h21l-5 -10l11 5q42 -23 42 -64v-11q0 -11 -10 -11v38h-6q0 -24 -26 -38h-6l6 11q-18 -11 -33 -11h-10l-27 6q7 -27 27 -27v-5h-16v-6h16q24 11 27 22q10 -6 16 -6q10 6 16 6l-6 -11h6q1 11 10 11h6q-16 -27 -38 -27v-5h6q17 10 26 10q-5 -10 -5 -16l-11 6v-6
q6 0 6 -5q-8 0 -49 -11q-10 0 -37 11q-10 -5 -16 -5q0 10 -16 10l5 11q-19 0 -32 37h5l11 -5q0 6 5 16h-5v-5q-10 5 -16 5v11l5 11q-5 0 -5 5q11 0 11 16h5q0 -12 16 -32v-5l-16 10v-5q24 -22 27 -22v6q-11 0 -11 11h6l16 -11v5q-38 28 -38 54l16 10q0 -5 6 -5q0 21 26 21z
M1923 703v-5l16 10h5q0 -3 -32 -32q8 -5 32 -5v-5l-37 -6h-27q0 8 16 16h6l-6 -10h6l5 10q-5 0 -5 6q7 0 16 16h-6q-2 -11 -26 -22v6q0 21 37 21zM1977 708h5q-21 -23 -21 -26q5 0 5 -6h-16v6q0 7 27 26zM1987 708h11q13 -10 21 -10v-70l16 11v-5q0 -18 -16 -59h11v21
q11 -2 11 -11q-6 -10 -6 -16q11 -1 11 -10h-11q-13 10 -21 10l-21 -10q0 5 -6 5l11 21h-5q0 -5 -6 -5v5l6 11h-6q-16 -37 -53 -37h-16q-49 8 -49 42q17 43 54 43l11 -16v-11l-11 -16h5l11 16l-5 27q10 -1 10 -10v-22l-16 -21h11q0 -11 -11 -11h-5l-27 5v6q3 0 22 5v5
q-12 0 -22 6v-16h-5v10h-5v-10l21 -16h32q25 12 38 37v5h-6q0 -21 -16 -21q0 5 -5 5q0 -5 -6 -5l6 27v21l27 6v-27h5q5 53 5 80v5zM2057 708h21q-11 -32 -21 -32v6l5 10h-5q0 -5 -5 -5v5q5 11 5 16zM2089 708q0 -5 5 -5q0 5 6 5q0 -5 5 -5q0 5 5 5v-10q0 -15 -10 -32h5
l16 10v-5l-5 -11q12 0 16 -37h5l11 48l11 -5h5v5q-11 17 -11 27l16 10h22l10 -5q0 5 6 5l5 -10v-6l-5 -10q5 0 5 -6h-5q-12 0 -16 27h-6v-11h-5v11h-5v-5q5 -11 5 -16v-6h-5l-6 22h-5v-6l21 -37h-5q-9 5 -21 5l-11 -16v-5l11 -16v-6q0 -10 -11 -10v5l5 11h-10v-16h-27
q-11 0 -11 10v6l16 -11v11h-11l6 27v5l-27 5q0 -5 -5 -5q0 5 -6 5q0 -10 -10 -10v5l21 37v6h-5v-11h-6v16zM2250 708h5q7 0 27 -26h-11q-8 0 -21 21v5zM2266 708h5q11 -1 11 -10h-6q-10 0 -10 10zM2293 708h5q5 0 5 -5l11 5h16l-5 -10h16v-6h-11l5 -10h-10v-6h10q0 6 6 6
q5 -11 5 -16v-6h-5v11h-6v-11h-16q0 11 -16 11l6 11l-11 -6h-5q0 11 21 11v5h-21l5 11q-5 0 -5 5zM2394 708q0 -12 -27 -16v-10l17 10h10q-6 -53 -21 -53v11h-6q0 -16 -10 -16v5q10 17 10 27q0 9 -10 32zM2400 708q32 0 32 -42l-16 -11q0 5 -6 5q0 -26 -16 -26q0 5 -5 5
q0 -5 -5 -5v5q16 27 16 53v16zM1446 703h6q0 -11 21 -32h-5q-22 11 -22 27v5zM2223 703h5q0 -11 22 -32h-6q-21 11 -21 27v5zM1420 692v-26h5v26h-5zM1977 698h5v-22l-11 6q6 10 6 16zM2094 692q0 -9 -10 -26h5l11 21v5h-6zM2416 692v-26h5v26h-5zM1939 692h5q0 -10 -10 -10
h-6q2 10 11 10zM1350 687q11 0 11 -16v-5h-6zM2346 687q11 0 11 -16v-5h-6zM1446 682q28 -22 33 -22v6q-6 0 -6 5h6l10 -5v5q-10 0 -10 11h5q21 -8 21 -16h-10v-6h10v-5h-10v-5h10v-11q-44 -8 -59 -22v6q6 29 6 43q-6 10 -6 16zM2223 682q27 -22 32 -22v6q-5 0 -5 5h5l11 -5
v5q-11 0 -11 11h5q22 -8 22 -16h-11v-6h11v-5h-11v-5h11v-11q-44 -8 -59 -22v6q5 29 5 43q-5 10 -5 16zM1966 676h5q11 -1 11 -10v-6h-11q0 6 -5 16zM2073 676v-5q0 -11 -11 -11v6q2 10 11 10zM2180 676q11 -1 11 -10v-6q-11 0 -11 11v5zM1725 671v-5q0 -11 -11 -11v5
q2 11 11 11zM2185 655q11 0 11 -16v-5h-5zM2078 650v-16q-10 0 -10 10zM2094 650h6q10 -2 10 -11q-5 0 -5 -5l-11 5h-5v-5l5 -27q-5 0 -16 21q8 22 16 22zM2159 650h10q11 -2 11 -11q-6 0 -16 -5l-5 10v6zM2180 639h5v-22l-10 -5v5q5 10 5 22zM1361 634q0 -6 -22 -17
q-10 6 -16 6v5q17 0 38 6zM1891 628l-5 -11q9 6 21 6v5h-16zM2357 634q0 -6 -22 -17q-10 6 -16 6v5q17 0 38 6zM1500 628h5v-5q-28 -6 -32 -6h-5v6q28 5 32 5zM2276 628h6v-5q-4 0 -32 -6h-6v6q4 0 32 5zM1377 623l-6 -11q6 0 6 -5q-10 -6 -22 -6v-5h11q11 5 16 5h6v-5h-11
v-5q6 0 16 -6v6q-5 0 -5 5l10 5h6l-6 -10h6q1 10 10 10h6l-6 -10v-6l6 -26h-6q-102 12 -107 26h-5v6l27 5v5h-16l5 11q-5 0 -5 5l26 -5zM2373 623l-6 -11q6 0 6 -5q-10 -6 -22 -6v-5h11q11 5 16 5h6v-5h-11v-5q6 0 16 -6v6q-5 0 -5 5l10 5h6l-6 -10h6q1 10 10 10h6l-6 -10
v-6l6 -26h-6q-102 12 -107 26h-5v6l27 5v5h-16l5 11q-5 0 -5 5l26 -5zM1505 617v-10h-10v-6h10v-5h-5l-21 5l-33 -16v6q24 26 59 26zM2282 617v-10h-11v-6h11v-5h-6l-21 5l-32 -16v6q24 26 59 26zM2175 612v-5q0 -11 -11 -11v5q2 11 11 11zM1297 607h5q11 -2 11 -11h-6
q-10 0 -10 11zM1687 607v-6q0 -10 -10 -10v5q1 11 10 11zM2084 607q10 -2 10 -11v-5q-10 0 -10 10v6zM2293 607h5q11 -2 11 -11h-6q-10 0 -10 11zM1436 601h5v-16q-10 6 -16 6q2 10 11 10zM1703 601q11 -5 17 -5v-5h-11v-6q6 0 16 -5v5q-5 0 -5 6h5q11 -2 11 -11q-6 0 -6 -5
l11 -6v6q-5 0 -5 5h5q8 0 21 -21h-5q-5 0 -5 5l-11 -5l-16 10v-5q5 0 5 -5h-27v10q0 6 6 6l-6 10v16zM1864 601q0 -5 -5 -5l5 -11v-26h-32l5 10h-5q0 -10 -11 -10l-10 5q0 -5 -6 -5v5q0 8 22 21h5l-11 -16h6q0 12 26 16v6h-10v5q2 0 21 5zM2432 601h5v-16q-10 6 -16 6
q2 10 11 10zM1473 596h11q10 -5 16 -5v-6q-11 0 -11 -10q-10 5 -16 5v5h11v6h-11v5zM2105 596q8 0 16 -16h-5q-11 0 -11 11v5zM2250 596h10q11 -5 16 -5v-6q-10 0 -10 -10q-11 5 -16 5v5h10v6h-10v5zM1420 591h5v-22h-5v22zM2416 591h5v-22h-5v22zM1329 580v-5h37v5h-37z
M1457 585h6q0 -7 -17 -16v6q2 10 11 10zM2153 585q0 -8 -21 -21l-11 16zM2234 585h5q0 -7 -16 -16v6q2 10 11 10zM2325 580v-5h37v5h-37zM1468 580h5q0 -8 -21 -21h-6q0 8 22 21zM2244 580h6q0 -8 -22 -21h-5q0 8 21 21zM1505 575v-6q0 -10 -10 -10h-16q0 12 26 16z
M2282 575v-6q0 -10 -11 -10h-16q0 12 27 16zM1297 569l32 -5v-5h-27zM2293 569l32 -5v-5h-27zM1339 564h27v-5h-27v5zM2335 564h27v-5h-27v5zM1607 542v-21h-11v-11h11v-16h-11v-26l-5 -11q5 0 5 -6q-5 0 -5 -5q5 0 5 -5h-32v43l-10 16v10q8 0 26 32h27zM1950 537h27v-96
h-49l-10 -6q-22 19 -22 38t22 43l26 -6q11 0 11 11h-11v5h11zM2143 537h26q0 -6 6 -16l-11 -5h-5l5 10h-5q-11 -5 -16 -5v16zM1264 532h6q5 0 5 -6l11 6h5v-22h38q12 0 16 -37h5l5 37h6q5 0 5 -5l32 11q0 -9 22 -22h5v6h-11q0 8 22 16v-11l10 5h11q0 -5 6 -16q-6 0 -6 -5h11
q21 27 53 27q23 -8 33 -27v-21h-54v-6q11 0 11 -5l10 5h33q-5 -16 -38 -27q-43 7 -43 38h-5q0 -22 -16 -22l5 -10l-11 -6h-16v6h11v5q-35 -5 -53 -16v11q0 4 5 32q-5 10 -5 16q5 0 5 5q-5 0 -5 6q5 0 5 5h-11q-20 -91 -43 -91v-5h-5l-11 5q0 -5 -5 -5l-5 10v16h16v16
q-15 43 -27 43q-5 0 -5 11h-6v-43h16v-5l-5 -11q5 0 5 -5q-5 0 -16 -6q-23 6 -32 33l5 10l-5 11l11 5q0 -5 5 -5v5q-5 0 -5 6l-11 -6h-11l6 11q-6 0 -6 5q16 0 16 16v6zM1650 516q8 -6 32 -6v-32h16q0 24 27 38h11q19 0 42 -22q18 15 43 22v-6l11 6q32 -22 32 -48h-53l5 -11
l27 5h16v-11q-8 0 -32 -16q-30 6 -49 22h-5q0 -11 -21 -22l-49 11l6 11q-11 0 -11 16h-11l6 -27v-5h-6q-5 0 -5 5l-11 -5h-5q-5 0 -5 5l-11 -5h-27q-4 0 -16 16q0 27 54 27q0 8 -22 16v-6q6 0 6 -5h-33v5q0 12 38 22zM2025 516v-6l10 6q33 -22 33 -48h-54l5 -11l27 5h16v-11
q-7 0 -32 -16q-33 0 -48 27v27q16 27 43 27zM2094 516v-6l11 6q32 -6 32 -16v-6h-10l-27 6l-6 -11q32 0 49 -16l5 11l-5 26h32v-26h5q2 26 16 26v-5l11 5h11q5 0 5 -5l11 5h21v-26h5v26h11q12 0 22 -5q9 5 21 5q0 -5 5 -5v5q11 -5 16 -5v-32l-5 -27q5 0 5 -5h-21
q-11 0 -11 10v6q0 5 6 5q-6 9 -6 27h-5q-11 -2 -11 -11v-37h-27v37h-5q0 -64 -27 -64q-5 0 -16 -5q-17 10 -27 10v11q12 0 22 5q10 -5 16 -5l11 16l-27 -5q-14 0 -32 21l-11 -16h5q0 5 6 5v-10h-11q-5 0 -5 5l-11 -5h-5v16q-11 -6 -16 -6l5 -10q-6 0 -16 -6q-48 6 -48 27h16
l26 -5v11q-34 0 -42 21q0 14 26 27zM2384 516v-6l10 6q27 -12 27 -43h5v37h27v-10h6q0 16 16 16q5 -11 5 -16l-21 -27v-32h-33v27h-53l5 -11l27 5h16v-11q-7 0 -32 -16q-33 0 -48 27v27q16 27 43 27zM1725 468l11 -6l32 6l10 -6v27l-10 -5h-16q-11 0 -11 16q-16 -6 -16 -32z
M1500 484h5v5l11 -5h5q0 10 -10 10q-11 -1 -11 -10zM1805 484h6v5l10 -5h11q0 10 -11 10h-5q-11 -1 -11 -10zM2009 484h5v5l11 -5h10q0 10 -10 10h-6q-10 -1 -10 -10zM2367 484h6v5l11 -5h10q0 10 -10 10h-6q-11 -1 -11 -10zM1880 441q9 -27 38 -27v-5q-15 -33 -22 -33
q0 -37 32 -37h11l16 11l6 -11v-11q0 -12 -27 -16l-22 11v-5q38 -16 43 -16q29 0 54 42q-7 27 -16 27h-16v-16h-16v11q0 7 16 16q37 0 37 -38v-10q-21 -24 -21 -27q8 0 75 64q19 16 37 16h11q91 -15 91 -37v-16h-16q0 37 -32 37q-7 -32 -16 -32h-6q0 21 -5 21q-10 -5 -16 -5
q0 11 16 11v10q-6 0 -16 6q-16 0 -97 -80h6q80 53 91 53q-91 -75 -145 -75q-43 0 -85 54v-6q9 -25 42 -53q-42 -15 -42 -43l-11 -5q-15 42 -43 42l-5 11q18 3 42 48v6h-5q0 -36 -86 -54q-37 0 -155 80q-5 0 -5 -5v-16h-6q-10 0 -10 11v5l5 11l-21 5q-22 -3 -22 -37h-16v16
q0 22 91 37h11q29 0 102 -75l10 -5v5q-8 0 -21 22v10q0 38 37 38q8 0 17 -16v-11h-17v16h-16q-10 -2 -10 -11v-26q6 -19 48 -32q32 7 32 16q-10 -6 -16 -6q-21 8 -21 16v11q1 11 10 11q2 -11 11 -11h11q32 0 32 37q-7 0 -22 33v5q22 0 43 27zM1420 435v-16h-11l-11 6
q0 -11 -10 -11v5q5 16 32 16zM1875 419q-6 -9 -6 -21h-5l-11 5q6 -9 6 -21h37q0 12 6 21l-11 -5h-5q0 21 -11 21zM1109 387q30 0 70 -102h5v22q0 5 -5 5q5 11 5 16q-4 28 -59 70h-5q-11 -2 -11 -11zM1623 376v-10l113 -64v5q-9 0 -81 69q-5 0 -16 6q-10 -6 -16 -6zM1077 371
q-9 -55 -27 -75v-21q0 -11 107 -113q0 -21 32 -26q19 0 27 53q-11 24 -16 59h-11q0 -16 -5 -16q-26 13 -48 70q-45 68 -59 69zM1869 344v-5h6v11h5v-11h6v16h-6q-11 -2 -11 -11zM1811 328v-5h21v5h-21zM1923 328v-5h21v5h-21zM1875 323q0 -14 -27 -43h11l10 5l6 -26h5l6 26
l10 -5h11q-27 29 -27 43h-5zM1002 194v-5q3 -16 37 -16v-16q-32 -3 -32 -16v-22l11 -16l27 22q8 0 32 -27q12 0 16 27h5q24 -22 27 -22l11 6q10 -6 16 -6v16q0 8 -102 97q-48 -11 -48 -22zM1136 71q3 -32 16 -32h5q0 22 11 22l21 -22v11q0 8 -21 27q-8 -6 -32 -6zM1222 77
l-6 -11q11 -13 11 -22h11q10 0 10 11q-2 11 -26 22zM1088 66v-5q1 -11 10 -11h6v5q0 11 -11 11h-5zM1013 44v-10h10q8 0 16 16l-5 11q-21 -8 -21 -17zM916 23q32 -5 32 -16h-53q0 13 21 16z" />
    <glyph glyph-name="five" unicode="5" horiz-adv-x="2703" 
d="M17 1024h262q0 -85 27 -85q36 21 80 27q75 -25 75 -75q-15 -108 -27 -108q6 -10 6 -16h5q18 16 27 16q17 -10 32 -10q0 5 27 27l10 -6h22l11 6q0 6 -33 42q14 11 22 11q118 -58 118 -91q0 -16 5 -16l-5 -11q10 -21 10 -37q-3 -54 -16 -54q-10 28 -10 43q-99 -25 -145 -59
v-5q0 -12 27 -16q7 27 37 27h27q11 -2 11 -11v-11q-2 -10 -97 -59q-75 24 -75 59l-48 54l-10 -6q26 -87 91 -112q27 -19 58 -27q6 0 6 5q40 -10 48 -10q42 3 102 48q10 -5 16 -5v-6q0 -25 -38 -53q27 0 54 -32v-6q-9 -21 -38 -21h-53q-11 -2 -11 -11v-11q56 -55 70 -96
q46 -12 139 -96h11v160q-27 101 -27 214q133 -150 166 -150q193 -36 193 -69q48 -20 139 -220q44 -138 53 -139h1302v985h-1810q9 -40 27 -85q-14 -123 -43 -123h-6l-16 10h-5l-5 -27q10 -80 10 -133l-5 -27h-5v53q0 46 -11 70l5 11q-5 10 -5 16q5 0 5 5h-5q5 10 5 16l-5 11
q0 15 48 32l5 32v27l-10 -5l-32 42q0 14 21 16l27 -16q-7 49 -22 49q-34 -24 -42 -49l5 -10v-22l-5 -27h-17q0 6 -5 17q0 5 5 5l-32 128h1933v-1017h-1472q0 16 -22 27v-6l11 -21h-139l21 21l-10 6h-11q-11 0 -11 -27h-96q0 21 -22 32q-48 0 -48 -32h-59v5h11v6q0 10 -11 10
h-5q-13 0 -16 -21h-75v11h-5v-11h-108v11q13 26 49 53q10 -1 10 -10v-6q0 -4 -32 -32v-5h11q43 25 43 32v5q0 8 -32 32q-10 0 -75 -80h-584v1007q2 10 11 10zM568 1024h54v-10q-40 0 -59 -32v-16l21 -6q28 16 65 16q10 -5 16 -5v-5q-4 -13 -75 -33v-5h37v-11q-2 -13 -69 -32
q-54 4 -54 27l5 37h-26q-13 11 -22 11v6q78 58 107 58zM22 1008v-883h5q69 125 279 268l37 53q0 16 54 113v10q0 52 -64 123q-28 140 -81 193q-16 98 -16 123h-214zM1875 933h11q0 -37 42 -42v-6q-22 -25 -37 -48v-5q37 48 91 48q47 -8 155 -80v21h16q0 -32 22 -32h5
q11 12 11 37h16v-21q-9 -22 -38 -22h-10l-11 6q0 -8 -16 -16h-22q-34 0 -91 64l-21 16v-5q9 0 21 -32q-6 -27 -16 -27l6 27q0 32 -54 42q-37 -12 -37 -21q17 11 32 11l11 -16v-22l-17 11h-26q-8 0 -16 -16q5 -11 5 -16h-5l21 -38q-32 -5 -32 -26h-22q0 21 -32 21v5
q18 32 22 32l-6 11q6 11 6 16l-16 11h-27l-16 -11q0 11 -5 11q9 27 26 27l11 -6h5v6q-9 0 -32 10q-53 -9 -53 -48l5 -21q-8 0 -16 21q0 17 21 43h-5q-75 -80 -107 -80h-21q-8 0 -17 16l-10 -6h-11q-29 0 -37 22v21h16q0 -37 16 -37h10q11 0 11 32h5q11 0 11 -21
q109 72 155 80q49 0 91 -48v5q-14 23 -37 48l32 22q11 17 11 26zM1875 896q0 -12 -6 -22l-10 6h-6q22 -27 22 -38h11q0 14 21 38h-21v16h-11zM1623 794v-11l22 -5q14 0 101 86q-115 -70 -123 -70zM2014 864v-6l96 -80h11q11 5 16 5v11q-9 0 -123 70zM306 837q0 -5 -5 -5
q21 -35 32 -97h26l22 -32q0 13 37 91q6 30 6 43h-6q-53 -11 -53 -16l-27 16q-10 -5 -16 -5q-10 5 -16 5zM1811 837l-6 -11q9 6 27 6v5h-21zM1928 837v-5q18 0 27 -6v6l-11 5h-16zM1784 805h11v-22l-27 -5q-11 0 -11 11q27 0 27 16zM1971 805h6q0 -16 26 -16q0 -11 -10 -11
q-27 0 -32 22zM520 741v-11q78 21 91 21v-5q9 5 27 5v22l-54 16zM1864 778l-5 -21l10 5l6 -21h11l5 21l11 -5v5q-6 10 -6 16h-32zM1446 762h17v-5q-6 0 -17 -6v11zM1720 762l10 -5q0 5 6 5v-11h5v11h11v-27q0 -5 5 -5q-5 -10 -5 -16v-6h5v11h5v-16q0 -23 -10 -43h10
q0 40 16 43v-11h6v11q-6 0 -6 5h6l11 -5v11h5l11 -6v6q16 0 16 -16h5v10q8 0 16 -16q-5 0 -5 -5h5q0 5 5 5l11 -16q0 -5 -5 -5l5 -11v-5q-27 16 -27 37h-5v-5l16 -27v-5l-16 11v-6q8 0 32 -32v-5l-5 -11q5 0 5 -5q-17 0 -53 -27q0 5 -6 5l16 27v22l-10 -6h-6v16h11l16 -10
v10l11 -5v5l-11 6v-6q-8 6 -32 6v10h11q-11 18 -11 32h-5v-10q5 -10 5 -22h-11v22h-5v-22h-6v27h-5q0 -16 -5 -37h-27q-11 -2 -11 -11v-5l16 10q11 -1 11 -10v-6h-5l-11 6q0 -6 -5 -6l16 -32q0 -11 -11 -11q-38 21 -38 27l6 11q-6 0 -6 5q6 0 6 6q-6 0 -6 5q24 13 33 37
q-6 11 -6 16h-5q0 -21 -22 -32v16q0 12 6 22q-6 10 -6 16v21h6v-27h5q0 7 6 54zM2223 762h16v-5q-6 0 -16 -6v11zM1473 757l-5 -11q5 0 5 -5q-10 0 -10 -16h-17l17 21l-11 -5h-6q0 12 27 16zM1495 757h5v-6q-11 0 -11 -10q-10 5 -16 5v5q3 0 22 6zM1703 757h11v-6
q0 -10 -11 -10v16zM2250 757l-6 -11q6 0 6 -5q-11 0 -11 -16h-16l16 21l-11 -5h-5q0 12 27 16zM2271 757h5v-6q-10 0 -10 -10q-11 5 -16 5v5q2 0 21 6zM1505 741v-6q0 -10 -10 -10h-16q0 12 26 16zM2282 741v-6q0 -10 -11 -10h-16q0 12 27 16zM483 671v-11q10 0 10 -5
q96 28 140 59q0 11 -11 11h-27q-108 -45 -112 -54zM1966 714v-6q0 -7 -16 -16h-6q0 9 22 22zM1297 708h5q5 0 5 -5l11 5h16l-5 -10h16v-6h-11l5 -10h-10v-6h10q0 6 6 6q5 -11 5 -16v-6h-5v11h-6v-11h-16q0 11 -16 11l6 11l-11 -6h-5q0 11 21 11v5h-21l5 11q-5 0 -5 5z
M1398 708q0 -12 -27 -16v-10l17 10h10q-6 -53 -21 -53v11h-6q0 -16 -10 -16v5q10 17 10 27q0 9 -10 32zM1404 708q32 0 32 -42l-16 -11q0 5 -6 5q0 -26 -16 -26q0 5 -5 5q0 -5 -5 -5v5q16 27 16 53v16zM1473 708h6q7 0 26 -26h-10q-9 0 -22 21v5zM1489 708h6q10 -1 10 -10
h-5q-11 0 -11 10zM1580 708h6l-6 -10v-22l6 -10q-11 0 -11 -11q-12 0 -16 27h-5v-6q21 -42 58 -42q22 0 33 21h-6q-5 -16 -32 -16q-10 5 -16 5v11l11 -5h21q8 0 16 16v5l-10 -5h-6l-16 10q0 -5 -5 -5q0 5 -6 5q0 -5 -5 -5l-5 11v10q1 11 10 11v-11l11 6q0 -6 5 -6v6
q-5 0 -5 5l11 5h21l-5 -10l11 5q42 -23 42 -64v-11q0 -11 -10 -11v38h-6q0 -24 -26 -38h-6l6 11q-18 -11 -33 -11h-10l-27 6q7 -27 27 -27v-5h-16v-6h16q24 11 27 22q10 -6 16 -6q10 6 16 6l-6 -11h6q1 11 10 11h6q-16 -27 -38 -27v-5h6q17 10 26 10q-5 -10 -5 -16l-11 6v-6
q6 0 6 -5q-8 0 -49 -11q-10 0 -37 11q-10 -5 -16 -5q0 10 -16 10l5 11q-19 0 -32 37h5l11 -5q0 6 5 16h-5v-5q-10 5 -16 5v11l5 11q-5 0 -5 5q11 0 11 16h5q0 -12 16 -32v-5l-16 10v-5q24 -22 27 -22v6q-11 0 -11 11h6l16 -11v5q-38 28 -38 54l16 10q0 -5 6 -5q0 21 26 21z
M1923 703v-5l16 10h5q0 -3 -32 -32q8 -5 32 -5v-5l-37 -6h-27q0 8 16 16h6l-6 -10h6l5 10q-5 0 -5 6q7 0 16 16h-6q-2 -11 -26 -22v6q0 21 37 21zM1977 708h5q-21 -23 -21 -26q5 0 5 -6h-16v6q0 7 27 26zM1987 708h11q13 -10 21 -10v-70l16 11v-5q0 -18 -16 -59h11v21
q11 -2 11 -11q-6 -10 -6 -16q11 -1 11 -10h-11q-13 10 -21 10l-21 -10q0 5 -6 5l11 21h-5q0 -5 -6 -5v5l6 11h-6q-16 -37 -53 -37h-16q-49 8 -49 42q17 43 54 43l11 -16v-11l-11 -16h5l11 16l-5 27q10 -1 10 -10v-22l-16 -21h11q0 -11 -11 -11h-5l-27 5v6q3 0 22 5v5
q-12 0 -22 6v-16h-5v10h-5v-10l21 -16h32q25 12 38 37v5h-6q0 -21 -16 -21q0 5 -5 5q0 -5 -6 -5l6 27v21l27 6v-27h5q5 53 5 80v5zM2057 708h21q-11 -32 -21 -32v6l5 10h-5q0 -5 -5 -5v5q5 11 5 16zM2089 708q0 -5 5 -5q0 5 6 5q0 -5 5 -5q0 5 5 5v-10q0 -15 -10 -32h5
l16 10v-5l-5 -11q12 0 16 -37h5l11 48l11 -5h5v5q-11 17 -11 27l16 10h22l10 -5q0 5 6 5l5 -10v-6l-5 -10q5 0 5 -6h-5q-12 0 -16 27h-6v-11h-5v11h-5v-5q5 -11 5 -16v-6h-5l-6 22h-5v-6l21 -37h-5q-9 5 -21 5l-11 -16v-5l11 -16v-6q0 -10 -11 -10v5l5 11h-10v-16h-27
q-11 0 -11 10v6l16 -11v11h-11l6 27v5l-27 5q0 -5 -5 -5q0 5 -6 5q0 -10 -10 -10v5l21 37v6h-5v-11h-6v16zM2250 708h5q7 0 27 -26h-11q-8 0 -21 21v5zM2266 708h5q11 -1 11 -10h-6q-10 0 -10 10zM2293 708h5q5 0 5 -5l11 5h16l-5 -10h16v-6h-11l5 -10h-10v-6h10q0 6 6 6
q5 -11 5 -16v-6h-5v11h-6v-11h-16q0 11 -16 11l6 11l-11 -6h-5q0 11 21 11v5h-21l5 11q-5 0 -5 5zM2394 708q0 -12 -27 -16v-10l17 10h10q-6 -53 -21 -53v11h-6q0 -16 -10 -16v5q10 17 10 27q0 9 -10 32zM2400 708q32 0 32 -42l-16 -11q0 5 -6 5q0 -26 -16 -26q0 5 -5 5
q0 -5 -5 -5v5q16 27 16 53v16zM1446 703h6q0 -11 21 -32h-5q-22 11 -22 27v5zM2223 703h5q0 -11 22 -32h-6q-21 11 -21 27v5zM1420 692v-26h5v26h-5zM1977 698h5v-22l-11 6q6 10 6 16zM2094 692q0 -9 -10 -26h5l11 21v5h-6zM2416 692v-26h5v26h-5zM1939 692h5q0 -10 -10 -10
h-6q2 10 11 10zM1350 687q11 0 11 -16v-5h-6zM2346 687q11 0 11 -16v-5h-6zM1446 682q28 -22 33 -22v6q-6 0 -6 5h6l10 -5v5q-10 0 -10 11h5q21 -8 21 -16h-10v-6h10v-5h-10v-5h10v-11q-44 -8 -59 -22v6q6 29 6 43q-6 10 -6 16zM2223 682q27 -22 32 -22v6q-5 0 -5 5h5l11 -5
v5q-11 0 -11 11h5q22 -8 22 -16h-11v-6h11v-5h-11v-5h11v-11q-44 -8 -59 -22v6q5 29 5 43q-5 10 -5 16zM1966 676h5q11 -1 11 -10v-6h-11q0 6 -5 16zM2073 676v-5q0 -11 -11 -11v6q2 10 11 10zM2180 676q11 -1 11 -10v-6q-11 0 -11 11v5zM1725 671v-5q0 -11 -11 -11v5
q2 11 11 11zM2185 655q11 0 11 -16v-5h-5zM2078 650v-16q-10 0 -10 10zM2094 650h6q10 -2 10 -11q-5 0 -5 -5l-11 5h-5v-5l5 -27q-5 0 -16 21q8 22 16 22zM2159 650h10q11 -2 11 -11q-6 0 -16 -5l-5 10v6zM2180 639h5v-22l-10 -5v5q5 10 5 22zM1361 634q0 -6 -22 -17
q-10 6 -16 6v5q17 0 38 6zM1891 628l-5 -11q9 6 21 6v5h-16zM2357 634q0 -6 -22 -17q-10 6 -16 6v5q17 0 38 6zM1500 628h5v-5q-28 -6 -32 -6h-5v6q28 5 32 5zM2276 628h6v-5q-4 0 -32 -6h-6v6q4 0 32 5zM1377 623l-6 -11q6 0 6 -5q-10 -6 -22 -6v-5h11q11 5 16 5h6v-5h-11
v-5q6 0 16 -6v6q-5 0 -5 5l10 5h6l-6 -10h6q1 10 10 10h6l-6 -10v-6l6 -26h-6q-102 12 -107 26h-5v6l27 5v5h-16l5 11q-5 0 -5 5l26 -5zM2373 623l-6 -11q6 0 6 -5q-10 -6 -22 -6v-5h11q11 5 16 5h6v-5h-11v-5q6 0 16 -6v6q-5 0 -5 5l10 5h6l-6 -10h6q1 10 10 10h6l-6 -10
v-6l6 -26h-6q-102 12 -107 26h-5v6l27 5v5h-16l5 11q-5 0 -5 5l26 -5zM1505 617v-10h-10v-6h10v-5h-5l-21 5l-33 -16v6q24 26 59 26zM2282 617v-10h-11v-6h11v-5h-6l-21 5l-32 -16v6q24 26 59 26zM2175 612v-5q0 -11 -11 -11v5q2 11 11 11zM1297 607h5q11 -2 11 -11h-6
q-10 0 -10 11zM1687 607v-6q0 -10 -10 -10v5q1 11 10 11zM2084 607q10 -2 10 -11v-5q-10 0 -10 10v6zM2293 607h5q11 -2 11 -11h-6q-10 0 -10 11zM1436 601h5v-16q-10 6 -16 6q2 10 11 10zM1703 601q11 -5 17 -5v-5h-11v-6q6 0 16 -5v5q-5 0 -5 6h5q11 -2 11 -11q-6 0 -6 -5
l11 -6v6q-5 0 -5 5h5q8 0 21 -21h-5q-5 0 -5 5l-11 -5l-16 10v-5q5 0 5 -5h-27v10q0 6 6 6l-6 10v16zM1864 601q0 -5 -5 -5l5 -11v-26h-32l5 10h-5q0 -10 -11 -10l-10 5q0 -5 -6 -5v5q0 8 22 21h5l-11 -16h6q0 12 26 16v6h-10v5q2 0 21 5zM2432 601h5v-16q-10 6 -16 6
q2 10 11 10zM1473 596h11q10 -5 16 -5v-6q-11 0 -11 -10q-10 5 -16 5v5h11v6h-11v5zM2105 596q8 0 16 -16h-5q-11 0 -11 11v5zM2250 596h10q11 -5 16 -5v-6q-10 0 -10 -10q-11 5 -16 5v5h10v6h-10v5zM1420 591h5v-22h-5v22zM2416 591h5v-22h-5v22zM1329 580v-5h37v5h-37z
M1457 585h6q0 -7 -17 -16v6q2 10 11 10zM2153 585q0 -8 -21 -21l-11 16zM2234 585h5q0 -7 -16 -16v6q2 10 11 10zM2325 580v-5h37v5h-37zM1468 580h5q0 -8 -21 -21h-6q0 8 22 21zM2244 580h6q0 -8 -22 -21h-5q0 8 21 21zM1505 575v-6q0 -10 -10 -10h-16q0 12 26 16z
M2282 575v-6q0 -10 -11 -10h-16q0 12 27 16zM1297 569l32 -5v-5h-27zM2293 569l32 -5v-5h-27zM1339 564h27v-5h-27v5zM2335 564h27v-5h-27v5zM1607 542v-21h-11v-11h11v-16h-11v-26l-5 -11q5 0 5 -6q-5 0 -5 -5q5 0 5 -5h-32v43l-10 16v10q8 0 26 32h27zM1950 537h27v-96
h-49l-10 -6q-22 19 -22 38t22 43l26 -6q11 0 11 11h-11v5h11zM2143 537h26q0 -6 6 -16l-11 -5h-5l5 10h-5q-11 -5 -16 -5v16zM1264 532h6q5 0 5 -6l11 6h5v-22h38q12 0 16 -37h5l5 37h6q5 0 5 -5l32 11q0 -9 22 -22h5v6h-11q0 8 22 16v-11l10 5h11q0 -5 6 -16q-6 0 -6 -5h11
q21 27 53 27q23 -8 33 -27v-21h-54v-6q11 0 11 -5l10 5h33q-5 -16 -38 -27q-43 7 -43 38h-5q0 -22 -16 -22l5 -10l-11 -6h-16v6h11v5q-35 -5 -53 -16v11q0 4 5 32q-5 10 -5 16q5 0 5 5q-5 0 -5 6q5 0 5 5h-11q-20 -91 -43 -91v-5h-5l-11 5q0 -5 -5 -5l-5 10v16h16v16
q-15 43 -27 43q-5 0 -5 11h-6v-43h16v-5l-5 -11q5 0 5 -5q-5 0 -16 -6q-23 6 -32 33l5 10l-5 11l11 5q0 -5 5 -5v5q-5 0 -5 6l-11 -6h-11l6 11q-6 0 -6 5q16 0 16 16v6zM1650 516q8 -6 32 -6v-32h16q0 24 27 38h11q19 0 42 -22q18 15 43 22v-6l11 6q32 -22 32 -48h-53l5 -11
l27 5h16v-11q-8 0 -32 -16q-30 6 -49 22h-5q0 -11 -21 -22l-49 11l6 11q-11 0 -11 16h-11l6 -27v-5h-6q-5 0 -5 5l-11 -5h-5q-5 0 -5 5l-11 -5h-27q-4 0 -16 16q0 27 54 27q0 8 -22 16v-6q6 0 6 -5h-33v5q0 12 38 22zM2025 516v-6l10 6q33 -22 33 -48h-54l5 -11l27 5h16v-11
q-7 0 -32 -16q-33 0 -48 27v27q16 27 43 27zM2094 516v-6l11 6q32 -6 32 -16v-6h-10l-27 6l-6 -11q32 0 49 -16l5 11l-5 26h32v-26h5q2 26 16 26v-5l11 5h11q5 0 5 -5l11 5h21v-26h5v26h11q12 0 22 -5q9 5 21 5q0 -5 5 -5v5q11 -5 16 -5v-32l-5 -27q5 0 5 -5h-21
q-11 0 -11 10v6q0 5 6 5q-6 9 -6 27h-5q-11 -2 -11 -11v-37h-27v37h-5q0 -64 -27 -64q-5 0 -16 -5q-17 10 -27 10v11q12 0 22 5q10 -5 16 -5l11 16l-27 -5q-14 0 -32 21l-11 -16h5q0 5 6 5v-10h-11q-5 0 -5 5l-11 -5h-5v16q-11 -6 -16 -6l5 -10q-6 0 -16 -6q-48 6 -48 27h16
l26 -5v11q-34 0 -42 21q0 14 26 27zM2384 516v-6l10 6q27 -12 27 -43h5v37h27v-10h6q0 16 16 16q5 -11 5 -16l-21 -27v-32h-33v27h-53l5 -11l27 5h16v-11q-7 0 -32 -16q-33 0 -48 27v27q16 27 43 27zM1725 468l11 -6l32 6l10 -6v27l-10 -5h-16q-11 0 -11 16q-16 -6 -16 -32z
M1500 484h5v5l11 -5h5q0 10 -10 10q-11 -1 -11 -10zM1805 484h6v5l10 -5h11q0 10 -11 10h-5q-11 -1 -11 -10zM2009 484h5v5l11 -5h10q0 10 -10 10h-6q-10 -1 -10 -10zM2367 484h6v5l11 -5h10q0 10 -10 10h-6q-11 -1 -11 -10zM1880 441q9 -27 38 -27v-5q-15 -33 -22 -33
q0 -37 32 -37h11l16 11l6 -11v-11q0 -12 -27 -16l-22 11v-5q38 -16 43 -16q29 0 54 42q-7 27 -16 27h-16v-16h-16v11q0 7 16 16q37 0 37 -38v-10q-21 -24 -21 -27q8 0 75 64q19 16 37 16h11q91 -15 91 -37v-16h-16q0 37 -32 37q-7 -32 -16 -32h-6q0 21 -5 21q-10 -5 -16 -5
q0 11 16 11v10q-6 0 -16 6q-16 0 -97 -80h6q80 53 91 53q-91 -75 -145 -75q-43 0 -85 54v-6q9 -25 42 -53q-42 -15 -42 -43l-11 -5q-15 42 -43 42l-5 11q18 3 42 48v6h-5q0 -36 -86 -54q-37 0 -155 80q-5 0 -5 -5v-16h-6q-10 0 -10 11v5l5 11l-21 5q-22 -3 -22 -37h-16v16
q0 22 91 37h11q29 0 102 -75l10 -5v5q-8 0 -21 22v10q0 38 37 38q8 0 17 -16v-11h-17v16h-16q-10 -2 -10 -11v-26q6 -19 48 -32q32 7 32 16q-10 -6 -16 -6q-21 8 -21 16v11q1 11 10 11q2 -11 11 -11h11q32 0 32 37q-7 0 -22 33v5q22 0 43 27zM1420 435v-16h-11l-11 6
q0 -11 -10 -11v5q5 16 32 16zM1875 419q-6 -9 -6 -21h-5l-11 5q6 -9 6 -21h37q0 12 6 21l-11 -5h-5q0 21 -11 21zM1109 387q30 0 70 -102h5v22q0 5 -5 5q5 11 5 16q-4 28 -59 70h-5q-11 -2 -11 -11zM1623 376v-10l113 -64v5q-9 0 -81 69q-5 0 -16 6q-10 -6 -16 -6zM1077 371
q-9 -55 -27 -75v-21q0 -11 107 -113q0 -21 32 -26q19 0 27 53q-11 24 -16 59h-11q0 -16 -5 -16q-26 13 -48 70q-45 68 -59 69zM1869 344v-5h6v11h5v-11h6v16h-6q-11 -2 -11 -11zM1811 328v-5h21v5h-21zM1923 328v-5h21v5h-21zM1875 323q0 -14 -27 -43h11l10 5l6 -26h5l6 26
l10 -5h11q-27 29 -27 43h-5zM1002 194v-5q3 -16 37 -16v-16q-32 -3 -32 -16v-22l11 -16l27 22q8 0 32 -27q12 0 16 27h5q24 -22 27 -22l11 6q10 -6 16 -6v16q0 8 -102 97q-48 -11 -48 -22zM1136 71q3 -32 16 -32h5q0 22 11 22l21 -22v11q0 8 -21 27q-8 -6 -32 -6zM1222 77
l-6 -11q11 -13 11 -22h11q10 0 10 11q-2 11 -26 22zM1088 66v-5q1 -11 10 -11h6v5q0 11 -11 11h-5zM1013 44v-10h10q8 0 16 16l-5 11q-21 -8 -21 -17zM916 23q32 -5 32 -16h-53q0 13 21 16z" />
    <glyph glyph-name="six" unicode="6" horiz-adv-x="2703" 
d="M17 1024h262q0 -85 27 -85q36 21 80 27q75 -25 75 -75q-15 -108 -27 -108q6 -10 6 -16h5q18 16 27 16q17 -10 32 -10q0 5 27 27l10 -6h22l11 6q0 6 -33 42q14 11 22 11q118 -58 118 -91q0 -16 5 -16l-5 -11q10 -21 10 -37q-3 -54 -16 -54q-10 28 -10 43q-99 -25 -145 -59
v-5q0 -12 27 -16q7 27 37 27h27q11 -2 11 -11v-11q-2 -10 -97 -59q-75 24 -75 59l-48 54l-10 -6q26 -87 91 -112q27 -19 58 -27q6 0 6 5q40 -10 48 -10q42 3 102 48q10 -5 16 -5v-6q0 -25 -38 -53q27 0 54 -32v-6q-9 -21 -38 -21h-53q-11 -2 -11 -11v-11q56 -55 70 -96
q46 -12 139 -96h11v160q-27 101 -27 214q133 -150 166 -150q193 -36 193 -69q48 -20 139 -220q44 -138 53 -139h1302v985h-1810q9 -40 27 -85q-14 -123 -43 -123h-6l-16 10h-5l-5 -27q10 -80 10 -133l-5 -27h-5v53q0 46 -11 70l5 11q-5 10 -5 16q5 0 5 5h-5q5 10 5 16l-5 11
q0 15 48 32l5 32v27l-10 -5l-32 42q0 14 21 16l27 -16q-7 49 -22 49q-34 -24 -42 -49l5 -10v-22l-5 -27h-17q0 6 -5 17q0 5 5 5l-32 128h1933v-1017h-1472q0 16 -22 27v-6l11 -21h-139l21 21l-10 6h-11q-11 0 -11 -27h-96q0 21 -22 32q-48 0 -48 -32h-59v5h11v6q0 10 -11 10
h-5q-13 0 -16 -21h-75v11h-5v-11h-108v11q13 26 49 53q10 -1 10 -10v-6q0 -4 -32 -32v-5h11q43 25 43 32v5q0 8 -32 32q-10 0 -75 -80h-584v1007q2 10 11 10zM568 1024h54v-10q-40 0 -59 -32v-16l21 -6q28 16 65 16q10 -5 16 -5v-5q-4 -13 -75 -33v-5h37v-11q-2 -13 -69 -32
q-54 4 -54 27l5 37h-26q-13 11 -22 11v6q78 58 107 58zM22 1008v-883h5q69 125 279 268l37 53q0 16 54 113v10q0 52 -64 123q-28 140 -81 193q-16 98 -16 123h-214zM1875 933h11q0 -37 42 -42v-6q-22 -25 -37 -48v-5q37 48 91 48q47 -8 155 -80v21h16q0 -32 22 -32h5
q11 12 11 37h16v-21q-9 -22 -38 -22h-10l-11 6q0 -8 -16 -16h-22q-34 0 -91 64l-21 16v-5q9 0 21 -32q-6 -27 -16 -27l6 27q0 32 -54 42q-37 -12 -37 -21q17 11 32 11l11 -16v-22l-17 11h-26q-8 0 -16 -16q5 -11 5 -16h-5l21 -38q-32 -5 -32 -26h-22q0 21 -32 21v5
q18 32 22 32l-6 11q6 11 6 16l-16 11h-27l-16 -11q0 11 -5 11q9 27 26 27l11 -6h5v6q-9 0 -32 10q-53 -9 -53 -48l5 -21q-8 0 -16 21q0 17 21 43h-5q-75 -80 -107 -80h-21q-8 0 -17 16l-10 -6h-11q-29 0 -37 22v21h16q0 -37 16 -37h10q11 0 11 32h5q11 0 11 -21
q109 72 155 80q49 0 91 -48v5q-14 23 -37 48l32 22q11 17 11 26zM1875 896q0 -12 -6 -22l-10 6h-6q22 -27 22 -38h11q0 14 21 38h-21v16h-11zM1623 794v-11l22 -5q14 0 101 86q-115 -70 -123 -70zM2014 864v-6l96 -80h11q11 5 16 5v11q-9 0 -123 70zM306 837q0 -5 -5 -5
q21 -35 32 -97h26l22 -32q0 13 37 91q6 30 6 43h-6q-53 -11 -53 -16l-27 16q-10 -5 -16 -5q-10 5 -16 5zM1811 837l-6 -11q9 6 27 6v5h-21zM1928 837v-5q18 0 27 -6v6l-11 5h-16zM1784 805h11v-22l-27 -5q-11 0 -11 11q27 0 27 16zM1971 805h6q0 -16 26 -16q0 -11 -10 -11
q-27 0 -32 22zM520 741v-11q78 21 91 21v-5q9 5 27 5v22l-54 16zM1864 778l-5 -21l10 5l6 -21h11l5 21l11 -5v5q-6 10 -6 16h-32zM1446 762h17v-5q-6 0 -17 -6v11zM1720 762l10 -5q0 5 6 5v-11h5v11h11v-27q0 -5 5 -5q-5 -10 -5 -16v-6h5v11h5v-16q0 -23 -10 -43h10
q0 40 16 43v-11h6v11q-6 0 -6 5h6l11 -5v11h5l11 -6v6q16 0 16 -16h5v10q8 0 16 -16q-5 0 -5 -5h5q0 5 5 5l11 -16q0 -5 -5 -5l5 -11v-5q-27 16 -27 37h-5v-5l16 -27v-5l-16 11v-6q8 0 32 -32v-5l-5 -11q5 0 5 -5q-17 0 -53 -27q0 5 -6 5l16 27v22l-10 -6h-6v16h11l16 -10
v10l11 -5v5l-11 6v-6q-8 6 -32 6v10h11q-11 18 -11 32h-5v-10q5 -10 5 -22h-11v22h-5v-22h-6v27h-5q0 -16 -5 -37h-27q-11 -2 -11 -11v-5l16 10q11 -1 11 -10v-6h-5l-11 6q0 -6 -5 -6l16 -32q0 -11 -11 -11q-38 21 -38 27l6 11q-6 0 -6 5q6 0 6 6q-6 0 -6 5q24 13 33 37
q-6 11 -6 16h-5q0 -21 -22 -32v16q0 12 6 22q-6 10 -6 16v21h6v-27h5q0 7 6 54zM2223 762h16v-5q-6 0 -16 -6v11zM1473 757l-5 -11q5 0 5 -5q-10 0 -10 -16h-17l17 21l-11 -5h-6q0 12 27 16zM1495 757h5v-6q-11 0 -11 -10q-10 5 -16 5v5q3 0 22 6zM1703 757h11v-6
q0 -10 -11 -10v16zM2250 757l-6 -11q6 0 6 -5q-11 0 -11 -16h-16l16 21l-11 -5h-5q0 12 27 16zM2271 757h5v-6q-10 0 -10 -10q-11 5 -16 5v5q2 0 21 6zM1505 741v-6q0 -10 -10 -10h-16q0 12 26 16zM2282 741v-6q0 -10 -11 -10h-16q0 12 27 16zM483 671v-11q10 0 10 -5
q96 28 140 59q0 11 -11 11h-27q-108 -45 -112 -54zM1966 714v-6q0 -7 -16 -16h-6q0 9 22 22zM1297 708h5q5 0 5 -5l11 5h16l-5 -10h16v-6h-11l5 -10h-10v-6h10q0 6 6 6q5 -11 5 -16v-6h-5v11h-6v-11h-16q0 11 -16 11l6 11l-11 -6h-5q0 11 21 11v5h-21l5 11q-5 0 -5 5z
M1398 708q0 -12 -27 -16v-10l17 10h10q-6 -53 -21 -53v11h-6q0 -16 -10 -16v5q10 17 10 27q0 9 -10 32zM1404 708q32 0 32 -42l-16 -11q0 5 -6 5q0 -26 -16 -26q0 5 -5 5q0 -5 -5 -5v5q16 27 16 53v16zM1473 708h6q7 0 26 -26h-10q-9 0 -22 21v5zM1489 708h6q10 -1 10 -10
h-5q-11 0 -11 10zM1580 708h6l-6 -10v-22l6 -10q-11 0 -11 -11q-12 0 -16 27h-5v-6q21 -42 58 -42q22 0 33 21h-6q-5 -16 -32 -16q-10 5 -16 5v11l11 -5h21q8 0 16 16v5l-10 -5h-6l-16 10q0 -5 -5 -5q0 5 -6 5q0 -5 -5 -5l-5 11v10q1 11 10 11v-11l11 6q0 -6 5 -6v6
q-5 0 -5 5l11 5h21l-5 -10l11 5q42 -23 42 -64v-11q0 -11 -10 -11v38h-6q0 -24 -26 -38h-6l6 11q-18 -11 -33 -11h-10l-27 6q7 -27 27 -27v-5h-16v-6h16q24 11 27 22q10 -6 16 -6q10 6 16 6l-6 -11h6q1 11 10 11h6q-16 -27 -38 -27v-5h6q17 10 26 10q-5 -10 -5 -16l-11 6v-6
q6 0 6 -5q-8 0 -49 -11q-10 0 -37 11q-10 -5 -16 -5q0 10 -16 10l5 11q-19 0 -32 37h5l11 -5q0 6 5 16h-5v-5q-10 5 -16 5v11l5 11q-5 0 -5 5q11 0 11 16h5q0 -12 16 -32v-5l-16 10v-5q24 -22 27 -22v6q-11 0 -11 11h6l16 -11v5q-38 28 -38 54l16 10q0 -5 6 -5q0 21 26 21z
M1923 703v-5l16 10h5q0 -3 -32 -32q8 -5 32 -5v-5l-37 -6h-27q0 8 16 16h6l-6 -10h6l5 10q-5 0 -5 6q7 0 16 16h-6q-2 -11 -26 -22v6q0 21 37 21zM1977 708h5q-21 -23 -21 -26q5 0 5 -6h-16v6q0 7 27 26zM1987 708h11q13 -10 21 -10v-70l16 11v-5q0 -18 -16 -59h11v21
q11 -2 11 -11q-6 -10 -6 -16q11 -1 11 -10h-11q-13 10 -21 10l-21 -10q0 5 -6 5l11 21h-5q0 -5 -6 -5v5l6 11h-6q-16 -37 -53 -37h-16q-49 8 -49 42q17 43 54 43l11 -16v-11l-11 -16h5l11 16l-5 27q10 -1 10 -10v-22l-16 -21h11q0 -11 -11 -11h-5l-27 5v6q3 0 22 5v5
q-12 0 -22 6v-16h-5v10h-5v-10l21 -16h32q25 12 38 37v5h-6q0 -21 -16 -21q0 5 -5 5q0 -5 -6 -5l6 27v21l27 6v-27h5q5 53 5 80v5zM2057 708h21q-11 -32 -21 -32v6l5 10h-5q0 -5 -5 -5v5q5 11 5 16zM2089 708q0 -5 5 -5q0 5 6 5q0 -5 5 -5q0 5 5 5v-10q0 -15 -10 -32h5
l16 10v-5l-5 -11q12 0 16 -37h5l11 48l11 -5h5v5q-11 17 -11 27l16 10h22l10 -5q0 5 6 5l5 -10v-6l-5 -10q5 0 5 -6h-5q-12 0 -16 27h-6v-11h-5v11h-5v-5q5 -11 5 -16v-6h-5l-6 22h-5v-6l21 -37h-5q-9 5 -21 5l-11 -16v-5l11 -16v-6q0 -10 -11 -10v5l5 11h-10v-16h-27
q-11 0 -11 10v6l16 -11v11h-11l6 27v5l-27 5q0 -5 -5 -5q0 5 -6 5q0 -10 -10 -10v5l21 37v6h-5v-11h-6v16zM2250 708h5q7 0 27 -26h-11q-8 0 -21 21v5zM2266 708h5q11 -1 11 -10h-6q-10 0 -10 10zM2293 708h5q5 0 5 -5l11 5h16l-5 -10h16v-6h-11l5 -10h-10v-6h10q0 6 6 6
q5 -11 5 -16v-6h-5v11h-6v-11h-16q0 11 -16 11l6 11l-11 -6h-5q0 11 21 11v5h-21l5 11q-5 0 -5 5zM2394 708q0 -12 -27 -16v-10l17 10h10q-6 -53 -21 -53v11h-6q0 -16 -10 -16v5q10 17 10 27q0 9 -10 32zM2400 708q32 0 32 -42l-16 -11q0 5 -6 5q0 -26 -16 -26q0 5 -5 5
q0 -5 -5 -5v5q16 27 16 53v16zM1446 703h6q0 -11 21 -32h-5q-22 11 -22 27v5zM2223 703h5q0 -11 22 -32h-6q-21 11 -21 27v5zM1420 692v-26h5v26h-5zM1977 698h5v-22l-11 6q6 10 6 16zM2094 692q0 -9 -10 -26h5l11 21v5h-6zM2416 692v-26h5v26h-5zM1939 692h5q0 -10 -10 -10
h-6q2 10 11 10zM1350 687q11 0 11 -16v-5h-6zM2346 687q11 0 11 -16v-5h-6zM1446 682q28 -22 33 -22v6q-6 0 -6 5h6l10 -5v5q-10 0 -10 11h5q21 -8 21 -16h-10v-6h10v-5h-10v-5h10v-11q-44 -8 -59 -22v6q6 29 6 43q-6 10 -6 16zM2223 682q27 -22 32 -22v6q-5 0 -5 5h5l11 -5
v5q-11 0 -11 11h5q22 -8 22 -16h-11v-6h11v-5h-11v-5h11v-11q-44 -8 -59 -22v6q5 29 5 43q-5 10 -5 16zM1966 676h5q11 -1 11 -10v-6h-11q0 6 -5 16zM2073 676v-5q0 -11 -11 -11v6q2 10 11 10zM2180 676q11 -1 11 -10v-6q-11 0 -11 11v5zM1725 671v-5q0 -11 -11 -11v5
q2 11 11 11zM2185 655q11 0 11 -16v-5h-5zM2078 650v-16q-10 0 -10 10zM2094 650h6q10 -2 10 -11q-5 0 -5 -5l-11 5h-5v-5l5 -27q-5 0 -16 21q8 22 16 22zM2159 650h10q11 -2 11 -11q-6 0 -16 -5l-5 10v6zM2180 639h5v-22l-10 -5v5q5 10 5 22zM1361 634q0 -6 -22 -17
q-10 6 -16 6v5q17 0 38 6zM1891 628l-5 -11q9 6 21 6v5h-16zM2357 634q0 -6 -22 -17q-10 6 -16 6v5q17 0 38 6zM1500 628h5v-5q-28 -6 -32 -6h-5v6q28 5 32 5zM2276 628h6v-5q-4 0 -32 -6h-6v6q4 0 32 5zM1377 623l-6 -11q6 0 6 -5q-10 -6 -22 -6v-5h11q11 5 16 5h6v-5h-11
v-5q6 0 16 -6v6q-5 0 -5 5l10 5h6l-6 -10h6q1 10 10 10h6l-6 -10v-6l6 -26h-6q-102 12 -107 26h-5v6l27 5v5h-16l5 11q-5 0 -5 5l26 -5zM2373 623l-6 -11q6 0 6 -5q-10 -6 -22 -6v-5h11q11 5 16 5h6v-5h-11v-5q6 0 16 -6v6q-5 0 -5 5l10 5h6l-6 -10h6q1 10 10 10h6l-6 -10
v-6l6 -26h-6q-102 12 -107 26h-5v6l27 5v5h-16l5 11q-5 0 -5 5l26 -5zM1505 617v-10h-10v-6h10v-5h-5l-21 5l-33 -16v6q24 26 59 26zM2282 617v-10h-11v-6h11v-5h-6l-21 5l-32 -16v6q24 26 59 26zM2175 612v-5q0 -11 -11 -11v5q2 11 11 11zM1297 607h5q11 -2 11 -11h-6
q-10 0 -10 11zM1687 607v-6q0 -10 -10 -10v5q1 11 10 11zM2084 607q10 -2 10 -11v-5q-10 0 -10 10v6zM2293 607h5q11 -2 11 -11h-6q-10 0 -10 11zM1436 601h5v-16q-10 6 -16 6q2 10 11 10zM1703 601q11 -5 17 -5v-5h-11v-6q6 0 16 -5v5q-5 0 -5 6h5q11 -2 11 -11q-6 0 -6 -5
l11 -6v6q-5 0 -5 5h5q8 0 21 -21h-5q-5 0 -5 5l-11 -5l-16 10v-5q5 0 5 -5h-27v10q0 6 6 6l-6 10v16zM1864 601q0 -5 -5 -5l5 -11v-26h-32l5 10h-5q0 -10 -11 -10l-10 5q0 -5 -6 -5v5q0 8 22 21h5l-11 -16h6q0 12 26 16v6h-10v5q2 0 21 5zM2432 601h5v-16q-10 6 -16 6
q2 10 11 10zM1473 596h11q10 -5 16 -5v-6q-11 0 -11 -10q-10 5 -16 5v5h11v6h-11v5zM2105 596q8 0 16 -16h-5q-11 0 -11 11v5zM2250 596h10q11 -5 16 -5v-6q-10 0 -10 -10q-11 5 -16 5v5h10v6h-10v5zM1420 591h5v-22h-5v22zM2416 591h5v-22h-5v22zM1329 580v-5h37v5h-37z
M1457 585h6q0 -7 -17 -16v6q2 10 11 10zM2153 585q0 -8 -21 -21l-11 16zM2234 585h5q0 -7 -16 -16v6q2 10 11 10zM2325 580v-5h37v5h-37zM1468 580h5q0 -8 -21 -21h-6q0 8 22 21zM2244 580h6q0 -8 -22 -21h-5q0 8 21 21zM1505 575v-6q0 -10 -10 -10h-16q0 12 26 16z
M2282 575v-6q0 -10 -11 -10h-16q0 12 27 16zM1297 569l32 -5v-5h-27zM2293 569l32 -5v-5h-27zM1339 564h27v-5h-27v5zM2335 564h27v-5h-27v5zM1607 542v-21h-11v-11h11v-16h-11v-26l-5 -11q5 0 5 -6q-5 0 -5 -5q5 0 5 -5h-32v43l-10 16v10q8 0 26 32h27zM1950 537h27v-96
h-49l-10 -6q-22 19 -22 38t22 43l26 -6q11 0 11 11h-11v5h11zM2143 537h26q0 -6 6 -16l-11 -5h-5l5 10h-5q-11 -5 -16 -5v16zM1264 532h6q5 0 5 -6l11 6h5v-22h38q12 0 16 -37h5l5 37h6q5 0 5 -5l32 11q0 -9 22 -22h5v6h-11q0 8 22 16v-11l10 5h11q0 -5 6 -16q-6 0 -6 -5h11
q21 27 53 27q23 -8 33 -27v-21h-54v-6q11 0 11 -5l10 5h33q-5 -16 -38 -27q-43 7 -43 38h-5q0 -22 -16 -22l5 -10l-11 -6h-16v6h11v5q-35 -5 -53 -16v11q0 4 5 32q-5 10 -5 16q5 0 5 5q-5 0 -5 6q5 0 5 5h-11q-20 -91 -43 -91v-5h-5l-11 5q0 -5 -5 -5l-5 10v16h16v16
q-15 43 -27 43q-5 0 -5 11h-6v-43h16v-5l-5 -11q5 0 5 -5q-5 0 -16 -6q-23 6 -32 33l5 10l-5 11l11 5q0 -5 5 -5v5q-5 0 -5 6l-11 -6h-11l6 11q-6 0 -6 5q16 0 16 16v6zM1650 516q8 -6 32 -6v-32h16q0 24 27 38h11q19 0 42 -22q18 15 43 22v-6l11 6q32 -22 32 -48h-53l5 -11
l27 5h16v-11q-8 0 -32 -16q-30 6 -49 22h-5q0 -11 -21 -22l-49 11l6 11q-11 0 -11 16h-11l6 -27v-5h-6q-5 0 -5 5l-11 -5h-5q-5 0 -5 5l-11 -5h-27q-4 0 -16 16q0 27 54 27q0 8 -22 16v-6q6 0 6 -5h-33v5q0 12 38 22zM2025 516v-6l10 6q33 -22 33 -48h-54l5 -11l27 5h16v-11
q-7 0 -32 -16q-33 0 -48 27v27q16 27 43 27zM2094 516v-6l11 6q32 -6 32 -16v-6h-10l-27 6l-6 -11q32 0 49 -16l5 11l-5 26h32v-26h5q2 26 16 26v-5l11 5h11q5 0 5 -5l11 5h21v-26h5v26h11q12 0 22 -5q9 5 21 5q0 -5 5 -5v5q11 -5 16 -5v-32l-5 -27q5 0 5 -5h-21
q-11 0 -11 10v6q0 5 6 5q-6 9 -6 27h-5q-11 -2 -11 -11v-37h-27v37h-5q0 -64 -27 -64q-5 0 -16 -5q-17 10 -27 10v11q12 0 22 5q10 -5 16 -5l11 16l-27 -5q-14 0 -32 21l-11 -16h5q0 5 6 5v-10h-11q-5 0 -5 5l-11 -5h-5v16q-11 -6 -16 -6l5 -10q-6 0 -16 -6q-48 6 -48 27h16
l26 -5v11q-34 0 -42 21q0 14 26 27zM2384 516v-6l10 6q27 -12 27 -43h5v37h27v-10h6q0 16 16 16q5 -11 5 -16l-21 -27v-32h-33v27h-53l5 -11l27 5h16v-11q-7 0 -32 -16q-33 0 -48 27v27q16 27 43 27zM1725 468l11 -6l32 6l10 -6v27l-10 -5h-16q-11 0 -11 16q-16 -6 -16 -32z
M1500 484h5v5l11 -5h5q0 10 -10 10q-11 -1 -11 -10zM1805 484h6v5l10 -5h11q0 10 -11 10h-5q-11 -1 -11 -10zM2009 484h5v5l11 -5h10q0 10 -10 10h-6q-10 -1 -10 -10zM2367 484h6v5l11 -5h10q0 10 -10 10h-6q-11 -1 -11 -10zM1880 441q9 -27 38 -27v-5q-15 -33 -22 -33
q0 -37 32 -37h11l16 11l6 -11v-11q0 -12 -27 -16l-22 11v-5q38 -16 43 -16q29 0 54 42q-7 27 -16 27h-16v-16h-16v11q0 7 16 16q37 0 37 -38v-10q-21 -24 -21 -27q8 0 75 64q19 16 37 16h11q91 -15 91 -37v-16h-16q0 37 -32 37q-7 -32 -16 -32h-6q0 21 -5 21q-10 -5 -16 -5
q0 11 16 11v10q-6 0 -16 6q-16 0 -97 -80h6q80 53 91 53q-91 -75 -145 -75q-43 0 -85 54v-6q9 -25 42 -53q-42 -15 -42 -43l-11 -5q-15 42 -43 42l-5 11q18 3 42 48v6h-5q0 -36 -86 -54q-37 0 -155 80q-5 0 -5 -5v-16h-6q-10 0 -10 11v5l5 11l-21 5q-22 -3 -22 -37h-16v16
q0 22 91 37h11q29 0 102 -75l10 -5v5q-8 0 -21 22v10q0 38 37 38q8 0 17 -16v-11h-17v16h-16q-10 -2 -10 -11v-26q6 -19 48 -32q32 7 32 16q-10 -6 -16 -6q-21 8 -21 16v11q1 11 10 11q2 -11 11 -11h11q32 0 32 37q-7 0 -22 33v5q22 0 43 27zM1420 435v-16h-11l-11 6
q0 -11 -10 -11v5q5 16 32 16zM1875 419q-6 -9 -6 -21h-5l-11 5q6 -9 6 -21h37q0 12 6 21l-11 -5h-5q0 21 -11 21zM1109 387q30 0 70 -102h5v22q0 5 -5 5q5 11 5 16q-4 28 -59 70h-5q-11 -2 -11 -11zM1623 376v-10l113 -64v5q-9 0 -81 69q-5 0 -16 6q-10 -6 -16 -6zM1077 371
q-9 -55 -27 -75v-21q0 -11 107 -113q0 -21 32 -26q19 0 27 53q-11 24 -16 59h-11q0 -16 -5 -16q-26 13 -48 70q-45 68 -59 69zM1869 344v-5h6v11h5v-11h6v16h-6q-11 -2 -11 -11zM1811 328v-5h21v5h-21zM1923 328v-5h21v5h-21zM1875 323q0 -14 -27 -43h11l10 5l6 -26h5l6 26
l10 -5h11q-27 29 -27 43h-5zM1002 194v-5q3 -16 37 -16v-16q-32 -3 -32 -16v-22l11 -16l27 22q8 0 32 -27q12 0 16 27h5q24 -22 27 -22l11 6q10 -6 16 -6v16q0 8 -102 97q-48 -11 -48 -22zM1136 71q3 -32 16 -32h5q0 22 11 22l21 -22v11q0 8 -21 27q-8 -6 -32 -6zM1222 77
l-6 -11q11 -13 11 -22h11q10 0 10 11q-2 11 -26 22zM1088 66v-5q1 -11 10 -11h6v5q0 11 -11 11h-5zM1013 44v-10h10q8 0 16 16l-5 11q-21 -8 -21 -17zM916 23q32 -5 32 -16h-53q0 13 21 16z" />
    <glyph glyph-name="seven" unicode="7" 
d="M763 1429l292 -662l-456 -212l-62 124q315 146 322 146l-234 540zM576 1328h2l49 -113v-3l-316 -139l60 -144l282 120h2q45 -96 45 -107l-277 -127l120 -271q-130 -65 -137 -65l-284 650q443 199 454 199zM126 722h5l251 -432h4l432 247h5q-69 -286 -73 -290l-439 -249
h-4l-256 434v2z" />
    <glyph glyph-name="eight" unicode="8" horiz-adv-x="2703" 
d="M17 1024h262q0 -85 27 -85q36 21 80 27q75 -25 75 -75q-15 -108 -27 -108q6 -10 6 -16h5q18 16 27 16q17 -10 32 -10q0 5 27 27l10 -6h22l11 6q0 6 -33 42q14 11 22 11q118 -58 118 -91q0 -16 5 -16l-5 -11q10 -21 10 -37q-3 -54 -16 -54q-10 28 -10 43q-99 -25 -145 -59
v-5q0 -12 27 -16q7 27 37 27h27q11 -2 11 -11v-11q-2 -10 -97 -59q-75 24 -75 59l-48 54l-10 -6q26 -87 91 -112q27 -19 58 -27q6 0 6 5q40 -10 48 -10q42 3 102 48q10 -5 16 -5v-6q0 -25 -38 -53q27 0 54 -32v-6q-9 -21 -38 -21h-53q-11 -2 -11 -11v-11q56 -55 70 -96
q46 -12 139 -96h11v160q-27 101 -27 214q133 -150 166 -150q193 -36 193 -69q48 -20 139 -220q44 -138 53 -139h1302v985h-1810q9 -40 27 -85q-14 -123 -43 -123h-6l-16 10h-5l-5 -27q10 -80 10 -133l-5 -27h-5v53q0 46 -11 70l5 11q-5 10 -5 16q5 0 5 5h-5q5 10 5 16l-5 11
q0 15 48 32l5 32v27l-10 -5l-32 42q0 14 21 16l27 -16q-7 49 -22 49q-34 -24 -42 -49l5 -10v-22l-5 -27h-17q0 6 -5 17q0 5 5 5l-32 128h1933v-1017h-1472q0 16 -22 27v-6l11 -21h-139l21 21l-10 6h-11q-11 0 -11 -27h-96q0 21 -22 32q-48 0 -48 -32h-59v5h11v6q0 10 -11 10
h-5q-13 0 -16 -21h-75v11h-5v-11h-108v11q13 26 49 53q10 -1 10 -10v-6q0 -4 -32 -32v-5h11q43 25 43 32v5q0 8 -32 32q-10 0 -75 -80h-584v1007q2 10 11 10zM568 1024h54v-10q-40 0 -59 -32v-16l21 -6q28 16 65 16q10 -5 16 -5v-5q-4 -13 -75 -33v-5h37v-11q-2 -13 -69 -32
q-54 4 -54 27l5 37h-26q-13 11 -22 11v6q78 58 107 58zM22 1008v-883h5q69 125 279 268l37 53q0 16 54 113v10q0 52 -64 123q-28 140 -81 193q-16 98 -16 123h-214zM1875 933h11q0 -37 42 -42v-6q-22 -25 -37 -48v-5q37 48 91 48q47 -8 155 -80v21h16q0 -32 22 -32h5
q11 12 11 37h16v-21q-9 -22 -38 -22h-10l-11 6q0 -8 -16 -16h-22q-34 0 -91 64l-21 16v-5q9 0 21 -32q-6 -27 -16 -27l6 27q0 32 -54 42q-37 -12 -37 -21q17 11 32 11l11 -16v-22l-17 11h-26q-8 0 -16 -16q5 -11 5 -16h-5l21 -38q-32 -5 -32 -26h-22q0 21 -32 21v5
q18 32 22 32l-6 11q6 11 6 16l-16 11h-27l-16 -11q0 11 -5 11q9 27 26 27l11 -6h5v6q-9 0 -32 10q-53 -9 -53 -48l5 -21q-8 0 -16 21q0 17 21 43h-5q-75 -80 -107 -80h-21q-8 0 -17 16l-10 -6h-11q-29 0 -37 22v21h16q0 -37 16 -37h10q11 0 11 32h5q11 0 11 -21
q109 72 155 80q49 0 91 -48v5q-14 23 -37 48l32 22q11 17 11 26zM1875 896q0 -12 -6 -22l-10 6h-6q22 -27 22 -38h11q0 14 21 38h-21v16h-11zM1623 794v-11l22 -5q14 0 101 86q-115 -70 -123 -70zM2014 864v-6l96 -80h11q11 5 16 5v11q-9 0 -123 70zM306 837q0 -5 -5 -5
q21 -35 32 -97h26l22 -32q0 13 37 91q6 30 6 43h-6q-53 -11 -53 -16l-27 16q-10 -5 -16 -5q-10 5 -16 5zM1811 837l-6 -11q9 6 27 6v5h-21zM1928 837v-5q18 0 27 -6v6l-11 5h-16zM1784 805h11v-22l-27 -5q-11 0 -11 11q27 0 27 16zM1971 805h6q0 -16 26 -16q0 -11 -10 -11
q-27 0 -32 22zM520 741v-11q78 21 91 21v-5q9 5 27 5v22l-54 16zM1864 778l-5 -21l10 5l6 -21h11l5 21l11 -5v5q-6 10 -6 16h-32zM1446 762h17v-5q-6 0 -17 -6v11zM1720 762l10 -5q0 5 6 5v-11h5v11h11v-27q0 -5 5 -5q-5 -10 -5 -16v-6h5v11h5v-16q0 -23 -10 -43h10
q0 40 16 43v-11h6v11q-6 0 -6 5h6l11 -5v11h5l11 -6v6q16 0 16 -16h5v10q8 0 16 -16q-5 0 -5 -5h5q0 5 5 5l11 -16q0 -5 -5 -5l5 -11v-5q-27 16 -27 37h-5v-5l16 -27v-5l-16 11v-6q8 0 32 -32v-5l-5 -11q5 0 5 -5q-17 0 -53 -27q0 5 -6 5l16 27v22l-10 -6h-6v16h11l16 -10
v10l11 -5v5l-11 6v-6q-8 6 -32 6v10h11q-11 18 -11 32h-5v-10q5 -10 5 -22h-11v22h-5v-22h-6v27h-5q0 -16 -5 -37h-27q-11 -2 -11 -11v-5l16 10q11 -1 11 -10v-6h-5l-11 6q0 -6 -5 -6l16 -32q0 -11 -11 -11q-38 21 -38 27l6 11q-6 0 -6 5q6 0 6 6q-6 0 -6 5q24 13 33 37
q-6 11 -6 16h-5q0 -21 -22 -32v16q0 12 6 22q-6 10 -6 16v21h6v-27h5q0 7 6 54zM2223 762h16v-5q-6 0 -16 -6v11zM1473 757l-5 -11q5 0 5 -5q-10 0 -10 -16h-17l17 21l-11 -5h-6q0 12 27 16zM1495 757h5v-6q-11 0 -11 -10q-10 5 -16 5v5q3 0 22 6zM1703 757h11v-6
q0 -10 -11 -10v16zM2250 757l-6 -11q6 0 6 -5q-11 0 -11 -16h-16l16 21l-11 -5h-5q0 12 27 16zM2271 757h5v-6q-10 0 -10 -10q-11 5 -16 5v5q2 0 21 6zM1505 741v-6q0 -10 -10 -10h-16q0 12 26 16zM2282 741v-6q0 -10 -11 -10h-16q0 12 27 16zM483 671v-11q10 0 10 -5
q96 28 140 59q0 11 -11 11h-27q-108 -45 -112 -54zM1966 714v-6q0 -7 -16 -16h-6q0 9 22 22zM1297 708h5q5 0 5 -5l11 5h16l-5 -10h16v-6h-11l5 -10h-10v-6h10q0 6 6 6q5 -11 5 -16v-6h-5v11h-6v-11h-16q0 11 -16 11l6 11l-11 -6h-5q0 11 21 11v5h-21l5 11q-5 0 -5 5z
M1398 708q0 -12 -27 -16v-10l17 10h10q-6 -53 -21 -53v11h-6q0 -16 -10 -16v5q10 17 10 27q0 9 -10 32zM1404 708q32 0 32 -42l-16 -11q0 5 -6 5q0 -26 -16 -26q0 5 -5 5q0 -5 -5 -5v5q16 27 16 53v16zM1473 708h6q7 0 26 -26h-10q-9 0 -22 21v5zM1489 708h6q10 -1 10 -10
h-5q-11 0 -11 10zM1580 708h6l-6 -10v-22l6 -10q-11 0 -11 -11q-12 0 -16 27h-5v-6q21 -42 58 -42q22 0 33 21h-6q-5 -16 -32 -16q-10 5 -16 5v11l11 -5h21q8 0 16 16v5l-10 -5h-6l-16 10q0 -5 -5 -5q0 5 -6 5q0 -5 -5 -5l-5 11v10q1 11 10 11v-11l11 6q0 -6 5 -6v6
q-5 0 -5 5l11 5h21l-5 -10l11 5q42 -23 42 -64v-11q0 -11 -10 -11v38h-6q0 -24 -26 -38h-6l6 11q-18 -11 -33 -11h-10l-27 6q7 -27 27 -27v-5h-16v-6h16q24 11 27 22q10 -6 16 -6q10 6 16 6l-6 -11h6q1 11 10 11h6q-16 -27 -38 -27v-5h6q17 10 26 10q-5 -10 -5 -16l-11 6v-6
q6 0 6 -5q-8 0 -49 -11q-10 0 -37 11q-10 -5 -16 -5q0 10 -16 10l5 11q-19 0 -32 37h5l11 -5q0 6 5 16h-5v-5q-10 5 -16 5v11l5 11q-5 0 -5 5q11 0 11 16h5q0 -12 16 -32v-5l-16 10v-5q24 -22 27 -22v6q-11 0 -11 11h6l16 -11v5q-38 28 -38 54l16 10q0 -5 6 -5q0 21 26 21z
M1923 703v-5l16 10h5q0 -3 -32 -32q8 -5 32 -5v-5l-37 -6h-27q0 8 16 16h6l-6 -10h6l5 10q-5 0 -5 6q7 0 16 16h-6q-2 -11 -26 -22v6q0 21 37 21zM1977 708h5q-21 -23 -21 -26q5 0 5 -6h-16v6q0 7 27 26zM1987 708h11q13 -10 21 -10v-70l16 11v-5q0 -18 -16 -59h11v21
q11 -2 11 -11q-6 -10 -6 -16q11 -1 11 -10h-11q-13 10 -21 10l-21 -10q0 5 -6 5l11 21h-5q0 -5 -6 -5v5l6 11h-6q-16 -37 -53 -37h-16q-49 8 -49 42q17 43 54 43l11 -16v-11l-11 -16h5l11 16l-5 27q10 -1 10 -10v-22l-16 -21h11q0 -11 -11 -11h-5l-27 5v6q3 0 22 5v5
q-12 0 -22 6v-16h-5v10h-5v-10l21 -16h32q25 12 38 37v5h-6q0 -21 -16 -21q0 5 -5 5q0 -5 -6 -5l6 27v21l27 6v-27h5q5 53 5 80v5zM2057 708h21q-11 -32 -21 -32v6l5 10h-5q0 -5 -5 -5v5q5 11 5 16zM2089 708q0 -5 5 -5q0 5 6 5q0 -5 5 -5q0 5 5 5v-10q0 -15 -10 -32h5
l16 10v-5l-5 -11q12 0 16 -37h5l11 48l11 -5h5v5q-11 17 -11 27l16 10h22l10 -5q0 5 6 5l5 -10v-6l-5 -10q5 0 5 -6h-5q-12 0 -16 27h-6v-11h-5v11h-5v-5q5 -11 5 -16v-6h-5l-6 22h-5v-6l21 -37h-5q-9 5 -21 5l-11 -16v-5l11 -16v-6q0 -10 -11 -10v5l5 11h-10v-16h-27
q-11 0 -11 10v6l16 -11v11h-11l6 27v5l-27 5q0 -5 -5 -5q0 5 -6 5q0 -10 -10 -10v5l21 37v6h-5v-11h-6v16zM2250 708h5q7 0 27 -26h-11q-8 0 -21 21v5zM2266 708h5q11 -1 11 -10h-6q-10 0 -10 10zM2293 708h5q5 0 5 -5l11 5h16l-5 -10h16v-6h-11l5 -10h-10v-6h10q0 6 6 6
q5 -11 5 -16v-6h-5v11h-6v-11h-16q0 11 -16 11l6 11l-11 -6h-5q0 11 21 11v5h-21l5 11q-5 0 -5 5zM2394 708q0 -12 -27 -16v-10l17 10h10q-6 -53 -21 -53v11h-6q0 -16 -10 -16v5q10 17 10 27q0 9 -10 32zM2400 708q32 0 32 -42l-16 -11q0 5 -6 5q0 -26 -16 -26q0 5 -5 5
q0 -5 -5 -5v5q16 27 16 53v16zM1446 703h6q0 -11 21 -32h-5q-22 11 -22 27v5zM2223 703h5q0 -11 22 -32h-6q-21 11 -21 27v5zM1420 692v-26h5v26h-5zM1977 698h5v-22l-11 6q6 10 6 16zM2094 692q0 -9 -10 -26h5l11 21v5h-6zM2416 692v-26h5v26h-5zM1939 692h5q0 -10 -10 -10
h-6q2 10 11 10zM1350 687q11 0 11 -16v-5h-6zM2346 687q11 0 11 -16v-5h-6zM1446 682q28 -22 33 -22v6q-6 0 -6 5h6l10 -5v5q-10 0 -10 11h5q21 -8 21 -16h-10v-6h10v-5h-10v-5h10v-11q-44 -8 -59 -22v6q6 29 6 43q-6 10 -6 16zM2223 682q27 -22 32 -22v6q-5 0 -5 5h5l11 -5
v5q-11 0 -11 11h5q22 -8 22 -16h-11v-6h11v-5h-11v-5h11v-11q-44 -8 -59 -22v6q5 29 5 43q-5 10 -5 16zM1966 676h5q11 -1 11 -10v-6h-11q0 6 -5 16zM2073 676v-5q0 -11 -11 -11v6q2 10 11 10zM2180 676q11 -1 11 -10v-6q-11 0 -11 11v5zM1725 671v-5q0 -11 -11 -11v5
q2 11 11 11zM2185 655q11 0 11 -16v-5h-5zM2078 650v-16q-10 0 -10 10zM2094 650h6q10 -2 10 -11q-5 0 -5 -5l-11 5h-5v-5l5 -27q-5 0 -16 21q8 22 16 22zM2159 650h10q11 -2 11 -11q-6 0 -16 -5l-5 10v6zM2180 639h5v-22l-10 -5v5q5 10 5 22zM1361 634q0 -6 -22 -17
q-10 6 -16 6v5q17 0 38 6zM1891 628l-5 -11q9 6 21 6v5h-16zM2357 634q0 -6 -22 -17q-10 6 -16 6v5q17 0 38 6zM1500 628h5v-5q-28 -6 -32 -6h-5v6q28 5 32 5zM2276 628h6v-5q-4 0 -32 -6h-6v6q4 0 32 5zM1377 623l-6 -11q6 0 6 -5q-10 -6 -22 -6v-5h11q11 5 16 5h6v-5h-11
v-5q6 0 16 -6v6q-5 0 -5 5l10 5h6l-6 -10h6q1 10 10 10h6l-6 -10v-6l6 -26h-6q-102 12 -107 26h-5v6l27 5v5h-16l5 11q-5 0 -5 5l26 -5zM2373 623l-6 -11q6 0 6 -5q-10 -6 -22 -6v-5h11q11 5 16 5h6v-5h-11v-5q6 0 16 -6v6q-5 0 -5 5l10 5h6l-6 -10h6q1 10 10 10h6l-6 -10
v-6l6 -26h-6q-102 12 -107 26h-5v6l27 5v5h-16l5 11q-5 0 -5 5l26 -5zM1505 617v-10h-10v-6h10v-5h-5l-21 5l-33 -16v6q24 26 59 26zM2282 617v-10h-11v-6h11v-5h-6l-21 5l-32 -16v6q24 26 59 26zM2175 612v-5q0 -11 -11 -11v5q2 11 11 11zM1297 607h5q11 -2 11 -11h-6
q-10 0 -10 11zM1687 607v-6q0 -10 -10 -10v5q1 11 10 11zM2084 607q10 -2 10 -11v-5q-10 0 -10 10v6zM2293 607h5q11 -2 11 -11h-6q-10 0 -10 11zM1436 601h5v-16q-10 6 -16 6q2 10 11 10zM1703 601q11 -5 17 -5v-5h-11v-6q6 0 16 -5v5q-5 0 -5 6h5q11 -2 11 -11q-6 0 -6 -5
l11 -6v6q-5 0 -5 5h5q8 0 21 -21h-5q-5 0 -5 5l-11 -5l-16 10v-5q5 0 5 -5h-27v10q0 6 6 6l-6 10v16zM1864 601q0 -5 -5 -5l5 -11v-26h-32l5 10h-5q0 -10 -11 -10l-10 5q0 -5 -6 -5v5q0 8 22 21h5l-11 -16h6q0 12 26 16v6h-10v5q2 0 21 5zM2432 601h5v-16q-10 6 -16 6
q2 10 11 10zM1473 596h11q10 -5 16 -5v-6q-11 0 -11 -10q-10 5 -16 5v5h11v6h-11v5zM2105 596q8 0 16 -16h-5q-11 0 -11 11v5zM2250 596h10q11 -5 16 -5v-6q-10 0 -10 -10q-11 5 -16 5v5h10v6h-10v5zM1420 591h5v-22h-5v22zM2416 591h5v-22h-5v22zM1329 580v-5h37v5h-37z
M1457 585h6q0 -7 -17 -16v6q2 10 11 10zM2153 585q0 -8 -21 -21l-11 16zM2234 585h5q0 -7 -16 -16v6q2 10 11 10zM2325 580v-5h37v5h-37zM1468 580h5q0 -8 -21 -21h-6q0 8 22 21zM2244 580h6q0 -8 -22 -21h-5q0 8 21 21zM1505 575v-6q0 -10 -10 -10h-16q0 12 26 16z
M2282 575v-6q0 -10 -11 -10h-16q0 12 27 16zM1297 569l32 -5v-5h-27zM2293 569l32 -5v-5h-27zM1339 564h27v-5h-27v5zM2335 564h27v-5h-27v5zM1607 542v-21h-11v-11h11v-16h-11v-26l-5 -11q5 0 5 -6q-5 0 -5 -5q5 0 5 -5h-32v43l-10 16v10q8 0 26 32h27zM1950 537h27v-96
h-49l-10 -6q-22 19 -22 38t22 43l26 -6q11 0 11 11h-11v5h11zM2143 537h26q0 -6 6 -16l-11 -5h-5l5 10h-5q-11 -5 -16 -5v16zM1264 532h6q5 0 5 -6l11 6h5v-22h38q12 0 16 -37h5l5 37h6q5 0 5 -5l32 11q0 -9 22 -22h5v6h-11q0 8 22 16v-11l10 5h11q0 -5 6 -16q-6 0 -6 -5h11
q21 27 53 27q23 -8 33 -27v-21h-54v-6q11 0 11 -5l10 5h33q-5 -16 -38 -27q-43 7 -43 38h-5q0 -22 -16 -22l5 -10l-11 -6h-16v6h11v5q-35 -5 -53 -16v11q0 4 5 32q-5 10 -5 16q5 0 5 5q-5 0 -5 6q5 0 5 5h-11q-20 -91 -43 -91v-5h-5l-11 5q0 -5 -5 -5l-5 10v16h16v16
q-15 43 -27 43q-5 0 -5 11h-6v-43h16v-5l-5 -11q5 0 5 -5q-5 0 -16 -6q-23 6 -32 33l5 10l-5 11l11 5q0 -5 5 -5v5q-5 0 -5 6l-11 -6h-11l6 11q-6 0 -6 5q16 0 16 16v6zM1650 516q8 -6 32 -6v-32h16q0 24 27 38h11q19 0 42 -22q18 15 43 22v-6l11 6q32 -22 32 -48h-53l5 -11
l27 5h16v-11q-8 0 -32 -16q-30 6 -49 22h-5q0 -11 -21 -22l-49 11l6 11q-11 0 -11 16h-11l6 -27v-5h-6q-5 0 -5 5l-11 -5h-5q-5 0 -5 5l-11 -5h-27q-4 0 -16 16q0 27 54 27q0 8 -22 16v-6q6 0 6 -5h-33v5q0 12 38 22zM2025 516v-6l10 6q33 -22 33 -48h-54l5 -11l27 5h16v-11
q-7 0 -32 -16q-33 0 -48 27v27q16 27 43 27zM2094 516v-6l11 6q32 -6 32 -16v-6h-10l-27 6l-6 -11q32 0 49 -16l5 11l-5 26h32v-26h5q2 26 16 26v-5l11 5h11q5 0 5 -5l11 5h21v-26h5v26h11q12 0 22 -5q9 5 21 5q0 -5 5 -5v5q11 -5 16 -5v-32l-5 -27q5 0 5 -5h-21
q-11 0 -11 10v6q0 5 6 5q-6 9 -6 27h-5q-11 -2 -11 -11v-37h-27v37h-5q0 -64 -27 -64q-5 0 -16 -5q-17 10 -27 10v11q12 0 22 5q10 -5 16 -5l11 16l-27 -5q-14 0 -32 21l-11 -16h5q0 5 6 5v-10h-11q-5 0 -5 5l-11 -5h-5v16q-11 -6 -16 -6l5 -10q-6 0 -16 -6q-48 6 -48 27h16
l26 -5v11q-34 0 -42 21q0 14 26 27zM2384 516v-6l10 6q27 -12 27 -43h5v37h27v-10h6q0 16 16 16q5 -11 5 -16l-21 -27v-32h-33v27h-53l5 -11l27 5h16v-11q-7 0 -32 -16q-33 0 -48 27v27q16 27 43 27zM1725 468l11 -6l32 6l10 -6v27l-10 -5h-16q-11 0 -11 16q-16 -6 -16 -32z
M1500 484h5v5l11 -5h5q0 10 -10 10q-11 -1 -11 -10zM1805 484h6v5l10 -5h11q0 10 -11 10h-5q-11 -1 -11 -10zM2009 484h5v5l11 -5h10q0 10 -10 10h-6q-10 -1 -10 -10zM2367 484h6v5l11 -5h10q0 10 -10 10h-6q-11 -1 -11 -10zM1880 441q9 -27 38 -27v-5q-15 -33 -22 -33
q0 -37 32 -37h11l16 11l6 -11v-11q0 -12 -27 -16l-22 11v-5q38 -16 43 -16q29 0 54 42q-7 27 -16 27h-16v-16h-16v11q0 7 16 16q37 0 37 -38v-10q-21 -24 -21 -27q8 0 75 64q19 16 37 16h11q91 -15 91 -37v-16h-16q0 37 -32 37q-7 -32 -16 -32h-6q0 21 -5 21q-10 -5 -16 -5
q0 11 16 11v10q-6 0 -16 6q-16 0 -97 -80h6q80 53 91 53q-91 -75 -145 -75q-43 0 -85 54v-6q9 -25 42 -53q-42 -15 -42 -43l-11 -5q-15 42 -43 42l-5 11q18 3 42 48v6h-5q0 -36 -86 -54q-37 0 -155 80q-5 0 -5 -5v-16h-6q-10 0 -10 11v5l5 11l-21 5q-22 -3 -22 -37h-16v16
q0 22 91 37h11q29 0 102 -75l10 -5v5q-8 0 -21 22v10q0 38 37 38q8 0 17 -16v-11h-17v16h-16q-10 -2 -10 -11v-26q6 -19 48 -32q32 7 32 16q-10 -6 -16 -6q-21 8 -21 16v11q1 11 10 11q2 -11 11 -11h11q32 0 32 37q-7 0 -22 33v5q22 0 43 27zM1420 435v-16h-11l-11 6
q0 -11 -10 -11v5q5 16 32 16zM1875 419q-6 -9 -6 -21h-5l-11 5q6 -9 6 -21h37q0 12 6 21l-11 -5h-5q0 21 -11 21zM1109 387q30 0 70 -102h5v22q0 5 -5 5q5 11 5 16q-4 28 -59 70h-5q-11 -2 -11 -11zM1623 376v-10l113 -64v5q-9 0 -81 69q-5 0 -16 6q-10 -6 -16 -6zM1077 371
q-9 -55 -27 -75v-21q0 -11 107 -113q0 -21 32 -26q19 0 27 53q-11 24 -16 59h-11q0 -16 -5 -16q-26 13 -48 70q-45 68 -59 69zM1869 344v-5h6v11h5v-11h6v16h-6q-11 -2 -11 -11zM1811 328v-5h21v5h-21zM1923 328v-5h21v5h-21zM1875 323q0 -14 -27 -43h11l10 5l6 -26h5l6 26
l10 -5h11q-27 29 -27 43h-5zM1002 194v-5q3 -16 37 -16v-16q-32 -3 -32 -16v-22l11 -16l27 22q8 0 32 -27q12 0 16 27h5q24 -22 27 -22l11 6q10 -6 16 -6v16q0 8 -102 97q-48 -11 -48 -22zM1136 71q3 -32 16 -32h5q0 22 11 22l21 -22v11q0 8 -21 27q-8 -6 -32 -6zM1222 77
l-6 -11q11 -13 11 -22h11q10 0 10 11q-2 11 -26 22zM1088 66v-5q1 -11 10 -11h6v5q0 11 -11 11h-5zM1013 44v-10h10q8 0 16 16l-5 11q-21 -8 -21 -17zM916 23q32 -5 32 -16h-53q0 13 21 16z" />
    <glyph glyph-name="nine" unicode="9" horiz-adv-x="891" 
d="M600 999q-51 127 -173 127q-119 0 -179 -97q-54 -85 -54 -221q0 -319 225 -319q129 0 233 86q0 297 -52 424zM761 136q-93 -146 -387 -146q-117 0 -260 52l8 34q109 -17 215 -17q178 0 252 119q63 102 63 320q-113 -78 -288 -78q-340 0 -340 388q0 165 91 268
q106 119 312 119q251 0 342 -146q88 -143 88 -456q0 -319 -96 -457z" />
    <glyph glyph-name="colon" unicode=":" horiz-adv-x="557" 
 />
    <glyph glyph-name="semicolon" unicode=";" horiz-adv-x="557" 
 />
    <glyph glyph-name="semicolon" unicode="&#x37e;" horiz-adv-x="557" 
 />
    <glyph glyph-name="less" unicode="&#x3c;" 
d="M763 1429l292 -662l-456 -212l-62 124q315 146 322 146l-234 540zM576 1328h2l49 -113v-3l-316 -139l60 -144l282 120h2q45 -96 45 -107l-277 -127l120 -271q-130 -65 -137 -65l-284 650q443 199 454 199zM126 722h5l251 -432h4l432 247h5q-69 -286 -73 -290l-439 -249
h-4l-256 434v2z" />
    <glyph glyph-name="greater" unicode="&#x3e;" 
d="M763 1429l292 -662l-456 -212l-62 124q315 146 322 146l-234 540zM576 1328h2l49 -113v-3l-316 -139l60 -144l282 120h2q45 -96 45 -107l-277 -127l120 -271q-130 -65 -137 -65l-284 650q443 199 454 199zM126 722h5l251 -432h4l432 247h5q-69 -286 -73 -290l-439 -249
h-4l-256 434v2z" />
    <glyph glyph-name="question" unicode="?" horiz-adv-x="954" 
d="M501 164q33 -33 33 -80q0 -45 -35 -78q-33 -33 -78 -33q-47 0 -80 33q-31 33 -31 78q0 47 31 80q33 33 80 33t80 -33zM380 319q6 170 158 353q149 180 149 332q0 147 -80 231q-71 76 -186 76q-125 0 -215 -90q-94 -93 -125 -258h-41q0 204 51 266q133 164 391 164
q162 0 267 -72q143 -98 143 -317q0 -185 -211 -369q-215 -189 -219 -316h-82z" />
    <glyph glyph-name="at" unicode="@" 
d="M763 1429l292 -662l-456 -212l-62 124q315 146 322 146l-234 540zM576 1328h2l49 -113v-3l-316 -139l60 -144l282 120h2q45 -96 45 -107l-277 -127l120 -271q-130 -65 -137 -65l-284 650q443 199 454 199zM126 722h5l251 -432h4l432 247h5q-69 -286 -73 -290l-439 -249
h-4l-256 434v2z" />
    <glyph glyph-name="A" unicode="A" horiz-adv-x="1540" 
d="M981 1415q0 -14 -13 -33q-9 -12 -31 -18l-13 -2q36 -40 53 -94q15 -38 15 -122v-7l-1 -52q41 44 54 51q36 28 63 42q99 52 213 52q98 0 159 -54q22 -24 26 -40q12 -28 12 -52v-1q0 -48 -51 -63l-18 -2q-31 0 -49 24q-5 11 -5 18q0 15 16 23l4 1q10 0 13 -13
q0 -11 -11 -11q-10 1 -10 6q-2 -1 -2 -4q0 -17 20 -23h5q22 0 38 26q3 8 3 16q0 29 -37 57q-49 32 -127 32q-47 0 -85 -13v-1h19q72 0 100 -23q29 -22 35 -43q4 -11 4 -21v-5q0 -26 -26 -45q-10 -6 -14 -6h-1v1q21 14 21 29l1 14q0 29 -15 41q-16 17 -45 26q-24 8 -55 8
q-51 0 -100 -16q20 2 39 2h5q49 0 82 -24q27 -22 27 -57q0 -11 -4 -22h-1v10q0 47 -32 61q-34 15 -77 15h-4q-71 0 -136 -47q-38 -27 -54 -79q-11 -35 -11 -68v-6q0 -77 54 -132q36 -29 68 -35v-1q-36 0 -78 33q-27 25 -33 36q-15 24 -15 27h-1v-1q7 -68 52 -144
q17 -30 61 -82l25 -27q-28 17 -72 57q-42 42 -51 57q-16 21 -25 39q-8 15 -13 29h-1q-19 -71 -19 -152v-5q0 -122 30 -204q20 -54 48 -111q13 -23 13 -25q-19 19 -35 43q-35 55 -59 121q-32 92 -32 168v21q-2 -41 -3 -85q0 -300 139 -487q16 -21 40 -46h-1q-21 12 -62 50
q-48 52 -71 91q-35 57 -58 118q-19 46 -35 117q-13 63 -13 85q-5 42 -5 120v18q0 60 10 102q-45 -28 -76 -35h-1q16 9 44 35q31 35 39 53q-44 -40 -77 -58q-33 -20 -89 -42q-43 -17 -98 -30v1q83 34 149 81q57 42 90 91q21 34 32 59q13 34 13 38q-89 -70 -204 -70
q-140 0 -206 109q-6 11 -6 13q10 -13 28 -30q68 -60 148 -60q97 0 175 67l4 4q-33 -21 -71 -35q-50 -17 -84 -17h-10q-53 0 -100 33q-21 17 -21 32q4 16 13 16h1q11 0 15 -10v-2q-2 -11 -10 -11h-1q-6 0 -9 6v-2q0 -28 73 -51q18 -3 31 -3h8q48 0 108 24q43 20 87 61
q23 24 23 26l-1 3q-46 -43 -71 -57q-28 -18 -49 -24v1q32 16 85 60q30 27 30 30q-18 34 -39 64q-25 30 -53 52q-38 -15 -78 -15q-35 0 -90 15q-55 11 -90 11q-78 0 -99 -51q-5 -13 -5 -25v-5q0 -25 20 -47q15 -12 29 -12h3q16 0 24 23v3l-1 6q-6 -6 -12 -6q-12 2 -12 11v2
q0 10 13 12h1q14 0 18 -22v-7q0 -29 -35 -39l-16 -2q-44 0 -72 49q-11 23 -11 43v5q0 36 30 69q21 19 40 26q22 10 47 15l5 1v1h-14q-77 0 -128 -44q-22 -23 -26 -33q-8 -13 -15 -34q-3 -16 -4 -16v3q0 69 76 115q47 25 122 25h6q59 0 135 -16l24 -1h18v1q-91 42 -181 42h-2
q-155 0 -252 -117q-42 -53 -54 -107q-3 -16 -3 -40q0 -89 45 -150q-29 19 -44 67q-12 40 -12 77q0 114 87 202l18 16q-77 -41 -118 -128q-23 -50 -23 -99v-7q0 -93 80 -168q23 -19 33 -23v-1q-27 5 -56 27q-85 67 -85 175q0 68 33 144q56 119 183 170q79 30 155 30
q115 0 247 -78l29 -18q11 4 25 18q13 18 13 37q0 27 -32 37l-11 1l-13 -2v1q0 4 11 11q11 6 22 6t27 -7v1q-17 25 -49 25q-25 0 -42 -22v1q15 32 45 42q14 5 27 5h6q48 0 67 -42q10 -24 10 -52v-1q0 -67 -38 -100l-4 -5q40 -35 59 -59q24 -31 24 -34h1q10 18 21 54
q13 50 13 100v7q0 66 -21 107q-10 15 -29 34q-24 20 -54 20h-14q-19 -1 -54 -29q38 46 49 46q16 7 36 7q17 0 75 -13q10 -1 18 -1q32 0 52 27z" />
    <glyph glyph-name="B" unicode="B" horiz-adv-x="1219" 
d="M858 1435l292 -662l-456 -212l-62 124q315 146 322 146l-234 540zM671 1334h2l49 -113v-3l-316 -139l60 -144l282 120h2q45 -96 45 -107l-277 -127l120 -271q-130 -65 -137 -65l-284 650q443 199 454 199zM221 728h5l251 -432h4l432 247h5q-69 -286 -73 -290l-439 -249
h-4l-256 434v2z" />
    <glyph glyph-name="C" unicode="C" 
d="M763 1429l292 -662l-456 -212l-62 124q315 146 322 146l-234 540zM576 1328h2l49 -113v-3l-316 -139l60 -144l282 120h2q45 -96 45 -107l-277 -127l120 -271q-130 -65 -137 -65l-284 650q443 199 454 199zM126 722h5l251 -432h4l432 247h5q-69 -286 -73 -290l-439 -249
h-4l-256 434v2z" />
    <glyph glyph-name="D" unicode="D" horiz-adv-x="1518" 
d="M913 1434h1q0 -15 -13 -34q-9 -12 -32 -18l-13 -1q36 -41 54 -96q15 -39 15 -124v-7l-1 -52q42 44 54 51q37 28 65 43q100 53 216 53q99 0 160 -55q23 -25 27 -41q12 -28 12 -52v-2q0 -48 -52 -63q-8 -2 -18 -2q-31 0 -50 24q-5 11 -5 18q0 16 17 24l4 1q10 0 13 -13v-1
q0 -11 -12 -11q-10 1 -10 6q-1 0 -1 -4q0 -17 20 -23h5q22 0 38 26q4 9 4 17q0 29 -38 57q-50 33 -129 33q-48 0 -86 -14h19q73 0 102 -23q29 -24 35 -44q4 -11 4 -21v-6q0 -26 -26 -45q-11 -6 -15 -6q21 14 21 30v14q0 29 -15 42q-15 17 -45 26q-24 8 -55 8q-53 0 -102 -16
q20 2 40 2h4q50 0 84 -24q27 -23 27 -58q0 -11 -4 -23h-1v10q0 48 -33 62q-34 15 -78 15h-4q-71 0 -137 -46q-38 -29 -55 -81q-11 -36 -11 -69v-6q0 -78 55 -133q36 -31 68 -36v-1q-36 0 -79 33q-27 26 -33 37q-15 24 -15 27h-1v-1q7 -68 52 -146q18 -30 62 -83l26 -27h-1
q-27 17 -72 57q-43 43 -52 58q-16 21 -26 40l-13 29h-1q-19 -72 -19 -154v-5q0 -123 31 -207q20 -55 49 -112q12 -24 12 -26q-19 19 -35 44q-36 56 -60 122q-32 94 -32 171v22q-3 -42 -3 -87q0 -304 140 -493q17 -21 41 -47h-1q-21 12 -63 51q-49 53 -71 92q-36 58 -59 119
q-19 47 -36 119q-13 64 -14 86q-4 43 -4 122v18q0 61 10 104q-46 -29 -77 -36h-1q17 9 44 35q32 36 40 54q-44 -40 -78 -58q-33 -21 -90 -43q-44 -18 -100 -31v1q84 35 152 83q57 42 90 92q22 34 33 60q13 34 13 38q-90 -71 -207 -71q-142 0 -208 110q-6 12 -6 14
q10 -14 28 -31q69 -60 150 -60q99 0 178 67l4 4q-34 -21 -72 -35q-51 -18 -85 -18h-10q-55 0 -102 34q-21 18 -21 33q3 16 13 16h1q11 0 15 -11v-2q-2 -11 -10 -11h-1q-6 0 -9 7v-2q0 -29 74 -52q18 -4 32 -4h8q48 0 109 25q44 21 88 62q24 24 24 26l-2 3q-46 -43 -72 -57
q-29 -18 -49 -25v1q32 17 86 61q30 28 30 30q-18 35 -40 65q-25 30 -53 53q-39 -16 -79 -16q-35 0 -92 16q-55 11 -91 11q-78 0 -100 -52q-5 -13 -5 -25v-5q0 -26 20 -48q16 -12 29 -12h4q16 0 24 24v3l-1 6q-6 -6 -12 -6q-12 2 -12 11v2q0 10 13 12h1q14 0 18 -23v-6
q0 -30 -35 -40l-17 -2q-44 0 -72 50q-11 23 -11 43v5q0 37 29 70q22 20 41 26q23 10 48 16l5 1l-14 1q-79 0 -130 -45q-23 -23 -26 -34q-9 -13 -15 -34q-3 -16 -4 -16h-1v3q0 70 78 116q47 26 123 26h7q59 0 136 -16l24 -1h19q-92 43 -184 43h-2q-157 0 -255 -118
q-43 -54 -55 -109q-3 -16 -3 -40q0 -90 46 -153h-1q-29 20 -44 69q-12 40 -12 78q0 115 88 204l18 17q-78 -42 -119 -130q-23 -51 -23 -100v-7q0 -95 80 -171q23 -19 33 -23v-1q-26 5 -56 28q-86 67 -86 176q0 70 33 147q57 120 186 172q80 31 157 31q117 0 250 -80l29 -18
q12 4 26 18q13 19 13 37q0 29 -33 38l-10 1l-14 -2v1q0 4 12 12q11 5 21 5q12 0 28 -6q-17 25 -49 25q-26 0 -43 -21q16 33 46 43q14 5 27 5h6q49 0 68 -42q10 -24 10 -53v-2q0 -67 -38 -101l-4 -5q40 -35 59 -60q25 -31 25 -34q11 18 21 55q14 50 14 101v7q0 67 -22 108
q-9 16 -28 35q-25 20 -55 20h-14q-20 -1 -55 -29q38 47 50 47q15 7 36 7q18 0 76 -13q10 -1 18 -1q33 0 52 27z" />
    <glyph glyph-name="E" unicode="E" horiz-adv-x="1151" 
d="M943 1091q113 0 141 -109q7 -32 7 -70q0 -109 -51 -168q-33 -38 -63 -57q-88 -55 -199 -55q-66 0 -159 26q-105 24 -175 24h-11q-140 0 -180 -100q-9 -27 -9 -46q0 -46 30 -86q31 -31 65 -31q35 0 48 42l1 8q-1 11 -3 11q-9 -11 -19 -11h-4q-21 3 -21 18v5q4 22 22 22h4
q22 0 32 -30q2 -9 2 -18v-4q0 -64 -81 -77l-16 -1q-87 0 -139 103q-16 42 -16 74q0 61 43 119q34 37 64 52q27 15 81 32l40 10v1h-29q-142 0 -238 -83q-49 -52 -60 -88q-21 -52 -21 -69h-2v9q0 127 142 214q90 48 237 48q111 0 252 -29q30 -3 63 -3q169 0 224 68
q19 35 19 62q0 51 -58 70l-19 2h-4q-13 0 -24 -3l-1 1q19 32 60 32h2q24 0 51 -11q-14 27 -56 42q-20 5 -33 5q-49 0 -82 -40v1q46 88 143 88zM215 545q0 -57 38 -98v1q-24 48 -24 81v2q0 93 101 149q55 26 126 26h8q87 0 230 -39q47 -9 90 -9q54 0 108 15v1q-27 -6 -60 -6
q-93 0 -245 46q-57 15 -158 15h-1q-146 0 -202 -123q-11 -33 -11 -61z" />
    <glyph glyph-name="F" unicode="F" horiz-adv-x="1079" 
d="M751 1478l292 -662l-456 -212l-62 124q315 146 322 146l-234 540zM564 1377h2l49 -113v-3l-316 -139l60 -144l282 120h2q45 -96 45 -107l-277 -127l120 -271q-130 -65 -137 -65l-284 650q443 199 454 199zM114 771h5l251 -432h4l432 247h5q-69 -286 -73 -290l-439 -249
h-4l-256 434v2z" />
    <glyph glyph-name="G" unicode="G" horiz-adv-x="1479" 
d="M913 1434h1q0 -15 -13 -34q-9 -12 -32 -18l-13 -1q36 -41 54 -96q15 -39 15 -124v-7l-1 -52q42 44 54 51q37 28 65 43q100 53 216 53q99 0 160 -55q23 -25 27 -41q12 -28 12 -52v-2q0 -48 -52 -63q-8 -2 -18 -2q-31 0 -50 24q-5 11 -5 18q0 16 17 24l4 1q10 0 13 -13v-1
q0 -11 -12 -11q-10 1 -10 6q-1 0 -1 -4q0 -17 20 -23h5q22 0 38 26q4 9 4 17q0 29 -38 57q-50 33 -129 33q-48 0 -86 -14h19q73 0 102 -23q29 -24 35 -44q4 -11 4 -21v-6q0 -26 -26 -45q-11 -6 -15 -6q21 14 21 30v14q0 29 -15 42q-15 17 -45 26q-24 8 -55 8q-53 0 -102 -16
q20 2 40 2h4q50 0 84 -24q27 -23 27 -58q0 -11 -4 -23h-1v10q0 48 -33 62q-34 15 -78 15h-4q-71 0 -137 -46q-38 -29 -55 -81q-11 -36 -11 -69v-6q0 -78 55 -133q36 -31 68 -36v-1q-36 0 -79 33q-27 26 -33 37q-15 24 -15 27h-1v-1q7 -68 52 -146q18 -30 62 -83l26 -27h-1
q-27 17 -72 57q-43 43 -52 58q-16 21 -26 40l-13 29h-1q-19 -72 -19 -154v-5q0 -123 31 -207q20 -55 49 -112q12 -24 12 -26q-19 19 -35 44q-36 56 -60 122q-32 94 -32 171v22q-3 -42 -3 -87q0 -304 140 -493q17 -21 41 -47h-1q-21 12 -63 51q-49 53 -71 92q-36 58 -59 119
q-19 47 -36 119q-13 64 -14 86q-4 43 -4 122v18q0 61 10 104q-46 -29 -77 -36h-1q17 9 44 35q32 36 40 54q-44 -40 -78 -58q-33 -21 -90 -43q-44 -18 -100 -31v1q84 35 152 83q57 42 90 92q22 34 33 60q13 34 13 38q-90 -71 -207 -71q-142 0 -208 110q-6 12 -6 14
q10 -14 28 -31q69 -60 150 -60q99 0 178 67l4 4q-34 -21 -72 -35q-51 -18 -85 -18h-10q-55 0 -102 34q-21 18 -21 33q3 16 13 16h1q11 0 15 -11v-2q-2 -11 -10 -11h-1q-6 0 -9 7v-2q0 -29 74 -52q18 -4 32 -4h8q48 0 109 25q44 21 88 62q24 24 24 26l-2 3q-46 -43 -72 -57
q-29 -18 -49 -25v1q32 17 86 61q30 28 30 30q-18 35 -40 65q-25 30 -53 53q-39 -16 -79 -16q-35 0 -92 16q-55 11 -91 11q-78 0 -100 -52q-5 -13 -5 -25v-5q0 -26 20 -48q16 -12 29 -12h4q16 0 24 24v3l-1 6q-6 -6 -12 -6q-12 2 -12 11v2q0 10 13 12h1q14 0 18 -23v-6
q0 -30 -35 -40l-17 -2q-44 0 -72 50q-11 23 -11 43v5q0 37 29 70q22 20 41 26q23 10 48 16l5 1l-14 1q-79 0 -130 -45q-23 -23 -26 -34q-9 -13 -15 -34q-3 -16 -4 -16h-1v3q0 70 78 116q47 26 123 26h7q59 0 136 -16l24 -1h19q-92 43 -184 43h-2q-157 0 -255 -118
q-43 -54 -55 -109q-3 -16 -3 -40q0 -90 46 -153h-1q-29 20 -44 69q-12 40 -12 78q0 115 88 204l18 17q-78 -42 -119 -130q-23 -51 -23 -100v-7q0 -95 80 -171q23 -19 33 -23v-1q-26 5 -56 28q-86 67 -86 176q0 70 33 147q57 120 186 172q80 31 157 31q117 0 250 -80l29 -18
q12 4 26 18q13 19 13 37q0 29 -33 38l-10 1l-14 -2v1q0 4 12 12q11 5 21 5q12 0 28 -6q-17 25 -49 25q-26 0 -43 -21q16 33 46 43q14 5 27 5h6q49 0 68 -42q10 -24 10 -53v-2q0 -67 -38 -101l-4 -5q40 -35 59 -60q25 -31 25 -34q11 18 21 55q14 50 14 101v7q0 67 -22 108
q-9 16 -28 35q-25 20 -55 20h-14q-20 -1 -55 -29q38 47 50 47q15 7 36 7q18 0 76 -13q10 -1 18 -1q33 0 52 27zM526 677v-4q0 -17 13 -30q-8 16 -8 28q0 28 28 47q20 13 51 13q29 0 79 -14q17 -3 30 -3q18 0 37 5v1q-8 -2 -16 -2h-6q-29 0 -79 15q-20 5 -50 5h-10
q-38 0 -59 -30q-10 -15 -10 -31zM857 394v-1v1z" />
    <glyph glyph-name="H" unicode="H" 
d="M763 1429l292 -662l-456 -212l-62 124q315 146 322 146l-234 540zM576 1328h2l49 -113v-3l-316 -139l60 -144l282 120h2q45 -96 45 -107l-277 -127l120 -271q-130 -65 -137 -65l-284 650q443 199 454 199zM126 722h5l251 -432h4l432 247h5q-69 -286 -73 -290l-439 -249
h-4l-256 434v2z" />
    <glyph glyph-name="I" unicode="I" horiz-adv-x="657" 
d="M444 1420h1q0 -14 -13 -33q-10 -13 -31 -18l-13 -2q38 -43 53 -94q15 -37 15 -125v-4q0 -80 -6 -118l-26 -233q-9 -22 -16 -53q-12 -61 -12 -122v-12q0 -121 33 -206q17 -46 41 -96l17 -33q-14 13 -27 31q-43 66 -62 119q-37 96 -37 190l1 11v2h-1q-3 -52 -3 -86
q0 -255 102 -430q20 -34 52 -74l24 -27q-21 11 -66 54q-48 53 -73 97q-34 57 -63 139q-13 38 -25 90q-12 64 -12 84q-2 0 -5 122q0 116 32 176l9 19v1q-4 -9 -32 -38q-91 -82 -256 -122v1q81 34 146 78q73 55 106 115q14 24 29 66q66 210 66 323v5q0 73 -26 117
q-34 51 -76 51h-3q-35 0 -72 -32v1q38 45 48 45q16 8 37 8q18 0 68 -12q12 -2 24 -2q34 0 52 27zM361 626v-1h1v1h-1z" />
    <glyph glyph-name="J" unicode="J" 
d="M763 1429l292 -662l-456 -212l-62 124q315 146 322 146l-234 540zM576 1328h2l49 -113v-3l-316 -139l60 -144l282 120h2q45 -96 45 -107l-277 -127l120 -271q-130 -65 -137 -65l-284 650q443 199 454 199zM126 722h5l251 -432h4l432 247h5q-69 -286 -73 -290l-439 -249
h-4l-256 434v2z" />
    <glyph glyph-name="K" unicode="K" 
d="M763 1429l292 -662l-456 -212l-62 124q315 146 322 146l-234 540zM576 1328h2l49 -113v-3l-316 -139l60 -144l282 120h2q45 -96 45 -107l-277 -127l120 -271q-130 -65 -137 -65l-284 650q443 199 454 199zM126 722h5l251 -432h4l432 247h5q-69 -286 -73 -290l-439 -249
h-4l-256 434v2z" />
    <glyph glyph-name="L" unicode="L" 
d="M763 1429l292 -662l-456 -212l-62 124q315 146 322 146l-234 540zM576 1328h2l49 -113v-3l-316 -139l60 -144l282 120h2q45 -96 45 -107l-277 -127l120 -271q-130 -65 -137 -65l-284 650q443 199 454 199zM126 722h5l251 -432h4l432 247h5q-69 -286 -73 -290l-439 -249
h-4l-256 434v2z" />
    <glyph glyph-name="M" unicode="M" horiz-adv-x="1827" 
d="M351 806h31q14 0 14 -28v-17h25v-14h-25v-70q0 -14 21 -14q4 0 4 -4v-10h-32q-14 0 -17 24v105q0 18 -18 18q-7 0 -7 3v4zM11 761h28q14 0 32 -56l10 -18l28 60q0 7 -14 10l4 4h24l4 -4q-42 -105 -49 -112q-7 7 -42 88q-7 17 -18 17h-7l-3 4v3zM137 761h25q21 0 21 -28
v-60q0 -17 10 -17h11l3 -4l-3 -3h-32q-14 0 -14 24v60q0 17 -24 17v7zM235 761h32l3 -4v-3l-3 -4h-28q-18 0 -18 -14q0 -10 42 -31q14 -11 14 -28q0 -21 -28 -28h-24l-4 3l4 4h14q21 0 21 17q0 11 -35 25q-25 17 -25 35q0 24 35 28zM288 761h28q17 0 17 -35v-56
q4 -14 11 -14h10l4 -4l-4 -3h-31q-11 0 -14 21v63q0 17 -18 17q-3 0 -3 4v7zM536 684h53q31 0 31 -46v-178q0 -46 35 -56q11 0 11 -4v-7l-4 -3h-59q-25 0 -28 31v4q-32 -35 -60 -35h-7q-84 0 -101 77l-4 17v14q0 46 46 81q24 17 56 17q42 0 70 -31v77q0 31 -21 31h-18l-3 4
v3zM823 617h4q0 -28 -18 -38l-7 -4q53 -28 53 -84v-3q0 -67 -70 -95q-11 -3 -28 -3h-4q-63 0 -91 66q-7 14 -7 32v3q0 67 74 95l49 7q45 14 45 24zM281 596h10q53 0 70 -59q4 -4 4 -21v-77q0 -35 28 -35h17v-14h-59q-28 7 -28 49v84q0 42 -49 45h-4q-49 -3 -59 -35l-4 -7
v-136h-38l-4 3v158q-3 24 -24 24h-18l-3 4v14l3 3h53q21 0 31 -24v-4q35 28 74 28zM1005 596h10q53 0 70 -56l4 -17v-77q0 -42 24 -42h18l3 -4v-7l-3 -3h-53q-31 7 -31 42v84q0 35 -28 49q-14 3 -25 3q-42 0 -59 -35l-4 -10v-130l-3 -3h-35l-3 3v151q0 31 -21 31h-21l-4 4
v14l4 3h52q18 0 31 -24q35 24 74 24zM11 596h49q21 0 32 -24l3 -21v-112q0 -35 25 -35h17l4 -4v-7l-4 -3h-56q-28 0 -31 52v109q0 24 -21 24h-18l-3 4v14zM1208 596h7q59 0 84 -49q3 -17 3 -35q0 -56 -49 -77q-14 -3 -35 -7l-35 4q25 -28 56 -28h32l3 -4v-7l-3 -3h-60
q-45 0 -73 45q-18 35 -18 81q0 56 67 77zM1372 596h67l3 -3v-14l-3 -4h-60q-21 0 -28 -14v-7q0 -21 67 -52q38 -25 38 -56q0 -42 -56 -56h-45l-4 3v7l4 4h28q38 3 38 28q0 28 -59 49q-46 31 -46 56v14q11 45 56 45zM1463 596h53q28 0 31 -42v-115q0 -35 32 -35h14l3 -4v-7
l-3 -3h-60q-28 7 -28 42v108q0 35 -21 35h-21v21zM1649 596h52q42 0 60 -45v-25q63 11 63 32h3v-14q0 -32 -66 -39v-73q0 -32 31 -32v-7l-3 -3h-39q-21 0 -28 35q-35 -32 -66 -32h-4q-42 0 -52 39v7q0 52 105 77l17 3v14q0 42 -35 42h-42v18zM1169 512q0 -45 35 -59l7 -4
q28 0 42 42q7 11 7 25q0 42 -35 59h-14q-31 0 -42 -56v-7zM452 502v-14q0 -56 42 -70l21 -4h7q32 0 53 42v74q-18 42 -60 42t-59 -49zM704 491v-3q0 -49 35 -70q7 -4 18 -4q35 0 49 56v25q-11 70 -53 70q-28 0 -45 -42q-4 -14 -4 -32zM1645 449v-7q4 -24 28 -24q18 0 49 28
v52q-77 -14 -77 -49z" />
    <glyph glyph-name="N" unicode="N" horiz-adv-x="1554" 
d="M1099 1406q100 0 206 -124q111 -166 111 -415v-18q0 -246 -110 -470q-115 -206 -356 -301q-140 -52 -288 -52h-3q-350 0 -506 279l-8 19q21 -31 76 -82q104 -94 261 -129q42 -7 82 -7h17q224 0 414 158l12 12h-1q-57 -38 -132 -70q-145 -57 -256 -57q-150 0 -263 88
q-40 39 -40 65v7q0 30 29 39h5q35 -8 35 -30q-6 -28 -25 -28h-5q-8 0 -20 15v-1q0 -74 186 -128q48 -8 79 -8q127 0 277 64q79 35 190 132q88 88 114 129l15 20h-1q-86 -96 -136 -134q-120 -98 -217 -130q98 58 213 154q90 86 109 116q65 84 89 167q45 139 45 291
q0 160 -49 262q-20 34 -55 72q-62 65 -151 65h-29l-8 -1v1q44 30 94 30z" />
    <glyph glyph-name="O" unicode="O" horiz-adv-x="1614" 
d="M1003 1426h14q209 0 340 -120q43 -44 56 -83q25 -64 25 -110v-10q0 -97 -104 -131q-24 -6 -43 -6h-4q-72 0 -108 57q-8 17 -8 30v8q0 31 37 47l9 1q19 0 25 -27v-4q0 -19 -23 -23q-22 4 -22 15h-1l-3 -11q0 -16 16 -33q19 -16 38 -16q43 0 77 49q13 21 13 41
q0 78 -106 141q-101 55 -253 55q-105 0 -184 -29v-1h58q156 0 222 -66q40 -37 50 -66q15 -35 15 -62q0 -68 -64 -109q-15 -7 -26 -8v1q43 32 43 52q4 13 4 44q0 62 -37 93q-41 41 -126 60q-38 7 -76 7h-19q-99 0 -209 -33v-1h2q46 4 88 5q121 0 195 -61q48 -47 48 -117
q0 -24 -8 -46h-2v22q0 102 -71 131q-28 15 -76 25q-67 9 -96 9q-147 0 -286 -92q-92 -64 -126 -170q-28 -83 -28 -163v-9q0 -173 122 -292q74 -60 141 -72v-2h-2q-72 0 -159 65q-60 54 -76 82q-26 39 -36 61h-1v-2q7 -89 65 -224q33 -70 87 -149q46 -67 128 -156l21 -20h-1
q-61 37 -149 117q-66 61 -105 110q-50 66 -74 114l-131 299l41 295q80 71 80 82q42 60 128 149q134 122 275 181q187 76 380 76z" />
    <glyph glyph-name="P" unicode="P" 
d="M763 1429l292 -662l-456 -212l-62 124q315 146 322 146l-234 540zM576 1328h2l49 -113v-3l-316 -139l60 -144l282 120h2q45 -96 45 -107l-277 -127l120 -271q-130 -65 -137 -65l-284 650q443 199 454 199zM126 722h5l251 -432h4l432 247h5q-69 -286 -73 -290l-439 -249
h-4l-256 434v2z" />
    <glyph glyph-name="Q" unicode="Q" 
d="M763 1429l292 -662l-456 -212l-62 124q315 146 322 146l-234 540zM576 1328h2l49 -113v-3l-316 -139l60 -144l282 120h2q45 -96 45 -107l-277 -127l120 -271q-130 -65 -137 -65l-284 650q443 199 454 199zM126 722h5l251 -432h4l432 247h5q-69 -286 -73 -290l-439 -249
h-4l-256 434v2z" />
    <glyph glyph-name="R" unicode="R" horiz-adv-x="1283" 
d="M788 1234h1q0 -13 -12 -29q-8 -11 -27 -16l-11 -1q31 -35 46 -82q13 -34 13 -107v-51q35 38 46 44q32 24 56 37q86 45 186 45q85 0 138 -47q19 -21 23 -35q10 -24 10 -45v-2q0 -41 -44 -54l-16 -2q-27 0 -43 21q-5 10 -5 16q0 13 15 20l3 1q9 0 11 -11v-1q0 -9 -9 -9
q-9 1 -9 5q-1 0 -1 -3q0 -15 17 -20l4 -1q20 0 33 23q3 7 3 14q0 25 -32 50q-43 28 -111 28q-41 0 -74 -12h16q63 0 88 -20t30 -38q3 -9 3 -18v-5q0 -22 -22 -39q-9 -5 -13 -5v1q18 12 18 25l1 12q0 25 -13 36q-14 15 -39 23q-21 6 -48 6q-45 0 -88 -13v-1q18 2 35 2h4
q43 0 72 -20q23 -20 23 -50q0 -10 -3 -20h-1v9q0 41 -29 53q-29 13 -67 13h-3q-62 0 -119 -40q-32 -24 -46 -69q-10 -31 -10 -60v-5q0 -67 47 -115q31 -26 59 -31v-1q-31 0 -68 29q-23 22 -28 32q-14 20 -14 23v-1q6 -58 45 -125q15 -26 53 -72l22 -23h-1q-23 15 -62 50
q-36 36 -45 49q-13 18 -22 34q-6 13 -11 26h-1q-16 -63 -16 -133v-4q0 -106 26 -179q18 -47 42 -96q11 -20 11 -22q-16 16 -30 37q-31 48 -52 106q-27 81 -27 147v18h-1q-2 -36 -2 -74q0 -262 121 -425q14 -18 34 -40q-18 10 -54 44q-42 45 -62 79q-30 50 -50 103
q-17 40 -31 102q-11 55 -12 74q-3 37 -3 105v16q0 52 8 89q-39 -25 -67 -31q14 8 38 30q27 31 34 47q-38 -35 -67 -51q-29 -17 -78 -37q-38 -14 -86 -26v1q73 30 131 71q50 36 78 79q19 30 28 52q11 29 11 32q-77 -61 -177 -61q-123 0 -180 95q-5 11 -5 12q9 -11 24 -26
q60 -52 130 -52q84 0 152 58l4 3q-29 -18 -62 -30q-44 -15 -74 -15h-8q-47 0 -88 29q-18 15 -18 28q3 14 11 14h2q9 0 12 -9v-2q-2 -10 -9 -10q-5 0 -8 6v-2q0 -24 64 -44q15 -3 27 -3h7q42 0 94 21q38 18 76 53q20 21 20 23l-1 2q-40 -37 -62 -49q-25 -15 -43 -21
q28 15 75 53q25 24 25 26q-15 30 -34 56q-22 26 -46 45q-33 -13 -68 -13q-30 0 -79 13q-47 10 -78 10q-68 0 -86 -45q-5 -11 -5 -21v-5q0 -22 18 -41q13 -10 25 -10h3q14 0 21 20v3l-1 5q-5 -5 -11 -5q-10 1 -10 10v1q0 9 12 10q12 0 16 -19v-6q0 -25 -31 -34l-14 -1
q-38 0 -62 42q-10 20 -10 37v5q0 32 26 60q19 17 35 23q19 8 41 13l4 1l-11 1q-68 0 -112 -39q-20 -20 -23 -29q-7 -11 -13 -30q-3 -13 -4 -13v2q0 61 67 101q41 22 106 22h5q52 0 118 -14l21 -1h16q-80 37 -158 37h-2q-135 0 -220 -101q-36 -47 -47 -94q-3 -14 -3 -35
q0 -77 40 -131h-1q-25 16 -38 59q-10 34 -10 67q0 99 76 176l15 14q-67 -36 -103 -112q-19 -43 -19 -86v-6q0 -81 69 -147q20 -16 29 -20v-1q-23 5 -49 24q-74 58 -74 152q0 60 29 126q48 104 159 148q69 27 135 27q101 0 216 -69l25 -15q10 3 22 15q11 16 11 33
q0 24 -28 32l-9 1l-12 -2v1q0 3 10 10q10 5 19 5q10 0 24 -6v1q-15 21 -43 21q-22 0 -37 -19v1q14 28 40 37q12 4 23 4h6q41 0 58 -36q8 -21 8 -45v-2q0 -58 -32 -87l-4 -4q35 -31 51 -52q22 -27 22 -29q9 15 18 47q12 43 12 87v6q0 57 -19 93q-8 13 -24 30q-21 17 -48 17
h-11q-18 -1 -48 -25q33 40 43 40q13 6 31 6q15 0 66 -11q8 -1 15 -1q28 0 45 24z" />
    <glyph glyph-name="S" unicode="S" horiz-adv-x="1085" 
d="M485 1190q147 0 316 -107q36 -21 79 -54q170 -137 170 -316q0 -188 -182 -267q-23 -8 -29 -9q19 12 44 34q38 39 49 62q13 20 26 54q21 68 21 127q0 87 -57 172q-48 87 -175 157q-122 65 -239 65h-13q-158 0 -270 -110q-43 -46 -60 -79q-15 -27 -24 -54q-12 -33 -12 -73
q0 -106 54 -179v-1q-36 25 -55 89q-11 46 -11 83q0 137 104 242l21 19q-28 -11 -71 -51q-43 -46 -58 -77q-39 -71 -39 -143v-9q0 -112 96 -202q23 -19 37 -27v-1q-34 8 -72 38q-95 80 -95 204q0 89 44 183q67 132 210 192q95 38 191 38z" />
    <glyph glyph-name="T" unicode="T" horiz-adv-x="974" 
d="M385 -9v1144h-165q-228 0 -228 -211h-37v138q0 146 156 146h851v-73h-412v-1148h-1q-4 -125 -104 -158l-38 -3h-183l-6 6v62l6 6h79q68 0 82 91z" />
    <glyph glyph-name="U" unicode="U" horiz-adv-x="1501" 
d="M913 1434h1q0 -15 -13 -34q-9 -12 -32 -18l-13 -1q36 -41 54 -96q15 -39 15 -124v-7l-1 -52q42 44 54 51q37 28 65 43q100 53 216 53q99 0 160 -55q23 -25 27 -41q12 -28 12 -52v-2q0 -48 -52 -63q-8 -2 -18 -2q-31 0 -50 24q-5 11 -5 18q0 16 17 24l4 1q10 0 13 -13v-1
q0 -11 -12 -11q-10 1 -10 6q-1 0 -1 -4q0 -17 20 -23h5q22 0 38 26q4 9 4 17q0 29 -38 57q-50 33 -129 33q-48 0 -86 -14h19q73 0 102 -23q29 -24 35 -44q4 -11 4 -21v-6q0 -26 -26 -45q-11 -6 -15 -6q21 14 21 30v14q0 29 -15 42q-15 17 -45 26q-24 8 -55 8q-53 0 -102 -16
q20 2 40 2h4q50 0 84 -24q27 -23 27 -58q0 -11 -4 -23h-1v10q0 48 -33 62q-34 15 -78 15h-4q-71 0 -137 -46q-38 -29 -55 -81q-11 -36 -11 -69v-6q0 -78 55 -133q36 -31 68 -36v-1q-36 0 -79 33q-27 26 -33 37q-15 24 -15 27h-1v-1q7 -68 52 -146q18 -30 62 -83l26 -27h-1
q-27 17 -72 57q-43 43 -52 58q-16 21 -26 40l-13 29h-1q-19 -72 -19 -154v-5q0 -123 31 -207q20 -55 49 -112q12 -24 12 -26q-19 19 -35 44q-36 56 -60 122q-32 94 -32 171v22q-3 -42 -3 -87q0 -304 140 -493q17 -21 41 -47h-1q-21 12 -63 51q-49 53 -71 92q-36 58 -59 119
q-19 47 -36 119q-13 64 -14 86q-4 43 -4 122v18q0 61 10 104q-46 -29 -77 -36h-1q17 9 44 35q32 36 40 54q-44 -40 -78 -58q-33 -21 -90 -43q-44 -18 -100 -31v1q84 35 152 83q57 42 90 92q22 34 33 60q13 34 13 38q-90 -71 -207 -71q-142 0 -208 110q-6 12 -6 14
q10 -14 28 -31q69 -60 150 -60q99 0 178 67l4 4q-34 -21 -72 -35q-51 -18 -85 -18h-10q-55 0 -102 34q-21 18 -21 33q3 16 13 16h1q11 0 15 -11v-2q-2 -11 -10 -11h-1q-6 0 -9 7v-2q0 -29 74 -52q18 -4 32 -4h8q48 0 109 25q44 21 88 62q24 24 24 26l-2 3q-46 -43 -72 -57
q-29 -18 -49 -25v1q32 17 86 61q30 28 30 30q-18 35 -40 65q-25 30 -53 53q-39 -16 -79 -16q-35 0 -92 16q-55 11 -91 11q-78 0 -100 -52q-5 -13 -5 -25v-5q0 -26 20 -48q16 -12 29 -12h4q16 0 24 24v3l-1 6q-6 -6 -12 -6q-12 2 -12 11v2q0 10 13 12h1q14 0 18 -23v-6
q0 -30 -35 -40l-17 -2q-44 0 -72 50q-11 23 -11 43v5q0 37 29 70q22 20 41 26q23 10 48 16l5 1l-14 1q-79 0 -130 -45q-23 -23 -26 -34q-9 -13 -15 -34q-3 -16 -4 -16h-1v3q0 70 78 116q47 26 123 26h7q59 0 136 -16l24 -1h19q-92 43 -184 43h-2q-157 0 -255 -118
q-43 -54 -55 -109q-3 -16 -3 -40q0 -90 46 -153h-1q-29 20 -44 69q-12 40 -12 78q0 115 88 204l18 17q-78 -42 -119 -130q-23 -51 -23 -100v-7q0 -95 80 -171q23 -19 33 -23v-1q-26 5 -56 28q-86 67 -86 176q0 70 33 147q57 120 186 172q80 31 157 31q117 0 250 -80l29 -18
q12 4 26 18q13 19 13 37q0 29 -33 38l-10 1l-14 -2v1q0 4 12 12q11 5 21 5q12 0 28 -6q-17 25 -49 25q-26 0 -43 -21q16 33 46 43q14 5 27 5h6q49 0 68 -42q10 -24 10 -53v-2q0 -67 -38 -101l-4 -5q40 -35 59 -60q25 -31 25 -34q11 18 21 55q14 50 14 101v7q0 67 -22 108
q-9 16 -28 35q-25 20 -55 20h-14q-20 -1 -55 -29q38 47 50 47q15 7 36 7q18 0 76 -13q10 -1 18 -1q33 0 52 27z" />
    <glyph glyph-name="V" unicode="V" 
d="M763 1429l292 -662l-456 -212l-62 124q315 146 322 146l-234 540zM576 1328h2l49 -113v-3l-316 -139l60 -144l282 120h2q45 -96 45 -107l-277 -127l120 -271q-130 -65 -137 -65l-284 650q443 199 454 199zM126 722h5l251 -432h4l432 247h5q-69 -286 -73 -290l-439 -249
h-4l-256 434v2z" />
    <glyph glyph-name="W" unicode="W" horiz-adv-x="2030" 
d="M128 870h10q4 -2 4 -8v-6h6l1 -1v-2l-1 -1h-6v-21q0 -5 6 -5q1 0 1 -1v-2l-1 -1h-8q-5 0 -5 7v33q0 5 -8 5v2zM26 856h9q3 0 12 -23l8 19v2h-3l-1 1l1 1h8v-1h1q-13 -31 -15 -33h-1q-2 3 -12 26q-1 4 -6 4q-2 0 -2 1v2zM64 856h8q5 0 5 -11v-16q0 -5 7 -5l1 -1l-1 -1h-9
q-5 1 -5 7v17q0 6 -5 6q-2 0 -2 1v2zM92 856h11l1 -1v-2l-1 -1h-9q-4 0 -5 -2v-1q0 -4 14 -10q3 -4 3 -7v-2q0 -6 -9 -8h-7l-1 1l1 1h4q5 0 6 5q0 4 -13 10q-4 4 -4 9q0 6 9 8zM109 856h8q5 0 6 -7v-19q0 -6 7 -6v-1l-1 -1h-9q-5 0 -5 7v18q0 5 -5 5q-2 0 -2 1v2zM183 833
h16q9 0 9 -11v-54q0 -17 12 -19q2 0 2 -1v-2l-1 -1h-15q-11 0 -11 10q-9 -10 -20 -10q-20 0 -28 15q-3 6 -3 12v4q0 22 24 30l7 1q12 0 20 -9v21q0 11 -8 11h-4l-1 1v1zM269 813h1q0 -10 -6 -12v-1q14 -9 14 -24v-3q0 -19 -22 -28l-8 -1q-18 0 -27 21q-2 4 -2 8v3
q0 20 23 28q22 0 27 9zM108 807h2q15 0 21 -16l1 -8v-23q0 -11 8 -11h5l1 -1v-2l-1 -1h-16q-8 0 -10 12v25q0 12 -9 15q-2 1 -5 1h-3q-17 -3 -17 -13v-39l-1 -1h-11l-1 1v46q0 9 -9 9h-3l-1 1v4l1 1h15q7 0 10 -8q9 8 23 8zM326 807h1q17 0 22 -18v-27q0 -13 8 -13h5l1 -1
v-2l-1 -1h-16q-10 0 -10 16v23q-1 14 -13 14h-3q-12 0 -17 -9q-1 -2 -1 -6v-37l-1 -1h-11l-1 1v47q-1 8 -7 8h-5l-1 1v4l1 1h16q5 0 9 -8q10 8 24 8zM26 807h15q9 0 10 -13v-37q1 -8 8 -8h5l1 -1v-2l-1 -1h-15q-7 0 -10 7l-1 6v32q0 11 -8 11h-4l-1 1v4zM385 807h2
q19 0 26 -17l1 -8v-2q-3 -23 -23 -23h-4l-9 1q6 -9 17 -9h9l1 -1v-2l-1 -1h-15q-30 0 -30 35v4q0 15 20 22q2 1 6 1zM435 807h19l1 -1v-4l-1 -1h-15q-11 0 -11 -7t22 -16q9 -8 9 -14v-6q0 -6 -12 -12l-8 -1h-10l-1 1v2l1 1h8q12 1 12 7v2q0 7 -16 14q-16 8 -16 20
q4 14 15 14zM462 807h15q9 0 10 -13v-37q1 -8 8 -8h5l1 -1v-2l-1 -1h-15q-7 0 -10 7l-1 6v32q0 11 -9 11h-3l-1 1v4zM517 807h16q12 0 17 -14l1 -6v-1h1q18 3 18 9h1v-3q0 -9 -15 -12q-5 0 -5 -1v-20q0 -10 5 -10l4 -1v-2l-1 -1h-9q-7 0 -10 7q0 3 -1 3q-9 -10 -21 -10
q-15 2 -15 14q0 16 30 23l6 1v2q0 16 -9 16h-6q-8 0 -8 1v4zM373 782q0 -15 12 -19l1 -1q12 0 14 20q-2 19 -14 19q-9 0 -12 -15zM158 776q0 -24 20 -24q12 0 17 14v20q-4 14 -18 14q-16 0 -18 -21zM234 775q0 -16 11 -23h4q12 0 16 19v5q0 14 -12 20l-4 1q-12 0 -15 -19v-3
zM516 762q2 -9 8 -9t15 9v15q-23 -3 -23 -15zM235 725q29 0 65 -13q45 -19 70 -67q14 -30 14 -53v-8q0 -48 -52 -104q-34 -28 -57 -42q-50 -32 -111 -59q-50 -33 -50 -77q0 -46 55 -69q16 -6 28 -6h93l1 -1v-29l-1 -1h-105q-34 0 -75 17q-19 8 -41 28q-35 37 -37 47
q-7 9 -7 60q0 36 37 82q27 29 41 37q25 18 49 30q62 29 109 65q33 27 33 60q0 37 -50 51q-12 3 -24 3h-158l-1 1v46l1 1h152zM660 707h2q109 0 190 -82q69 -77 69 -175q0 -107 -83 -187q-41 -35 -74 -48q-49 -21 -101 -21h-2q-110 0 -190 82q-27 30 -43 61q-26 56 -26 109v9
q0 87 62 162q31 33 46 42q69 48 150 48zM1209 707h2q103 0 183 -75q76 -79 76 -181t-76 -181q-80 -76 -183 -76h-3q-103 0 -183 76q-75 78 -75 181q0 102 76 181q80 75 183 75zM525 458v-10q0 -72 39 -134q44 -58 96 -58h5q43 0 83 43q52 64 52 155q0 81 -44 144
q-42 53 -94 53q-58 0 -102 -66q-35 -60 -35 -127zM1073 453q0 -85 47 -148q19 -22 33 -31q29 -18 54 -18h6q50 0 92 55q43 62 43 142q0 72 -35 132q-26 43 -71 60q-17 6 -31 6q-60 0 -105 -69q-33 -59 -33 -129zM1761 653q-24 60 -81 60q-56 0 -84 -46q-25 -40 -25 -103
q0 -150 105 -150q61 0 109 40q0 140 -24 199zM1837 248q-44 -68 -182 -68q-55 0 -122 24l4 16q51 -8 101 -8q83 0 118 56q29 48 29 150q-53 -36 -135 -36q-159 0 -159 182q0 77 43 125q49 56 146 56q118 0 160 -68t42 -214q0 -150 -45 -215z" />
    <glyph glyph-name="X" unicode="X" 
d="M763 1429l292 -662l-456 -212l-62 124q315 146 322 146l-234 540zM576 1328h2l49 -113v-3l-316 -139l60 -144l282 120h2q45 -96 45 -107l-277 -127l120 -271q-130 -65 -137 -65l-284 650q443 199 454 199zM126 722h5l251 -432h4l432 247h5q-69 -286 -73 -290l-439 -249
h-4l-256 434v2z" />
    <glyph glyph-name="Y" unicode="Y" 
d="M763 1429l292 -662l-456 -212l-62 124q315 146 322 146l-234 540zM576 1328h2l49 -113v-3l-316 -139l60 -144l282 120h2q45 -96 45 -107l-277 -127l120 -271q-130 -65 -137 -65l-284 650q443 199 454 199zM126 722h5l251 -432h4l432 247h5q-69 -286 -73 -290l-439 -249
h-4l-256 434v2z" />
    <glyph glyph-name="Z" unicode="Z" horiz-adv-x="1124" 
d="M796 1432l292 -662l-456 -212l-62 124q315 146 322 146l-234 540zM609 1331h2l49 -113v-3l-316 -139l60 -144l282 120h2q45 -96 45 -107l-277 -127l120 -271q-130 -65 -137 -65l-284 650q443 199 454 199zM159 725h5l251 -432h4l432 247h5q-69 -286 -73 -290l-439 -249
h-4l-256 434v2z" />
    <glyph glyph-name="bracketleft" unicode="[" 
d="M763 1429l292 -662l-456 -212l-62 124q315 146 322 146l-234 540zM576 1328h2l49 -113v-3l-316 -139l60 -144l282 120h2q45 -96 45 -107l-277 -127l120 -271q-130 -65 -137 -65l-284 650q443 199 454 199zM126 722h5l251 -432h4l432 247h5q-69 -286 -73 -290l-439 -249
h-4l-256 434v2z" />
    <glyph glyph-name="backslash" unicode="\" 
d="M763 1429l292 -662l-456 -212l-62 124q315 146 322 146l-234 540zM576 1328h2l49 -113v-3l-316 -139l60 -144l282 120h2q45 -96 45 -107l-277 -127l120 -271q-130 -65 -137 -65l-284 650q443 199 454 199zM126 722h5l251 -432h4l432 247h5q-69 -286 -73 -290l-439 -249
h-4l-256 434v2z" />
    <glyph glyph-name="bracketright" unicode="]" 
d="M763 1429l292 -662l-456 -212l-62 124q315 146 322 146l-234 540zM576 1328h2l49 -113v-3l-316 -139l60 -144l282 120h2q45 -96 45 -107l-277 -127l120 -271q-130 -65 -137 -65l-284 650q443 199 454 199zM126 722h5l251 -432h4l432 247h5q-69 -286 -73 -290l-439 -249
h-4l-256 434v2z" />
    <glyph glyph-name="asciicircum" unicode="^" horiz-adv-x="1014" 
 />
    <glyph glyph-name="underscore" unicode="_" horiz-adv-x="1024" 
d="M0 -100h1024v-60h-1024v60z" />
    <glyph glyph-name="grave" unicode="`" horiz-adv-x="1024" 
d="M673 1079h-69l-330 202q-31 20 -46.5 40t-15.5 42q0 31 20.5 51t53.5 20q20 0 40.5 -12t55.5 -47z" />
    <glyph glyph-name="a" unicode="a" horiz-adv-x="897" 
d="M202 912h234q50 0 117 -27q98 -44 139 -137q11 -27 17 -53q9 -43 9 -67l1 -26q163 34 192 42q61 22 81 63q10 21 10 38v3h1q12 -29 12 -57q0 -73 -79 -127q-24 -16 -53 -26q-23 -7 -63 -13l-101 -18v-316q0 -44 15 -87q8 -19 24 -36q22 -18 45 -18h46l1 -1v-52l-1 -1
h-158q-92 0 -128 99q-7 15 -14 48l-2 12q-152 -153 -311 -153q-58 0 -117 22q-20 10 -41 25q-77 62 -77 148v4q0 63 42 132q35 53 100 97q41 28 89 51q57 28 139 53q64 18 94 18q34 5 78 13v71q0 47 -22 108q-8 17 -22 38q-18 25 -50 35q-6 3 -52 4l-195 6l-1 1v83zM201 249
v-1q0 -50 32 -97q32 -39 86 -39q43 0 90 26l134 100v242q-84 -16 -149 -38q-82 -27 -113 -52q-33 -26 -53 -55q-27 -42 -27 -86z" />
    <glyph glyph-name="b" unicode="b" horiz-adv-x="1116" 
d="M424 165q84 -111 220 -111q120 0 184 110q57 99 57 267q0 377 -262 377q-73 0 -199 -55v-588zM236 2h-196l-4 3v45l4 3h31q13 0 35 7q126 61 126 248l4 -3v687q0 93 -27 133q-32 50 -120 50h-42v37h189q112 0 149 -41q39 -44 39 -179v-166q126 55 262 55q196 0 302 -132
q97 -120 97 -318q0 -196 -95 -318q-102 -132 -283 -132q-190 0 -283 101h-10l-8 -21l-35 -36l-37 -11l-98 -15v3z" />
    <glyph glyph-name="c" unicode="c" horiz-adv-x="858" 
d="M701 904q136 -71 136 -282l-97 24q15 94 -59 157q-101 79 -196 58q-78 3 -155 -110q-69 -104 -69 -279t69 -279q77 -113 203 -113q183 24 219 202l61 -66q-39 -194 -350 -216q-213 0 -330 138q-107 126 -107 331t107 331q117 138 330 156q137 3 238 -52z" />
    <glyph glyph-name="d" unicode="d" horiz-adv-x="1076" 
d="M752 796q-139 57 -220 57q-291 0 -291 -386q0 -172 64 -273q70 -112 203 -112q151 0 244 113v601zM961 212q24 -116 118 -162q22 -7 35 -7h31l4 -3v-45l-4 -3h-237q-107 0 -134 93l-2 13v4l-8 8h-12q-102 -103 -313 -103q-201 0 -314 135q-104 125 -104 325
q0 202 107 326q118 135 334 135q151 0 290 -57v170q0 95 -29 136q-36 51 -133 51h-47v38h209q124 0 166 -42q43 -45 43 -183v-829z" />
    <glyph glyph-name="e" unicode="e" horiz-adv-x="844" 
d="M403 931h15q222 0 354 -169q53 -84 53 -213q0 -208 -154 -316q-91 -58 -227 -58q-81 0 -163 21v-1q44 -84 165 -128q39 -13 64 -13h182l3 -3v-49l-3 -3h-274q-107 0 -245 79q-55 40 -86 89q-81 146 -81 368v33q0 135 81 216q30 35 61 56q130 91 255 91zM212 553
q0 -168 115 -261q49 -29 89 -29q110 0 178 140q30 73 30 153q0 153 -103 249q-51 40 -103 40q-106 0 -175 -136q-31 -74 -31 -156z" />
    <glyph glyph-name="f" unicode="f" horiz-adv-x="549" 
d="M332 115h-1q-4 -121 -129 -117l-212 1l-2 3v48l3 3h89q34 6 34 12q48 26 49 166l3 329l2 256h-89v71h89v52q0 299 379 327l-13 -113q-202 15 -202 -214v-52h160v-71h-160v-701z" />
    <glyph glyph-name="g" unicode="g" horiz-adv-x="950" 
d="M373 155q-172 -68 -172 -241q0 -231 263 -231q262 0 262 231q0 202 -243 232zM606 845q-53 56 -142 56q-202 0 -202 -232q0 -231 202 -231q201 0 201 231q0 116 -59 176zM490 964q268 60 268 149h6l3 -35q0 -122 -90 -169l28 -8v-10q142 -70 142 -222q0 -301 -383 -301
q-213 0 -213 -71t213 -71q195 0 312 -73q131 -82 131 -239q0 -312 -443 -312q-445 0 -445 312q0 188 222 262q-81 40 -81 121q0 63 71 110q-151 76 -151 262q0 302 384 302z" />
    <glyph glyph-name="h" unicode="h" horiz-adv-x="1116" 
d="M-17 1215h222q94 0 134 -125l6 -52v-254q142 119 231 119h32q195 0 288 -212q23 -68 23 -143v-334q0 -135 66 -166l20 -3h101l6 -6v-43l-6 -6h-224q-90 0 -127 104q-15 66 -15 108v361q0 171 -169 212l-49 3q-61 0 -151 -113q32 -20 112 -41l3 -3v-3q0 -25 -103 -72
l-38 -24v-346q0 -131 -109 -174l-40 -6h-213l-6 6v44l6 5h83q67 0 89 99q9 19 9 47v500l3 3l-3 3v317q-12 114 -107 114h-74l-6 5v70z" />
    <glyph glyph-name="i" unicode="i" horiz-adv-x="496" 
d="M-31 886h223q72 0 121 -75q26 -51 26 -124v-483q-5 -117 79 -126l25 -3h42l3 -2v-70l-3 -3h-181q-96 0 -131 102q-17 50 -17 96v482q0 88 -68 115q-19 5 -33 5h-86l-3 2v82z" />
    <glyph glyph-name="j" unicode="j" horiz-adv-x="356" 
d="M146 662q0 95 -22 136q-30 50 -108 50h-37v37h167q101 0 132 -41q35 -44 35 -182v-603q0 -215 -70 -304q-76 -95 -273 -95v37q176 0 176 362v603z" />
    <glyph glyph-name="k" unicode="k" horiz-adv-x="1045" 
d="M45 1220h199q115 0 131 -160v-347q0 -41 1 -186q139 65 179 66l32 7h10q118 0 142 87q20 98 39 149q31 77 152 82q-57 -43 -79 -111q-8 -152 -45 -223l-41 -43q119 -68 119 -178v-188q0 -120 44 -132l29 -6h70l6 -6v-22l-6 -6h-178q-103 12 -103 123v224q0 103 -109 136
l-60 6q-161 -12 -198 -96l-4 -15v-209q0 -135 -106 -169l-38 -3h-192v6v62v6h87q71 0 83 98v873q0 104 -102 104h-62l-6 6v59z" />
    <glyph glyph-name="l" unicode="l" horiz-adv-x="429" 
d="M123 1012q0 50 -22 92q-29 32 -105 22h-36v69h163q74 4 122 -38q41 -32 41 -145v-780q0 -140 49 -166q0 -6 35 -13h92l3 -3v-48l-3 -3h-218q-90 0 -117 149q-4 17 -4 36v828z" />
    <glyph glyph-name="m" unicode="m" horiz-adv-x="1747" 
d="M1372 580q0 261 -173 261q-133 0 -216 -126q8 -27 0 -135v-580h-194v580q0 261 -173 261q-114 0 -216 -102v-739h-195v677q0 98 -27 109q-34 32 -143 28h-43v95h213q149 0 184 -78h11q108 97 281 97q190 0 259 -135q117 135 324 135q289 0 301 -319h1v-374
q0 -140 58 -166q0 -6 42 -13h109l3 -3v-48l-3 -3h-259q-107 0 -140 149q-4 17 -4 36v393z" />
    <glyph glyph-name="n" unicode="n" horiz-adv-x="1127" 
d="M644 909h19q136 0 235 -100q97 -108 97 -249v-329q0 -140 55 -166q0 -6 40 -13h104l3 -3v-48l-3 -3h-247q-102 0 -133 149q-4 17 -4 36v354q0 175 -125 227q-51 18 -107 18q-103 -3 -203 -103q-37 -45 -37 -90v-591l-3 -3h-180l-4 3v694q0 88 -72 119l-35 5h-84l-3 3v78
l3 3h227q86 0 133 -95l9 -31q147 132 315 135z" />
    <glyph glyph-name="o" unicode="o" horiz-adv-x="895" 
d="M767 1042l2 -1l1 -38q0 -112 -86 -153l-16 -6q47 -25 116 -93q113 -137 113 -302q0 -177 -130 -316q-137 -133 -316 -133q-207 0 -353 176q-91 127 -91 268v12q0 198 163 343q128 101 279 101l49 -2q113 24 176 52q45 22 68 46q20 22 24 46h1zM223 448q0 -180 113 -293
q58 -49 123 -49h1q117 0 196 156q36 92 36 173v27q0 141 -88 255q-68 74 -144 74h-1q-119 0 -194 -148q-42 -90 -42 -195z" />
    <glyph glyph-name="p" unicode="p" horiz-adv-x="962" 
d="M172 1043h3v-2q0 -73 178 -125q44 -13 97 -24l43 3q202 0 347 -164q104 -132 104 -287v-11q0 -208 -175 -357q-128 -94 -276 -94q-145 0 -270 91v-246q0 -89 -57 -158q-36 -33 -80 -33h-243l-3 3v46l3 3h91q73 0 97 82q7 29 7 57v497q0 38 6 65l-1 35v27q0 148 104 280
q63 69 91 84l36 24q-48 14 -73 50q-30 48 -30 103v18zM248 436q0 -177 111 -292q60 -55 131 -55q96 0 171 112q64 104 64 237q0 164 -97 278q-67 69 -141 69q-116 0 -195 -149q-44 -97 -44 -200z" />
    <glyph glyph-name="q" unicode="q" horiz-adv-x="1024" 
d="M783 1052h3l2 -34v-14q0 -113 -93 -154l-11 -3l69 -49q165 -149 165 -354l-3 -48q6 -24 6 -73v-491q0 -115 77 -142l27 -3h94l3 -3v-47l-3 -3h-236q-96 0 -131 102q-18 52 -18 99v238h-1q-124 -89 -264 -89h-14q-170 0 -309 129q-138 143 -138 321v19q0 191 157 339
q134 111 295 111l50 -1q273 57 273 150zM229 440q0 -194 127 -309q58 -39 105 -39h15q100 0 178 127q55 104 55 221q0 192 -122 308q-58 44 -121 44q-114 0 -193 -148q-44 -94 -44 -204z" />
    <glyph glyph-name="r" unicode="r" horiz-adv-x="584" 
d="M569 878l14 2h2q18 0 31 -44l-1 -7q-5 -4 -38 -17l-44 -19q-24 -11 -80 -49q-37 -20 -70 -58q-32 -46 -32 -83v-602l-2 -2h-185l-2 2v671q0 106 -69 134q-21 5 -40 5h-86l-2 2v80l2 1h226q78 0 125 -70q21 -38 21 -70v-3q76 62 161 103q40 22 69 24z" />
    <glyph glyph-name="s" unicode="s" horiz-adv-x="649" 
d="M271 880h285l3 -3v-76l-3 -3h-269q-66 0 -104 -51q-9 -20 -9 -36v-3q0 -79 134 -150q39 -24 152 -82q44 -27 98 -83q60 -79 60 -135q0 -103 -22 -122q-62 -90 -159 -120q-45 -12 -97 -12h-159l-3 3v46l3 3h139q90 0 138 72q12 24 12 44v15q0 65 -81 121q-127 53 -249 141
q-116 102 -116 198v12q0 78 76 161q75 60 171 60z" />
    <glyph glyph-name="t" unicode="t" horiz-adv-x="614" 
d="M-13 1221h254q84 0 124 -110q12 -45 12 -78v-146h161l3 -3v-81l-3 -3h-161v-583q0 -84 69 -114q19 -7 50 -7h89l3 -3v-89l-3 -2h-233q-74 0 -128 64q-37 44 -37 143v801q0 110 -79 135l-31 3h-90l-3 3v67z" />
    <glyph glyph-name="u" unicode="u" horiz-adv-x="1163" 
d="M519 -2h-18q-135 0 -234 99q-96 107 -96 248v327q0 139 -55 164q0 7 -40 14h-103l-3 3v47l3 3h245q102 0 132 -148q5 -17 5 -36v-351q0 -174 123 -226q52 -18 106 -18q80 0 179 99q37 45 37 90v587l3 3h179l3 -3v-689q0 -88 72 -119l35 -4h83l3 -3v-78l-3 -3h-225
q-85 0 -132 94l-9 31q-146 -131 -290 -131z" />
    <glyph glyph-name="v" unicode="v" horiz-adv-x="968" 
d="M583 275l266 627h95l-390 -912h-38l-294 694q-47 108 -87 149q-42 42 -111 46v38l65 4q221 0 323 -237z" />
    <glyph glyph-name="w" unicode="w" horiz-adv-x="1422" 
d="M779 626l-256 -612l-32 -11q-12 15 -49 85q-257 569 -323 692q-23 29 -56 36l-27 -2h-84l-4 4v75l4 4h243q89 0 144 -159l195 -438q22 33 188 444l-17 32q-23 29 -63 35l-18 1h-84l-3 2v75l1 4h243q89 0 144 -159l195 -438q9 8 193 458q14 34 14 51v5q0 32 -41 43h-60
l-5 4v32l5 4h245l2 -2h2q-256 -635 -366 -881l-20 -11q-24 3 -68 88z" />
    <glyph glyph-name="x" unicode="x" horiz-adv-x="1068" 
d="M456 431q-232 325 -293 396q-21 18 -53 23l-25 -2h-80l-4 3v44l4 3h231q84 0 136 -96l186 -264q9 5 125 170q13 20 13 31v2q0 19 -39 26h-58l-4 3v18l4 3h233l3 -1h2l-219 -321q232 -326 293 -397q21 -17 53 -22l25 1h80l4 -3v-44l-4 -2h-231q-84 0 -136 96l-186 264
q-9 -6 -184 -276q-13 -21 -13 -32v-3q0 -18 39 -24h58l4 -3v-20l-4 -2h-233l-3 1h-2z" />
    <glyph glyph-name="y" unicode="y" horiz-adv-x="897" 
d="M442 4l-300 713q-55 132 -213 146v37h165q170 0 232 -146l213 -503l239 577h97l-375 -924q-56 -145 -129 -199q-62 -48 -171 -42l-99 6v94q247 -36 302 141z" />
    <glyph glyph-name="z" unicode="z" horiz-adv-x="968" 
d="M771 0h-730v36l531 781h-234q-255 0 -255 -171h-42v95q0 152 174 152h623l-505 -742h511q47 -2 65 95h41v-95q0 -121 -110 -146l-8 -2l-29 -3q-13 -1 -27 -1z" />
    <glyph glyph-name="braceleft" unicode="{" horiz-adv-x="1014" 
 />
    <glyph glyph-name="bar" unicode="|" horiz-adv-x="1014" 
 />
    <glyph glyph-name="braceright" unicode="}" horiz-adv-x="1014" 
 />
    <glyph glyph-name="asciitilde" unicode="~" horiz-adv-x="1014" 
 />
    <glyph glyph-name="exclamdown" unicode="&#xa1;" horiz-adv-x="672" 
 />
    <glyph glyph-name="cent" unicode="&#xa2;" horiz-adv-x="1139" 
 />
    <glyph glyph-name="sterling" unicode="&#xa3;" 
d="M763 1429l292 -662l-456 -212l-62 124q315 146 322 146l-234 540zM576 1328h2l49 -113v-3l-316 -139l60 -144l282 120h2q45 -96 45 -107l-277 -127l120 -271q-130 -65 -137 -65l-284 650q443 199 454 199zM126 722h5l251 -432h4l432 247h5q-69 -286 -73 -290l-439 -249
h-4l-256 434v2z" />
    <glyph glyph-name="currency" unicode="&#xa4;" horiz-adv-x="1014" 
 />
    <glyph glyph-name="yen" unicode="&#xa5;" 
d="M763 1429l292 -662l-456 -212l-62 124q315 146 322 146l-234 540zM576 1328h2l49 -113v-3l-316 -139l60 -144l282 120h2q45 -96 45 -107l-277 -127l120 -271q-130 -65 -137 -65l-284 650q443 199 454 199zM126 722h5l251 -432h4l432 247h5q-69 -286 -73 -290l-439 -249
h-4l-256 434v2z" />
    <glyph glyph-name="brokenbar" unicode="&#xa6;" horiz-adv-x="1014" 
 />
    <glyph glyph-name="section" unicode="&#xa7;" horiz-adv-x="1014" 
 />
    <glyph glyph-name="dieresis" unicode="&#xa8;" horiz-adv-x="1024" 
 />
    <glyph glyph-name="ordfeminine" unicode="&#xaa;" horiz-adv-x="648" 
 />
    <glyph glyph-name="guillemotleft" unicode="&#xab;" horiz-adv-x="944" 
 />
    <glyph glyph-name="logicalnot" unicode="&#xac;" horiz-adv-x="1014" 
 />
    <glyph glyph-name="macron" unicode="&#xaf;" horiz-adv-x="670" 
 />
    <glyph glyph-name="degree" unicode="&#xb0;" horiz-adv-x="674" 
 />
    <glyph glyph-name="plusminus" unicode="&#xb1;" horiz-adv-x="1014" 
 />
    <glyph glyph-name="uni00B2" unicode="&#xb2;" horiz-adv-x="1014" 
 />
    <glyph glyph-name="uni00B3" unicode="&#xb3;" horiz-adv-x="1014" 
 />
    <glyph glyph-name="acute" unicode="&#xb4;" horiz-adv-x="1024" 
 />
    <glyph glyph-name="mu" unicode="&#xb5;" horiz-adv-x="1180" 
 />
    <glyph glyph-name="paragraph" unicode="&#xb6;" horiz-adv-x="1024" 
 />
    <glyph glyph-name="periodcentered" unicode="&#xb7;" horiz-adv-x="508" 
 />
    <glyph glyph-name="periodcentered" unicode="&#x2219;" horiz-adv-x="508" 
 />
    <glyph glyph-name="cedilla" unicode="&#xb8;" horiz-adv-x="1024" 
 />
    <glyph glyph-name="uni00B9" unicode="&#xb9;" horiz-adv-x="1014" 
 />
    <glyph glyph-name="ordmasculine" unicode="&#xba;" horiz-adv-x="718" 
 />
    <glyph glyph-name="guillemotright" unicode="&#xbb;" horiz-adv-x="944" 
 />
    <glyph glyph-name="onequarter" unicode="&#xbc;" horiz-adv-x="1708" 
 />
    <glyph glyph-name="onehalf" unicode="&#xbd;" horiz-adv-x="1964" 
 />
    <glyph glyph-name="threequarters" unicode="&#xbe;" horiz-adv-x="1708" 
 />
    <glyph glyph-name="questiondown" unicode="&#xbf;" horiz-adv-x="748" 
 />
    <glyph glyph-name="Agrave" unicode="&#xc0;" horiz-adv-x="1540" 
 />
    <glyph glyph-name="Aacute" unicode="&#xc1;" horiz-adv-x="1540" 
 />
    <glyph glyph-name="Acircumflex" unicode="&#xc2;" horiz-adv-x="1540" 
 />
    <glyph glyph-name="Atilde" unicode="&#xc3;" horiz-adv-x="1540" 
 />
    <glyph glyph-name="Adieresis" unicode="&#xc4;" horiz-adv-x="1540" 
 />
    <glyph glyph-name="Aring" unicode="&#xc5;" horiz-adv-x="1540" 
 />
    <glyph glyph-name="AE" unicode="&#xc6;" horiz-adv-x="2118" 
 />
    <glyph glyph-name="Ccedilla" unicode="&#xc7;" horiz-adv-x="1399" 
 />
    <glyph glyph-name="Egrave" unicode="&#xc8;" horiz-adv-x="1151" 
 />
    <glyph glyph-name="Eacute" unicode="&#xc9;" horiz-adv-x="1151" 
 />
    <glyph glyph-name="Ecircumflex" unicode="&#xca;" horiz-adv-x="1151" 
 />
    <glyph glyph-name="Edieresis" unicode="&#xcb;" horiz-adv-x="1151" 
 />
    <glyph glyph-name="Igrave" unicode="&#xcc;" horiz-adv-x="657" 
 />
    <glyph glyph-name="Iacute" unicode="&#xcd;" horiz-adv-x="657" 
 />
    <glyph glyph-name="Icircumflex" unicode="&#xce;" horiz-adv-x="657" 
 />
    <glyph glyph-name="Idieresis" unicode="&#xcf;" horiz-adv-x="657" 
 />
    <glyph glyph-name="Eth" unicode="&#xd0;" horiz-adv-x="1518" 
 />
    <glyph glyph-name="Ntilde" unicode="&#xd1;" horiz-adv-x="1554" 
 />
    <glyph glyph-name="Ograve" unicode="&#xd2;" horiz-adv-x="1614" 
 />
    <glyph glyph-name="Oacute" unicode="&#xd3;" horiz-adv-x="1614" 
 />
    <glyph glyph-name="Ocircumflex" unicode="&#xd4;" horiz-adv-x="1614" 
 />
    <glyph glyph-name="Otilde" unicode="&#xd5;" horiz-adv-x="1614" 
 />
    <glyph glyph-name="Odieresis" unicode="&#xd6;" horiz-adv-x="1614" 
 />
    <glyph glyph-name="multiply" unicode="&#xd7;" horiz-adv-x="1014" 
 />
    <glyph glyph-name="Oslash" unicode="&#xd8;" horiz-adv-x="1614" 
 />
    <glyph glyph-name="Ugrave" unicode="&#xd9;" horiz-adv-x="1501" 
 />
    <glyph glyph-name="Uacute" unicode="&#xda;" horiz-adv-x="1501" 
 />
    <glyph glyph-name="Ucircumflex" unicode="&#xdb;" horiz-adv-x="1501" 
 />
    <glyph glyph-name="Udieresis" unicode="&#xdc;" horiz-adv-x="1501" 
 />
    <glyph glyph-name="Yacute" unicode="&#xdd;" horiz-adv-x="1233" 
 />
    <glyph glyph-name="Thorn" unicode="&#xde;" horiz-adv-x="1120" 
 />
    <glyph glyph-name="germandbls" unicode="&#xdf;" horiz-adv-x="1251" 
 />
    <glyph glyph-name="agrave" unicode="&#xe0;" horiz-adv-x="922" 
 />
    <glyph glyph-name="aacute" unicode="&#xe1;" horiz-adv-x="922" 
 />
    <glyph glyph-name="acircumflex" unicode="&#xe2;" horiz-adv-x="922" 
 />
    <glyph glyph-name="atilde" unicode="&#xe3;" horiz-adv-x="922" 
 />
    <glyph glyph-name="adieresis" unicode="&#xe4;" horiz-adv-x="922" 
 />
    <glyph glyph-name="aring" unicode="&#xe5;" horiz-adv-x="922" 
 />
    <glyph glyph-name="ae" unicode="&#xe6;" horiz-adv-x="1454" 
d="M210 912h234q50 0 117 -27q98 -44 139 -137q11 -27 17 -53q9 -43 9 -67l1 -26q163 34 192 42q61 22 81 63q10 21 10 38v3h1q12 -29 12 -57q0 -73 -79 -127q-24 -16 -53 -26q-23 -7 -63 -13l-101 -18v-316q0 -44 15 -87q8 -19 24 -36q22 -18 45 -18h46l1 -1v-52l-1 -1
h-158q-92 0 -128 99q-7 15 -14 48l-2 12q-152 -153 -311 -153q-58 0 -117 22q-20 10 -41 25q-77 62 -77 148v4q0 63 42 132q35 53 100 97q41 28 89 51q57 28 139 53q64 18 94 18q34 5 78 13v71q0 47 -22 108q-8 17 -22 38q-18 25 -50 35q-6 3 -52 4l-195 6l-1 1v83zM209 249
v-1q0 -50 32 -97q32 -39 86 -39q43 0 90 26l134 100v242q-84 -16 -149 -38q-82 -27 -113 -52q-33 -26 -53 -55q-27 -42 -27 -86zM951 928h15q223 0 354 -169q53 -84 53 -213q0 -208 -154 -316q-90 -58 -226 -58q-82 0 -163 21v-1q43 -84 164 -128q40 -13 64 -13h182l3 -3
v-49l-3 -3h-274q-106 0 -244 79q-55 40 -86 89q-82 146 -82 368v33q0 135 82 216q29 35 61 56q129 91 254 91zM760 550q0 -168 116 -261q48 -29 89 -29q109 0 177 140q30 73 30 153q0 153 -102 249q-52 40 -104 40q-106 0 -175 -136q-31 -74 -31 -156z" />
    <glyph glyph-name="ccedilla" unicode="&#xe7;" horiz-adv-x="905" 
 />
    <glyph glyph-name="egrave" unicode="&#xe8;" horiz-adv-x="909" 
 />
    <glyph glyph-name="eacute" unicode="&#xe9;" horiz-adv-x="909" 
 />
    <glyph glyph-name="ecircumflex" unicode="&#xea;" horiz-adv-x="909" 
 />
    <glyph glyph-name="edieresis" unicode="&#xeb;" horiz-adv-x="909" 
 />
    <glyph glyph-name="igrave" unicode="&#xec;" horiz-adv-x="514" 
 />
    <glyph glyph-name="iacute" unicode="&#xed;" horiz-adv-x="514" 
 />
    <glyph glyph-name="icircumflex" unicode="&#xee;" horiz-adv-x="514" 
 />
    <glyph glyph-name="idieresis" unicode="&#xef;" horiz-adv-x="514" 
 />
    <glyph glyph-name="eth" unicode="&#xf0;" horiz-adv-x="1139" 
 />
    <glyph glyph-name="ntilde" unicode="&#xf1;" horiz-adv-x="1108" 
 />
    <glyph glyph-name="ograve" unicode="&#xf2;" horiz-adv-x="1010" 
 />
    <glyph glyph-name="oacute" unicode="&#xf3;" horiz-adv-x="1010" 
 />
    <glyph glyph-name="ocircumflex" unicode="&#xf4;" horiz-adv-x="1010" 
 />
    <glyph glyph-name="otilde" unicode="&#xf5;" horiz-adv-x="1010" 
 />
    <glyph glyph-name="odieresis" unicode="&#xf6;" horiz-adv-x="1010" 
 />
    <glyph glyph-name="divide" unicode="&#xf7;" horiz-adv-x="1014" 
 />
    <glyph glyph-name="oslash" unicode="&#xf8;" horiz-adv-x="1010" 
 />
    <glyph glyph-name="ugrave" unicode="&#xf9;" horiz-adv-x="1059" 
 />
    <glyph glyph-name="uacute" unicode="&#xfa;" horiz-adv-x="1059" 
 />
    <glyph glyph-name="ucircumflex" unicode="&#xfb;" horiz-adv-x="1059" 
 />
    <glyph glyph-name="udieresis" unicode="&#xfc;" horiz-adv-x="1059" 
 />
    <glyph glyph-name="yacute" unicode="&#xfd;" horiz-adv-x="868" 
 />
    <glyph glyph-name="thorn" unicode="&#xfe;" horiz-adv-x="1010" 
 />
    <glyph glyph-name="ydieresis" unicode="&#xff;" horiz-adv-x="868" 
 />
    <glyph glyph-name="dotlessi" unicode="&#x131;" horiz-adv-x="514" 
 />
    <glyph glyph-name="caron" unicode="&#x2c7;" horiz-adv-x="1024" 
 />
    <glyph glyph-name="uni02C9" unicode="&#x2c9;" horiz-adv-x="1024" 
 />
    <glyph glyph-name="breve" unicode="&#x2d8;" horiz-adv-x="1024" 
 />
    <glyph glyph-name="dotaccent" unicode="&#x2d9;" horiz-adv-x="1024" 
 />
    <glyph glyph-name="ring" unicode="&#x2da;" horiz-adv-x="1024" 
 />
    <glyph glyph-name="ogonek" unicode="&#x2db;" horiz-adv-x="1024" 
 />
    <glyph glyph-name="tilde" unicode="&#x2dc;" horiz-adv-x="1024" 
 />
    <glyph glyph-name="hungarumlaut" unicode="&#x2dd;" horiz-adv-x="1024" 
 />
    <glyph glyph-name="endash" unicode="&#x2013;" horiz-adv-x="1108" 
 />
    <glyph glyph-name="emdash" unicode="&#x2014;" horiz-adv-x="2048" 
 />
    <glyph glyph-name="quoteleft" unicode="&#x2018;" horiz-adv-x="557" 
 />
    <glyph glyph-name="quoteright" unicode="&#x2019;" horiz-adv-x="557" 
 />
    <glyph glyph-name="quotesinglbase" unicode="&#x201a;" horiz-adv-x="557" 
 />
    <glyph glyph-name="quotedblleft" unicode="&#x201c;" horiz-adv-x="910" 
 />
    <glyph glyph-name="quotedblright" unicode="&#x201d;" horiz-adv-x="910" 
 />
    <glyph glyph-name="quotedblbase" unicode="&#x201e;" horiz-adv-x="910" 
 />
    <glyph glyph-name="dagger" unicode="&#x2020;" 
d="M763 1429l292 -662l-456 -212l-62 124q315 146 322 146l-234 540zM576 1328h2l49 -113v-3l-316 -139l60 -144l282 120h2q45 -96 45 -107l-277 -127l120 -271q-130 -65 -137 -65l-284 650q443 199 454 199zM126 722h5l251 -432h4l432 247h5q-69 -286 -73 -290l-439 -249
h-4l-256 434v2z" />
    <glyph glyph-name="daggerdbl" unicode="&#x2021;" horiz-adv-x="1014" 
 />
    <glyph glyph-name="bullet" unicode="&#x2022;" horiz-adv-x="1024" 
 />
    <glyph glyph-name="ellipsis" unicode="&#x2026;" horiz-adv-x="2048" 
 />
    <glyph glyph-name="guilsinglleft" unicode="&#x2039;" horiz-adv-x="631" 
 />
    <glyph glyph-name="guilsinglright" unicode="&#x203a;" horiz-adv-x="631" 
 />
    <glyph glyph-name="fraction" unicode="&#x2044;" horiz-adv-x="342" 
 />
    <glyph glyph-name="fraction" unicode="&#x2215;" horiz-adv-x="342" 
 />
    <glyph glyph-name="franc" unicode="&#x20a3;" horiz-adv-x="1014" 
 />
    <glyph glyph-name="lira" unicode="&#x20a4;" horiz-adv-x="1014" 
 />
    <glyph glyph-name="peseta" unicode="&#x20a7;" horiz-adv-x="2028" 
 />
    <glyph glyph-name="Euro" unicode="&#x20ac;" horiz-adv-x="1014" 
 />
    <glyph glyph-name="afii61352" unicode="&#x2116;" horiz-adv-x="2271" 
 />
    <glyph glyph-name="trademark" unicode="&#x2122;" horiz-adv-x="803" 
d="M109 1172q-75 0 -75 -72h-14v43q0 58 54 58h261v-29h-125v-309h-65v309h-36zM532 863h-14l-122 270v-270h-28v338h68l107 -238l107 238h64v-374q0 -43 15 -74q17 -34 43 -34v-14q-122 0 -122 122v299z" />
    <glyph glyph-name="partialdiff" unicode="&#x2202;" horiz-adv-x="1014" 
 />
    <glyph glyph-name="Delta" unicode="&#x2206;" horiz-adv-x="1081" 
 />
    <glyph glyph-name="product" unicode="&#x220f;" horiz-adv-x="1515" 
 />
    <glyph glyph-name="summation" unicode="&#x2211;" horiz-adv-x="1206" 
 />
    <glyph glyph-name="minus" unicode="&#x2212;" horiz-adv-x="1014" 
 />
    <glyph glyph-name="radical" unicode="&#x221a;" horiz-adv-x="1014" 
 />
    <glyph glyph-name="infinity" unicode="&#x221e;" horiz-adv-x="1014" 
 />
    <glyph glyph-name="integral" unicode="&#x222b;" horiz-adv-x="665" 
 />
    <glyph glyph-name="approxequal" unicode="&#x2248;" horiz-adv-x="1014" 
 />
    <glyph glyph-name="lessequal" unicode="&#x2264;" horiz-adv-x="1014" 
 />
    <glyph glyph-name="greaterequal" unicode="&#x2265;" horiz-adv-x="1014" 
 />
    <glyph glyph-name="uniF001" unicode="&#xf001;" horiz-adv-x="1073" 
 />
    <glyph glyph-name="uniF001" unicode="&#xfb01;" horiz-adv-x="1073" 
 />
    <glyph glyph-name="uniF002" unicode="&#xf002;" horiz-adv-x="1081" 
 />
    <glyph glyph-name="uniF002" unicode="&#xfb02;" horiz-adv-x="1081" 
 />
    <glyph glyph-name="Scaron" unicode="&#x160;" horiz-adv-x="1085" 
d="M485 1190q147 0 316 -107q36 -21 79 -54q170 -137 170 -316q0 -188 -182 -267q-23 -8 -29 -9q19 12 44 34q38 39 49 62q13 20 26 54q21 68 21 127q0 87 -57 172q-48 87 -175 157q-122 65 -239 65h-13q-158 0 -270 -110q-43 -46 -60 -79q-15 -27 -24 -54q-12 -33 -12 -73
q0 -106 54 -179v-1q-36 25 -55 89q-11 46 -11 83q0 137 104 242l21 19q-28 -11 -71 -51q-43 -46 -58 -77q-39 -71 -39 -143v-9q0 -112 96 -202q23 -19 37 -27v-1q-34 8 -72 38q-95 80 -95 204q0 89 44 183q67 132 210 192q95 38 191 38z" />
    <glyph glyph-name="OE" unicode="&#x152;" horiz-adv-x="2765" 
d="M1003 1426h14q209 0 340 -120q43 -44 56 -83q25 -64 25 -110v-10q0 -97 -104 -131q-24 -6 -43 -6h-4q-72 0 -108 57q-8 17 -8 30v8q0 31 37 47l9 1q19 0 25 -27v-4q0 -19 -23 -23q-22 4 -22 15h-1l-3 -11q0 -16 16 -33q19 -16 38 -16q43 0 77 49q13 21 13 41
q0 78 -106 141q-101 55 -253 55q-105 0 -184 -29v-1h58q156 0 222 -66q40 -37 50 -66q15 -35 15 -62q0 -68 -64 -109q-15 -7 -26 -8v1q43 32 43 52q4 13 4 44q0 62 -37 93q-41 41 -126 60q-38 7 -76 7h-19q-99 0 -209 -33v-1h2q46 4 88 5q121 0 195 -61q48 -47 48 -117
q0 -24 -8 -46h-2v22q0 102 -71 131q-28 15 -76 25q-67 9 -96 9q-147 0 -286 -92q-92 -64 -126 -170q-28 -83 -28 -163v-9q0 -173 122 -292q74 -60 141 -72v-2h-2q-72 0 -159 65q-60 54 -76 82q-26 39 -36 61h-1v-2q7 -89 65 -224q33 -70 87 -149q46 -67 128 -156l21 -20h-1
q-61 37 -149 117q-66 61 -105 110q-50 66 -74 114l-131 299l41 295q80 71 80 82q42 60 128 149q134 122 275 181q187 76 380 76zM2557 1091q113 0 141 -109q7 -32 7 -70q0 -109 -51 -168q-33 -38 -63 -57q-88 -55 -199 -55q-66 0 -159 26q-105 24 -175 24h-11
q-140 0 -180 -100q-9 -27 -9 -46q0 -46 30 -86q31 -31 65 -31q35 0 48 42l1 8q-1 11 -3 11q-9 -11 -19 -11h-4q-21 3 -21 18v5q4 22 22 22h4q22 0 32 -30q2 -9 2 -18v-4q0 -64 -81 -77l-16 -1q-87 0 -139 103q-16 42 -16 74q0 61 43 119q34 37 64 52q27 15 81 32l40 10v1
h-29q-142 0 -238 -83q-49 -52 -60 -88q-21 -52 -21 -69h-2v9q0 127 142 214q90 48 237 48q111 0 252 -29q30 -3 63 -3q169 0 224 68q19 35 19 62q0 51 -58 70l-19 2h-4q-13 0 -24 -3l-1 1q19 32 60 32h2q24 0 51 -11q-14 27 -56 42q-20 5 -33 5q-49 0 -82 -40v1
q46 88 143 88zM1829 545q0 -57 38 -98v1q-24 48 -24 81v2q0 93 101 149q55 26 126 26h8q87 0 230 -39q47 -9 90 -9q54 0 108 15v1q-27 -6 -60 -6q-93 0 -245 46q-57 15 -158 15h-1q-146 0 -202 -123q-11 -33 -11 -61z" />
    <glyph glyph-name="Zcaron" unicode="&#x17d;" horiz-adv-x="1124" 
d="M796 1432l292 -662l-456 -212l-62 124q315 146 322 146l-234 540zM609 1331h2l49 -113v-3l-316 -139l60 -144l282 120h2q45 -96 45 -107l-277 -127l120 -271q-130 -65 -137 -65l-284 650q443 199 454 199zM159 725h5l251 -432h4l432 247h5q-69 -286 -73 -290l-439 -249
h-4l-256 434v2z" />
    <glyph glyph-name="zcaron" unicode="&#x17e;" horiz-adv-x="727" 
d="M739 0h-730v36l531 781h-234q-255 0 -255 -171h-42v95q0 152 174 152h623l-505 -742h511q47 -2 65 95h41v-95q0 -121 -110 -146l-8 -2l-29 -3q-13 -1 -27 -1z" />
    <glyph glyph-name="Ydieresis" unicode="&#x178;" horiz-adv-x="1233" 
 />
    <glyph glyph-name="oe" unicode="&#x153;" horiz-adv-x="1919" 
d="M796 1042l2 -1l1 -38q0 -112 -86 -153l-16 -6q47 -25 116 -93q113 -137 113 -302q0 -177 -130 -316q-137 -133 -316 -133q-207 0 -353 176q-91 127 -91 268v12q0 198 163 343q128 101 279 101l49 -2q113 24 176 52q45 22 68 46q20 22 24 46h1zM252 448q0 -180 113 -293
q58 -49 123 -49h1q117 0 196 156q36 92 36 173v27q0 141 -88 255q-68 74 -144 74h-1q-119 0 -194 -148q-42 -90 -42 -195zM1413 931h15q222 0 354 -169q53 -84 53 -213q0 -208 -154 -316q-91 -58 -227 -58q-81 0 -163 21v-1q44 -84 165 -128q39 -13 64 -13h182l3 -3v-49
l-3 -3h-274q-107 0 -245 79q-55 40 -86 89q-81 146 -81 368v33q0 135 81 216q30 35 61 56q130 91 255 91zM1222 553q0 -168 115 -261q49 -29 89 -29q110 0 178 140q30 73 30 153q0 153 -103 249q-51 40 -103 40q-106 0 -175 -136q-31 -74 -31 -156z" />
    <glyph glyph-name="scaron" unicode="&#x161;" horiz-adv-x="702" 
d="M311 880h285l3 -3v-76l-3 -3h-269q-66 0 -104 -51q-9 -20 -9 -36v-3q0 -79 134 -150q39 -24 152 -82q44 -27 98 -83q60 -79 60 -135q0 -103 -22 -122q-62 -90 -159 -120q-45 -12 -97 -12h-159l-3 3v46l3 3h139q90 0 138 72q12 24 12 44v15q0 65 -81 121q-127 53 -249 141
q-116 102 -116 198v12q0 78 76 161q75 60 171 60z" />
    <glyph glyph-name="perthousand" unicode="&#x2030;" horiz-adv-x="342" 
 />
    <glyph glyph-name="circumflex" unicode="&#x2c6;" horiz-adv-x="1707" 
 />
    <glyph glyph-name="florin" unicode="&#x192;" horiz-adv-x="559" 
 />
    <glyph glyph-name="equal" unicode="=" horiz-adv-x="1707" 
 />
    <glyph glyph-name="parenright" unicode=")" horiz-adv-x="1707" 
 />
    <glyph glyph-name="parenleft" unicode="(" horiz-adv-x="1707" 
 />
  </font>
</defs>
</svg>
